<svg width="100" height="100" viewBox="0 0 100 100" fill="none" xmlns="http://www.w3.org/2000/svg">
<rect width="100" height="100" fill="white"/>
<path d="M21.4401 64.44C22.6101 62.44 21.9601 54.93 21.9601 54.93C21.9601 54.93 15.2101 58.18 14.0001 60.22C13.4637 61.1998 13.3336 62.351 13.6378 63.4258C13.9421 64.5005 14.6562 65.4128 15.6265 65.9661C16.5968 66.5195 17.7456 66.6696 18.8255 66.3841C19.9054 66.0987 20.8299 65.4005 21.4001 64.44H21.4401Z" fill="#4469E4"/>
<path d="M59.44 74.34C58.9037 75.3198 58.7736 76.471 59.0778 77.5458C59.382 78.6205 60.0961 79.5328 61.0664 80.0861C62.0367 80.6394 63.1855 80.7896 64.2654 80.5041C65.3453 80.2187 66.2699 79.5205 66.84 78.56C68.01 76.56 67.36 69.05 67.36 69.05C67.36 69.05 60.61 72.3 59.44 74.34Z" fill="#4469E4"/>
<path d="M23.11 52.59C23.4887 52.8134 23.9204 52.9309 24.36 52.93C24.7982 52.9301 25.2287 52.8146 25.608 52.5951C25.9872 52.3756 26.3018 52.06 26.52 51.68L42.52 24.08C42.7079 23.7957 42.8356 23.4759 42.8954 23.1405C42.9552 22.805 42.9457 22.4608 42.8677 22.1291C42.7896 21.7974 42.6445 21.4852 42.4414 21.2116C42.2382 20.938 41.9813 20.7088 41.6864 20.5381C41.3914 20.3674 41.0647 20.2588 40.7263 20.219C40.3878 20.1792 40.0448 20.209 39.7183 20.3066C39.3918 20.4042 39.0887 20.5674 38.8276 20.7864C38.5665 21.0054 38.353 21.2755 38.2 21.58L22.2 49.18C22.0338 49.4631 21.9254 49.7764 21.8812 50.1017C21.837 50.4271 21.8578 50.7579 21.9425 51.0751C22.0271 51.3924 22.1739 51.6896 22.3744 51.9496C22.5748 52.2097 22.8249 52.4273 23.11 52.59Z" fill="#4469E4"/>
<path d="M86.9999 36C86.7168 35.8338 86.4035 35.7254 86.0782 35.6812C85.7529 35.637 85.422 35.6578 85.1048 35.7425C84.7876 35.8271 84.4903 35.9739 84.2303 36.1743C83.9702 36.3747 83.7526 36.6248 83.5899 36.91L67.5899 64.51C67.4237 64.7931 67.3153 65.1064 67.2711 65.4318C67.2269 65.7571 67.2477 66.0879 67.3324 66.4052C67.417 66.7224 67.5638 67.0196 67.7643 67.2797C67.9647 67.5397 68.2147 67.7574 68.4999 67.92C68.8786 68.1434 69.3103 68.2609 69.7499 68.26C70.1908 68.2609 70.624 68.1447 71.0053 67.9233C71.3865 67.702 71.7022 67.3833 71.9199 67L87.9199 39.4C88.0842 39.1167 88.1907 38.8037 88.2334 38.479C88.276 38.1543 88.2539 37.8244 88.1684 37.5083C88.0828 37.1922 87.9356 36.8962 87.735 36.6373C87.5345 36.3784 87.2846 36.1618 86.9999 36Z" fill="#4469E4"/>
<path d="M63.41 29.63C63.1261 29.4635 62.8121 29.355 62.486 29.3106C62.1599 29.2663 61.8282 29.287 61.5102 29.3717C61.1922 29.4563 60.8941 29.6031 60.6332 29.8036C60.3722 30.0042 60.1536 30.2545 59.99 30.54L36.23 71.54C36.0586 71.8259 35.946 72.1432 35.899 72.4732C35.852 72.8032 35.8715 73.1393 35.9562 73.4617C36.041 73.784 36.1894 74.0862 36.3927 74.3504C36.596 74.6146 36.8501 74.8354 37.14 75C37.5218 75.2147 37.952 75.3283 38.39 75.33C38.8285 75.3309 39.2596 75.2168 39.6403 74.9993C40.0211 74.7817 40.3381 74.4682 40.56 74.09L64.32 33C64.6378 32.4305 64.7206 31.7595 64.5506 31.1299C64.3806 30.5003 63.9713 29.9621 63.41 29.63Z" fill="#4469E4"/>
<path d="M56.3399 18.66C55.7665 18.3284 55.0852 18.2368 54.4445 18.4054C53.8039 18.574 53.2558 18.989 52.9199 19.56L18.3099 78.89C18.1446 79.1729 18.0368 79.4856 17.9925 79.8102C17.9483 80.1349 17.9686 80.465 18.0522 80.7818C18.1358 81.0986 18.2811 81.3958 18.4798 81.6563C18.6784 81.9168 18.9266 82.1356 19.2099 82.3C19.5894 82.5311 20.0256 82.6522 20.4699 82.65C20.9065 82.6482 21.3352 82.5329 21.7138 82.3155C22.0925 82.0981 22.4082 81.7861 22.6299 81.41L57.2399 22.08C57.4055 21.7964 57.5135 21.4829 57.5579 21.1575C57.6023 20.8321 57.5821 20.5011 57.4985 20.1836C57.4149 19.866 57.2696 19.5679 57.0708 19.3065C56.872 19.0451 56.6236 18.8254 56.3399 18.66Z" fill="#4469E4"/>
<path d="M83.46 18.07C83.1726 17.9007 82.8543 17.7904 82.5237 17.7456C82.1932 17.7008 81.857 17.7223 81.5348 17.8089C81.2127 17.8955 80.911 18.0454 80.6475 18.2499C80.384 18.4544 80.1638 18.7094 80 19L45.43 78.3C45.0958 78.8729 45.0029 79.555 45.1717 80.1964C45.3405 80.8378 45.7571 81.3858 46.33 81.72C46.9029 82.0542 47.585 82.1471 48.2264 81.9783C48.8678 81.8095 49.4158 81.3929 49.75 80.82L84.36 21.49C84.5269 21.2067 84.636 20.8932 84.6811 20.5675C84.7261 20.2418 84.7063 19.9104 84.6226 19.5925C84.5389 19.2745 84.3931 18.9763 84.1936 18.7149C83.994 18.4536 83.7447 18.2344 83.46 18.07Z" fill="#4469E4"/>
</svg>
