<svg width="100" height="100" viewBox="0 0 100 100" fill="none" xmlns="http://www.w3.org/2000/svg">
<rect width="100" height="100" fill="white"/>
<path d="M66.74 34.79C59.62 34.79 53.41 37.79 50 42.2C46.59 37.77 40.38 34.79 33.26 34.79C22.48 34.79 13.74 41.6 13.74 50C13.74 58.4 22.48 65.2 33.26 65.2C40.38 65.2 46.59 62.2 50 57.8C53.41 62.23 59.62 65.2 66.74 65.2C77.52 65.2 86.26 58.4 86.26 50C86.26 41.6 77.52 34.79 66.74 34.79ZM33.26 59.32C25.64 59.32 19.46 55.15 19.46 50C19.46 44.85 25.64 40.67 33.26 40.67C40.88 40.67 47.06 44.85 47.06 50C47.06 55.15 40.89 59.32 33.26 59.32ZM66.74 59.32C59.11 59.32 52.93 55.15 52.93 50C52.93 44.85 59.11 40.67 66.74 40.67C74.37 40.67 80.54 44.85 80.54 50C80.54 55.15 74.36 59.32 66.74 59.32Z" fill="#6D8ACA"/>
<path d="M59.9001 30.69C62.1424 30.69 63.9601 28.8723 63.9601 26.63C63.9601 24.3877 62.1424 22.57 59.9001 22.57C57.6578 22.57 55.8401 24.3877 55.8401 26.63C55.8401 28.8723 57.6578 30.69 59.9001 30.69Z" fill="#6D8ACA"/>
<path d="M40.1 30.69C42.3423 30.69 44.16 28.8723 44.16 26.63C44.16 24.3877 42.3423 22.57 40.1 22.57C37.8578 22.57 36.04 24.3877 36.04 26.63C36.04 28.8723 37.8578 30.69 40.1 30.69Z" fill="#6D8ACA"/>
<path d="M20.29 29.03C22.5323 29.03 24.35 27.2122 24.35 24.97C24.35 22.7277 22.5323 20.91 20.29 20.91C18.0477 20.91 16.23 22.7277 16.23 24.97C16.23 27.2122 18.0477 29.03 20.29 29.03Z" fill="#6D8ACA"/>
<path d="M79.7099 29.44C81.9522 29.44 83.7699 27.6223 83.7699 25.38C83.7699 23.1377 81.9522 21.32 79.7099 21.32C77.4676 21.32 75.6499 23.1377 75.6499 25.38C75.6499 27.6223 77.4676 29.44 79.7099 29.44Z" fill="#6D8ACA"/>
<path d="M59.9001 77.43C62.1424 77.43 63.9601 75.6123 63.9601 73.37C63.9601 71.1277 62.1424 69.31 59.9001 69.31C57.6578 69.31 55.8401 71.1277 55.8401 73.37C55.8401 75.6123 57.6578 77.43 59.9001 77.43Z" fill="#6D8ACA"/>
<path d="M40.1 77.43C42.3423 77.43 44.16 75.6123 44.16 73.37C44.16 71.1277 42.3423 69.31 40.1 69.31C37.8578 69.31 36.04 71.1277 36.04 73.37C36.04 75.6123 37.8578 77.43 40.1 77.43Z" fill="#6D8ACA"/>
<path d="M20.29 79.09C22.5323 79.09 24.35 77.2722 24.35 75.03C24.35 72.7877 22.5323 70.97 20.29 70.97C18.0477 70.97 16.23 72.7877 16.23 75.03C16.23 77.2722 18.0477 79.09 20.29 79.09Z" fill="#6D8ACA"/>
<path d="M79.7099 78.68C81.9522 78.68 83.7699 76.8623 83.7699 74.62C83.7699 72.3777 81.9522 70.56 79.7099 70.56C77.4676 70.56 75.6499 72.3777 75.6499 74.62C75.6499 76.8623 77.4676 78.68 79.7099 78.68Z" fill="#6D8ACA"/>
</svg>
