<svg width="100" height="100" viewBox="0 0 100 100" fill="none" xmlns="http://www.w3.org/2000/svg">
<rect width="100" height="100" fill="white"/>
<path fill-rule="evenodd" clip-rule="evenodd" d="M71.0899 30.37C70.3168 30.3712 69.5448 30.428 68.7799 30.54C66.6219 27.5832 63.7961 25.1777 60.5327 23.5194C57.2693 21.8611 53.6605 20.9967 49.9999 20.9967C46.3393 20.9967 42.7305 21.8611 39.4671 23.5194C36.2037 25.1777 33.3779 27.5832 31.2199 30.54C28.9931 30.2267 26.7257 30.3747 24.5586 30.9747C22.3914 31.5748 20.3709 32.6141 18.6224 34.0281C16.8739 35.4421 15.4349 37.2006 14.3947 39.1943C13.3546 41.188 12.7356 43.3743 12.5762 45.6173C12.4168 47.8603 12.7203 50.1122 13.468 52.2329C14.2157 54.3537 15.3915 56.298 16.9224 57.9451C18.4533 59.5922 20.3066 60.9069 22.3671 61.8075C24.4275 62.708 26.6512 63.1752 28.8999 63.18C30.8892 63.1839 32.8621 62.8212 34.7199 62.11C38.9446 65.8219 44.3761 67.8691 49.9999 67.8691C55.6237 67.8691 61.0552 65.8219 65.2799 62.11C67.1342 62.8213 69.1039 63.1841 71.0899 63.18C73.2783 63.234 75.4554 62.8497 77.493 62.0495C79.5307 61.2494 81.3876 60.0497 82.9545 58.521C84.5214 56.9923 85.7666 55.1655 86.6168 53.1483C87.467 51.131 87.905 48.9641 87.905 46.775C87.905 44.5859 87.467 42.419 86.6168 40.4017C85.7666 38.3845 84.5214 36.5577 82.9545 35.029C81.3876 33.5004 79.5307 32.3006 77.493 31.5005C75.4554 30.7003 73.2783 30.316 71.0899 30.37ZM71.0899 58.5C68.6783 58.4959 66.3272 57.7448 64.3599 56.35C62.6233 58.4842 60.4329 60.2046 57.9481 61.3862C55.4633 62.5677 52.7464 63.1808 49.9949 63.1808C47.2434 63.1808 44.5265 62.5677 42.0417 61.3862C39.5569 60.2046 37.3665 58.4842 35.6299 56.35C33.968 57.5311 32.0265 58.2579 29.9976 58.4584C27.9686 58.6588 25.9224 58.3261 24.0615 57.493C22.2006 56.66 20.5895 55.3555 19.3875 53.7086C18.1855 52.0617 17.4344 50.1296 17.2083 48.1033C16.9823 46.077 17.2893 44.0268 18.0988 42.1556C18.9084 40.2843 20.1924 38.6569 21.824 37.4342C23.4556 36.2116 25.3782 35.4361 27.4014 35.1846C29.4247 34.933 31.4786 35.2141 33.3599 36C34.9076 32.9142 37.2831 30.3197 40.2208 28.5065C43.1586 26.6934 46.5427 25.7332 49.9949 25.7332C53.4471 25.7332 56.8313 26.6934 59.769 28.5065C62.7067 30.3197 65.0822 32.9142 66.6299 36C68.234 35.316 69.9706 34.9986 71.7129 35.0709C73.4553 35.1432 75.1596 35.6034 76.7015 36.418C78.2434 37.2326 79.5842 38.381 80.6259 39.7795C81.6676 41.178 82.3842 42.7914 82.7233 44.502C83.0623 46.2126 83.0154 47.9773 82.5859 49.6674C82.1564 51.3576 81.3551 52.9306 80.2405 54.2717C79.1259 55.6129 77.7261 56.6884 76.143 57.4199C74.56 58.1514 72.8337 58.5204 71.0899 58.5Z" fill="#4469E4"/>
<path fill-rule="evenodd" clip-rule="evenodd" d="M28.7101 73.44C28.6918 73.6816 28.7237 73.9244 28.8036 74.1531C28.8835 74.3818 29.0098 74.5916 29.1746 74.7693C29.3393 74.9469 29.539 75.0887 29.761 75.1856C29.9831 75.2825 30.2228 75.3326 30.4651 75.3326C30.7074 75.3326 30.9471 75.2825 31.1691 75.1856C31.3912 75.0887 31.5909 74.9469 31.7556 74.7693C31.9204 74.5916 32.0467 74.3818 32.1266 74.1531C32.2065 73.9244 32.2383 73.6816 32.2201 73.44C32.2201 72.44 30.4701 69.92 30.4701 69.92C30.4701 69.92 28.7101 72.47 28.7101 73.44Z" fill="#4469E4"/>
<path fill-rule="evenodd" clip-rule="evenodd" d="M38.8601 75.34C38.8601 75.8068 39.0455 76.2545 39.3756 76.5845C39.7057 76.9146 40.1533 77.1 40.6201 77.1C41.0869 77.1 41.5346 76.9146 41.8646 76.5845C42.1947 76.2545 42.3801 75.8068 42.3801 75.34C42.3801 74.34 40.6201 71.83 40.6201 71.83C40.6201 71.83 38.8601 74.37 38.8601 75.34Z" fill="#4469E4"/>
<path fill-rule="evenodd" clip-rule="evenodd" d="M49 77.25C49 77.7168 49.1854 78.1645 49.5155 78.4945C49.8456 78.8246 50.2932 79.01 50.76 79.01C51.2268 79.01 51.6744 78.8246 52.0045 78.4945C52.3346 78.1645 52.52 77.7168 52.52 77.25C52.52 76.25 50.76 73.73 50.76 73.73C50.76 73.73 49 76.27 49 77.25Z" fill="#4469E4"/>
<path fill-rule="evenodd" clip-rule="evenodd" d="M59.18 75.34C59.1618 75.5816 59.1936 75.8244 59.2736 76.0531C59.3535 76.2819 59.4798 76.4916 59.6445 76.6693C59.8093 76.847 60.0089 76.9887 60.231 77.0856C60.4531 77.1826 60.6928 77.2326 60.9351 77.2326C61.1773 77.2326 61.417 77.1826 61.6391 77.0856C61.8612 76.9887 62.0608 76.847 62.2256 76.6693C62.3903 76.4916 62.5166 76.2819 62.5965 76.0531C62.6765 75.8244 62.7083 75.5816 62.69 75.34C62.69 74.34 60.94 71.83 60.94 71.83C60.94 71.83 59.18 74.37 59.18 75.34Z" fill="#4469E4"/>
<path fill-rule="evenodd" clip-rule="evenodd" d="M69.3301 73.44C69.3301 73.6711 69.3756 73.9 69.4641 74.1135C69.5525 74.327 69.6821 74.5211 69.8456 74.6845C70.009 74.8479 70.203 74.9776 70.4165 75.066C70.6301 75.1545 70.8589 75.2 71.0901 75.2C71.3212 75.2 71.5501 75.1545 71.7636 75.066C71.9771 74.9776 72.1712 74.8479 72.3346 74.6845C72.498 74.5211 72.6277 74.327 72.7161 74.1135C72.8046 73.9 72.8501 73.6711 72.8501 73.44C72.8501 72.44 71.0901 69.92 71.0901 69.92C71.0901 69.92 69.3301 72.47 69.3301 73.44Z" fill="#4469E4"/>
</svg>
