<svg width="100" height="100" viewBox="0 0 100 100" fill="none" xmlns="http://www.w3.org/2000/svg">
<rect width="100" height="100" fill="white"/>
<path fill-rule="evenodd" clip-rule="evenodd" d="M71.09 22.17C70.3172 22.1678 69.5452 22.2213 68.78 22.33C66.622 19.3732 63.7962 16.9677 60.5328 15.3094C57.2694 13.6511 53.6606 12.7867 50 12.7867C46.3394 12.7867 42.7306 13.6511 39.4672 15.3094C36.2038 16.9677 33.378 19.3732 31.22 22.33C28.7403 21.9734 26.2119 22.1892 23.8285 22.961C21.4451 23.7327 19.2701 25.0399 17.4701 26.7824C15.6702 28.5249 14.293 30.6563 13.4443 33.0134C12.5956 35.3704 12.2978 37.8905 12.5737 40.3805C12.8497 42.8705 13.6921 45.2642 15.0364 47.3782C16.3806 49.4922 18.191 51.2704 20.3289 52.5764C22.4667 53.8825 24.8752 54.6817 27.3697 54.9129C29.8642 55.144 32.3786 54.801 34.72 53.91C38.9447 57.6219 44.3762 59.6691 50 59.6691C55.6238 59.6691 61.0553 57.6219 65.28 53.91C67.5277 54.7599 69.9347 55.1055 72.3306 54.9223C74.7266 54.7391 77.0531 54.0316 79.1454 52.8499C81.2378 51.6681 83.0449 50.0411 84.4389 48.0837C85.8328 46.1264 86.7797 43.8867 87.2123 41.5229C87.645 39.1592 87.553 36.7293 86.9427 34.4051C86.3325 32.0809 85.2189 29.9192 83.6808 28.0729C82.1428 26.2267 80.2178 24.741 78.042 23.7209C75.8663 22.7009 73.493 22.1714 71.09 22.17ZM71.09 50.29C68.6795 50.2888 66.3285 49.5413 64.36 48.15C62.6234 50.2842 60.433 52.0046 57.9482 53.1861C55.4634 54.3677 52.7465 54.9808 49.995 54.9808C47.2435 54.9808 44.5266 54.3677 42.0418 53.1861C39.557 52.0046 37.3666 50.2842 35.63 48.15C33.9662 49.3209 32.026 50.0381 30.0007 50.2309C27.9754 50.4237 25.9347 50.0855 24.0799 49.2497C22.225 48.4138 20.6199 47.1091 19.4227 45.4641C18.2256 43.8192 17.4776 41.8907 17.2526 39.8686C17.0276 37.8466 17.3333 35.8009 18.1396 33.9329C18.9459 32.065 20.2249 30.4394 21.8506 29.2162C23.4764 27.9931 25.3928 27.2146 27.411 26.9575C29.4292 26.7004 31.4795 26.9735 33.36 27.75C34.9077 24.6642 37.2832 22.0697 40.2209 20.2565C43.1587 18.4434 46.5428 17.4832 49.995 17.4832C53.4472 17.4832 56.8314 18.4434 59.7691 20.2565C62.7068 22.0697 65.0823 24.6642 66.63 27.75C68.23 27.092 69.9558 26.7968 71.6835 26.8854C73.4112 26.974 75.0978 27.4443 76.622 28.2625C78.1463 29.0807 79.4703 30.2265 80.4989 31.6174C81.5275 33.0084 82.2352 34.6099 82.571 36.307C82.9068 38.0041 82.8624 39.7544 82.441 41.4323C82.0196 43.1102 81.2317 44.6738 80.1339 46.0108C79.0361 47.3479 77.6557 48.425 76.092 49.1649C74.5282 49.9048 72.82 50.2891 71.09 50.29Z" fill="#4469E4"/>
<path fill-rule="evenodd" clip-rule="evenodd" d="M45.3101 82.52C45.3101 83.7639 45.8042 84.9568 46.6837 85.8363C47.5633 86.7159 48.7562 87.21 50.0001 87.21C51.2439 87.21 52.4368 86.7159 53.3164 85.8363C54.1959 84.9568 54.6901 83.7639 54.6901 82.52C54.6901 79.93 50.0001 73.14 50.0001 73.14C50.0001 73.14 45.3101 79.93 45.3101 82.52Z" fill="#4469E4"/>
<path fill-rule="evenodd" clip-rule="evenodd" d="M16.9199 69.63C16.9199 70.8739 17.414 72.0668 18.2936 72.9463C19.1731 73.8259 20.3661 74.32 21.6099 74.32C22.8538 74.32 24.0467 73.8259 24.9263 72.9463C25.8058 72.0668 26.2999 70.8739 26.2999 69.63C26.2999 67.04 21.6099 60.25 21.6099 60.25C21.6099 60.25 16.9199 67 16.9199 69.63Z" fill="#4469E4"/>
<path fill-rule="evenodd" clip-rule="evenodd" d="M73.7001 69.63C73.6708 70.2634 73.7703 70.8963 73.9925 71.4902C74.2148 72.0841 74.5551 72.6268 74.9931 73.0854C75.431 73.544 75.9574 73.9091 76.5404 74.1585C77.1234 74.4079 77.7509 74.5365 78.3851 74.5365C79.0192 74.5365 79.6467 74.4079 80.2298 74.1585C80.8128 73.9091 81.3392 73.544 81.7771 73.0854C82.215 72.6268 82.5554 72.0841 82.7776 71.4902C82.9999 70.8963 83.0993 70.2634 83.0701 69.63C83.0701 67.04 78.3901 60.25 78.3901 60.25C78.3901 60.25 73.7001 67 73.7001 69.63Z" fill="#4469E4"/>
<path d="M40.9999 74C40.9999 74.2652 40.8946 74.5196 40.707 74.7071C40.5195 74.8946 40.2651 75 39.9999 75H31.6799C31.4147 75 31.1604 74.8946 30.9728 74.7071C30.7853 74.5196 30.6799 74.2652 30.6799 74C30.6799 73.7348 30.7853 73.4804 30.9728 73.2929C31.1604 73.1054 31.4147 73 31.6799 73H39.9299C40.1951 73 40.4495 73.1054 40.637 73.2929C40.8246 73.4804 40.9299 73.7348 40.9299 74H40.9999Z" fill="#4469E4"/>
<path d="M38.38 78.42C38.2654 78.4877 38.1385 78.5318 38.0067 78.5499C37.8749 78.5679 37.7408 78.5594 37.6122 78.525C37.4837 78.4905 37.3634 78.4308 37.2582 78.3492C37.1531 78.2676 37.0653 78.1659 37 78.05L32.88 70.91C32.8078 70.7937 32.7603 70.6638 32.7404 70.5283C32.7205 70.3929 32.7286 70.2548 32.7642 70.1226C32.7998 69.9904 32.8622 69.8669 32.9475 69.7598C33.0328 69.6527 33.1391 69.5643 33.26 69.5C33.3757 69.4274 33.5051 69.3794 33.6401 69.3587C33.7751 69.3381 33.9129 69.3453 34.045 69.38C34.1771 69.4146 34.3008 69.476 34.4082 69.5603C34.5157 69.6446 34.6048 69.75 34.67 69.87L38.76 77C38.8305 77.1159 38.8767 77.245 38.8957 77.3794C38.9148 77.5138 38.9063 77.6506 38.8707 77.7816C38.8352 77.9126 38.7733 78.035 38.689 78.1413C38.6046 78.2476 38.4995 78.3356 38.38 78.4V78.42Z" fill="#4469E4"/>
<path d="M38.38 69.5C38.5008 69.5643 38.6072 69.6527 38.6925 69.7598C38.7778 69.8669 38.8402 69.9904 38.8758 70.1226C38.9114 70.2548 38.9195 70.3929 38.8996 70.5283C38.8797 70.6638 38.8322 70.7937 38.76 70.91L34.64 78.05C34.5748 78.17 34.4857 78.2754 34.3782 78.3597C34.2707 78.444 34.1471 78.5053 34.015 78.54C33.8829 78.5747 33.7451 78.5819 33.6101 78.5613C33.4751 78.5406 33.3457 78.4926 33.23 78.42C33.1105 78.3556 33.0054 78.2676 32.921 78.1613C32.8367 78.055 32.7748 77.9326 32.7393 77.8016C32.7037 77.6706 32.6952 77.5338 32.7142 77.3994C32.7333 77.265 32.7795 77.1359 32.85 77.02L37 69.87C37.0652 69.75 37.1542 69.6446 37.2617 69.5603C37.3692 69.476 37.4928 69.4146 37.6249 69.38C37.7571 69.3453 37.8949 69.3381 38.0299 69.3587C38.1649 69.3794 38.2943 69.4274 38.41 69.5H38.38Z" fill="#4469E4"/>
<path d="M69.3501 74C69.3501 74.2652 69.2447 74.5196 69.0572 74.7071C68.8696 74.8946 68.6153 75 68.3501 75H60.0701C59.8049 75 59.5505 74.8946 59.363 74.7071C59.1754 74.5196 59.0701 74.2652 59.0701 74C59.0701 73.7348 59.1754 73.4804 59.363 73.2929C59.5505 73.1054 59.8049 73 60.0701 73H68.3201C68.5853 73 68.8396 73.1054 69.0272 73.2929C69.2147 73.4804 69.3201 73.7348 69.3201 74H69.3501Z" fill="#4469E4"/>
<path d="M66.7701 78.42C66.6544 78.4926 66.525 78.5406 66.39 78.5613C66.255 78.5819 66.1172 78.5747 65.9851 78.54C65.8529 78.5053 65.7293 78.444 65.6218 78.3597C65.5144 78.2754 65.4253 78.17 65.3601 78.05L61.2401 70.91C61.1679 70.7937 61.1204 70.6638 61.1005 70.5283C61.0806 70.3929 61.0887 70.2548 61.1243 70.1226C61.1599 69.9904 61.2223 69.8669 61.3076 69.7598C61.3929 69.6527 61.4992 69.5643 61.6201 69.5C61.7354 69.4291 61.864 69.3823 61.9979 69.3626C62.1319 69.3428 62.2685 69.3505 62.3994 69.3851C62.5303 69.4197 62.6528 69.4805 62.7595 69.5638C62.8662 69.6472 62.9549 69.7514 63.0201 69.87L67.1501 77C67.2206 77.116 67.2668 77.245 67.2859 77.3794C67.3049 77.5138 67.2964 77.6506 67.2608 77.7816C67.2253 77.9126 67.1634 78.035 67.0791 78.1413C66.9947 78.2476 66.8896 78.3356 66.7701 78.4V78.42Z" fill="#4469E4"/>
<path d="M66.7701 69.5C66.891 69.5643 66.9973 69.6527 67.0826 69.7598C67.1679 69.8669 67.2303 69.9904 67.2659 70.1226C67.3015 70.2548 67.3096 70.3929 67.2897 70.5283C67.2698 70.6638 67.2223 70.7937 67.1501 70.91L63.0001 78.05C62.9349 78.1686 62.8462 78.2728 62.7395 78.3562C62.6328 78.4395 62.5103 78.5003 62.3794 78.5349C62.2485 78.5695 62.1119 78.5772 61.9779 78.5574C61.844 78.5377 61.7154 78.4909 61.6001 78.42C61.4806 78.3556 61.3755 78.2676 61.2911 78.1613C61.2068 78.055 61.1449 77.9326 61.1094 77.8016C61.0738 77.6706 61.0653 77.5338 61.0843 77.3994C61.1034 77.265 61.1496 77.1359 61.2201 77.02L65.3401 69.87C65.4053 69.75 65.4944 69.6446 65.6019 69.5603C65.7093 69.476 65.8329 69.4146 65.9651 69.38C66.0972 69.3453 66.235 69.3381 66.37 69.3587C66.505 69.3794 66.6344 69.4274 66.7501 69.5H66.7701Z" fill="#4469E4"/>
</svg>
