<svg width="100" height="100" viewBox="0 0 100 100" fill="none" xmlns="http://www.w3.org/2000/svg">
<rect width="100" height="100" fill="white"/>
<path fill-rule="evenodd" clip-rule="evenodd" d="M23.4499 35H76.5499C77.2393 34.8725 77.8622 34.5077 78.3106 33.9688C78.759 33.4299 79.0045 32.751 79.0045 32.05C79.0045 31.3489 78.759 30.67 78.3106 30.1312C77.8622 29.5923 77.2393 29.2274 76.5499 29.1H23.4499C22.7606 29.2274 22.1376 29.5923 21.6892 30.1312C21.2409 30.67 20.9954 31.3489 20.9954 32.05C20.9954 32.751 21.2409 33.4299 21.6892 33.9688C22.1376 34.5077 22.7606 34.8725 23.4499 35Z" fill="#4469E4"/>
<path fill-rule="evenodd" clip-rule="evenodd" d="M76.5499 41.06H23.4499C22.7606 41.1875 22.1376 41.5523 21.6892 42.0912C21.2409 42.6301 20.9954 43.309 20.9954 44.01C20.9954 44.711 21.2409 45.3899 21.6892 45.9288C22.1376 46.4677 22.7606 46.8325 23.4499 46.96H76.5499C77.2393 46.8325 77.8622 46.4677 78.3106 45.9288C78.759 45.3899 79.0045 44.711 79.0045 44.01C79.0045 43.309 78.759 42.6301 78.3106 42.0912C77.8622 41.5523 77.2393 41.1875 76.5499 41.06Z" fill="#4469E4"/>
<path fill-rule="evenodd" clip-rule="evenodd" d="M76.5499 53H23.4499C22.7606 53.1275 22.1376 53.4923 21.6892 54.0312C21.2409 54.5701 20.9954 55.249 20.9954 55.95C20.9954 56.651 21.2409 57.3299 21.6892 57.8688C22.1376 58.4077 22.7606 58.7725 23.4499 58.9H76.5499C77.2393 58.7725 77.8622 58.4077 78.3106 57.8688C78.759 57.3299 79.0045 56.651 79.0045 55.95C79.0045 55.249 78.759 54.5701 78.3106 54.0312C77.8622 53.4923 77.2393 53.1275 76.5499 53Z" fill="#4469E4"/>
<path fill-rule="evenodd" clip-rule="evenodd" d="M76.5499 65H23.4499C22.7606 65.1275 22.1376 65.4923 21.6892 66.0312C21.2409 66.5701 20.9954 67.249 20.9954 67.95C20.9954 68.651 21.2409 69.3299 21.6892 69.8688C22.1376 70.4077 22.7606 70.7725 23.4499 70.9H76.5499C77.2393 70.7725 77.8622 70.4077 78.3106 69.8688C78.759 69.3299 79.0045 68.651 79.0045 67.95C79.0045 67.249 78.759 66.5701 78.3106 66.0312C77.8622 65.4923 77.2393 65.1275 76.5499 65Z" fill="#4469E4"/>
</svg>
