<svg width="100" height="100" viewBox="0 0 100 100" fill="none" xmlns="http://www.w3.org/2000/svg">
<rect width="100" height="100" fill="white"/>
<path fill-rule="evenodd" clip-rule="evenodd" d="M23.4499 40.61H76.5499C77.2393 40.4826 77.8622 40.1177 78.3106 39.5788C78.759 39.04 79.0045 38.3611 79.0045 37.66C79.0045 36.959 78.759 36.2801 78.3106 35.7412C77.8622 35.2023 77.2393 34.8375 76.5499 34.71H23.4499C22.7606 34.8375 22.1376 35.2023 21.6892 35.7412C21.2409 36.2801 20.9954 36.959 20.9954 37.66C20.9954 38.3611 21.2409 39.04 21.6892 39.5788C22.1376 40.1177 22.7606 40.4826 23.4499 40.61Z" fill="#4469E4"/>
<path fill-rule="evenodd" clip-rule="evenodd" d="M76.5499 46.51H23.4499C22.7606 46.6375 22.1376 47.0023 21.6892 47.5412C21.2409 48.0801 20.9954 48.759 20.9954 49.46C20.9954 50.161 21.2409 50.8399 21.6892 51.3788C22.1376 51.9177 22.7606 52.2826 23.4499 52.41H76.5499C77.2393 52.2826 77.8622 51.9177 78.3106 51.3788C78.759 50.8399 79.0045 50.161 79.0045 49.46C79.0045 48.759 78.759 48.0801 78.3106 47.5412C77.8622 47.0023 77.2393 46.6375 76.5499 46.51Z" fill="#4469E4"/>
<path fill-rule="evenodd" clip-rule="evenodd" d="M76.5499 58.3H23.4499C22.7606 58.4274 22.1376 58.7923 21.6892 59.3312C21.2409 59.8701 20.9954 60.549 20.9954 61.25C20.9954 61.951 21.2409 62.6299 21.6892 63.1688C22.1376 63.7077 22.7606 64.0725 23.4499 64.2H76.5499C77.2393 64.0725 77.8622 63.7077 78.3106 63.1688C78.759 62.6299 79.0045 61.951 79.0045 61.25C79.0045 60.549 78.759 59.8701 78.3106 59.3312C77.8622 58.7923 77.2393 58.4274 76.5499 58.3Z" fill="#4469E4"/>
</svg>
