<svg width="100" height="100" viewBox="0 0 100 100" fill="none" xmlns="http://www.w3.org/2000/svg">
<rect width="100" height="100" fill="white"/>
<path fill-rule="evenodd" clip-rule="evenodd" d="M71.09 24.47C70.3172 24.4686 69.5453 24.522 68.78 24.63C66.622 21.6732 63.7963 19.2677 60.5329 17.6094C57.2695 15.9511 53.6606 15.0867 50 15.0867C46.3395 15.0867 42.7306 15.9511 39.4672 17.6094C36.2038 19.2677 33.3781 21.6732 31.22 24.63C30.4549 24.5213 29.6829 24.4678 28.91 24.47C26.7216 24.416 24.5445 24.8003 22.5069 25.6005C20.4693 26.4006 18.6124 27.6004 17.0455 29.1291C15.4786 30.6577 14.2333 32.4845 13.3832 34.5017C12.533 36.519 12.095 38.6859 12.095 40.875C12.095 43.0641 12.533 45.2311 13.3832 47.2483C14.2333 49.2655 15.4786 51.0923 17.0455 52.621C18.6124 54.1497 20.4693 55.3494 22.5069 56.1495C24.5445 56.9497 26.7216 57.334 28.91 57.28C30.8967 57.2807 32.8663 56.9145 34.72 56.2C38.9419 59.918 44.3745 61.969 50 61.969C55.6256 61.969 61.0582 59.918 65.28 56.2C67.134 56.9136 69.1035 57.2797 71.09 57.28C73.2784 57.334 75.4556 56.9497 77.4932 56.1495C79.5308 55.3494 81.3877 54.1497 82.9546 52.621C84.5215 51.0923 85.7667 49.2655 86.6169 47.2483C87.4671 45.2311 87.9051 43.0641 87.9051 40.875C87.9051 38.6859 87.4671 36.519 86.6169 34.5017C85.7667 32.4845 84.5215 30.6577 82.9546 29.1291C81.3877 27.6004 79.5308 26.4006 77.4932 25.6005C75.4556 24.8003 73.2784 24.416 71.09 24.47ZM71.09 52.59C68.6828 52.5874 66.3354 51.8399 64.37 50.45C62.6334 52.5842 60.4431 54.3046 57.9582 55.4862C55.4734 56.6678 52.7565 57.2808 50.005 57.2808C47.2536 57.2808 44.5367 56.6678 42.0518 55.4862C39.567 54.3046 37.3767 52.5842 35.64 50.45C34.1339 51.5054 32.4004 52.1911 30.5799 52.4518C28.7594 52.7125 26.9031 52.5407 25.1614 51.9503C23.4196 51.36 21.8414 50.3677 20.5546 49.0539C19.2677 47.7401 18.3084 46.1416 17.7543 44.388C17.2002 42.6344 17.067 40.7749 17.3653 38.9602C17.6637 37.1455 18.3853 35.4266 19.4717 33.9427C20.558 32.4588 21.9786 31.2517 23.6184 30.419C25.2581 29.5863 27.071 29.1516 28.91 29.15C30.4403 29.1554 31.9549 29.4577 33.37 30.04C34.9187 26.9568 37.294 24.3648 40.2307 22.5536C43.1674 20.7424 46.5497 19.7832 50 19.7832C53.4503 19.7832 56.8327 20.7424 59.7694 22.5536C62.706 24.3648 65.0813 26.9568 66.63 30.04C68.0454 29.4587 69.5599 29.1564 71.09 29.15C74.1984 29.15 77.1794 30.3848 79.3773 32.5827C81.5752 34.7806 82.81 37.7617 82.81 40.87C82.81 43.9783 81.5752 46.9594 79.3773 49.1573C77.1794 51.3552 74.1984 52.59 71.09 52.59Z" fill="#4469E4"/>
<path d="M19.53 72.51C19.53 72.9768 19.3446 73.4244 19.0145 73.7545C18.6844 74.0846 18.2368 74.27 17.77 74.27C17.5377 74.2727 17.3071 74.229 17.0918 74.1416C16.8765 74.0543 16.6808 73.9249 16.516 73.7611C16.3513 73.5972 16.2208 73.4022 16.1322 73.1874C16.0436 72.9726 15.9986 72.7423 16 72.51V60.8C15.9932 60.5643 16.0342 60.3297 16.1204 60.1102C16.2065 59.8908 16.3362 59.691 16.5015 59.5229C16.6668 59.3548 16.8644 59.2218 17.0824 59.1319C17.3003 59.0421 17.5342 58.9972 17.77 59C18.0015 58.9987 18.2309 59.0433 18.4451 59.1313C18.6592 59.2193 18.8538 59.3488 19.0175 59.5125C19.1811 59.6762 19.3107 59.8708 19.3987 60.0849C19.4867 60.299 19.5313 60.5285 19.53 60.76V72.51Z" fill="#4469E4"/>
<path d="M84.9999 72.51C84.9999 72.9768 84.8145 73.4244 84.4844 73.7545C84.1544 74.0846 83.7067 74.27 83.2399 74.27C82.7732 74.27 82.3255 74.0846 81.9954 73.7545C81.6654 73.4244 81.4799 72.9768 81.4799 72.51V60.8C81.4746 60.5647 81.5165 60.3307 81.6032 60.1119C81.6898 59.893 81.8195 59.6938 81.9846 59.526C82.1496 59.3581 82.3466 59.2251 82.564 59.1348C82.7813 59.0444 83.0146 58.9986 83.2499 59C83.4836 59.0013 83.7147 59.0491 83.9297 59.1406C84.1448 59.2321 84.3394 59.3656 84.5023 59.5331C84.6652 59.7007 84.7931 59.899 84.8786 60.1165C84.964 60.334 85.0053 60.5664 84.9999 60.8V72.51Z" fill="#4469E4"/>
<path d="M30.4499 77.2C30.4553 77.4345 30.4137 77.6676 30.3276 77.8858C30.2416 78.104 30.1128 78.3028 29.9488 78.4705C29.7848 78.6381 29.589 78.7714 29.3728 78.8623C29.1566 78.9533 28.9245 79.0001 28.6899 79C28.2232 79 27.7755 78.8146 27.4454 78.4845C27.1154 78.1545 26.9299 77.7068 26.9299 77.24V65.48C26.9299 65.2494 26.9755 65.021 27.0641 64.808C27.1527 64.595 27.2825 64.4017 27.446 64.239C27.6096 64.0764 27.8037 63.9477 28.0172 63.8603C28.2306 63.773 28.4593 63.7287 28.6899 63.73C28.9206 63.7287 29.1492 63.773 29.3627 63.8603C29.5762 63.9477 29.7703 64.0764 29.9338 64.239C30.0974 64.4017 30.2272 64.595 30.3158 64.808C30.4043 65.021 30.4499 65.2494 30.4499 65.48V77.2Z" fill="#4469E4"/>
<path d="M74.1001 77.2C74.1054 77.4345 74.0638 77.6676 73.9778 77.8858C73.8917 78.104 73.7629 78.3028 73.5989 78.4705C73.435 78.6381 73.2391 78.7714 73.023 78.8623C72.8068 78.9533 72.5746 79.0001 72.3401 79C71.8733 79 71.4256 78.8146 71.0956 78.4845C70.7655 78.1545 70.5801 77.7068 70.5801 77.24V65.48C70.5801 65.2494 70.6257 65.021 70.7142 64.808C70.8028 64.595 70.9326 64.4017 71.0962 64.239C71.2597 64.0764 71.4538 63.9477 71.6673 63.8603C71.8808 63.773 72.1094 63.7287 72.3401 63.73C72.5707 63.7287 72.7994 63.773 73.0128 63.8603C73.2263 63.9477 73.4204 64.0764 73.584 64.239C73.7475 64.4017 73.8773 64.595 73.9659 64.808C74.0545 65.021 74.1001 65.2494 74.1001 65.48V77.2Z" fill="#4469E4"/>
<path d="M41.3601 80.13C41.3601 80.5968 41.1747 81.0444 40.8446 81.3745C40.5145 81.7046 40.0669 81.89 39.6001 81.89C39.1333 81.89 38.6856 81.7046 38.3556 81.3745C38.0255 81.0444 37.8401 80.5968 37.8401 80.13V68.41C37.8401 67.9432 38.0255 67.4955 38.3556 67.1655C38.6856 66.8354 39.1333 66.65 39.6001 66.65C40.0669 66.65 40.5145 66.8354 40.8446 67.1655C41.1747 67.4955 41.3601 67.9432 41.3601 68.41V80.13Z" fill="#4469E4"/>
<path d="M63.1799 80.13C63.1812 80.3606 63.137 80.5893 63.0496 80.8028C62.9622 81.0162 62.8335 81.2103 62.6709 81.3739C62.5083 81.5375 62.3149 81.6673 62.1019 81.7558C61.889 81.8444 61.6606 81.89 61.4299 81.89C60.9631 81.89 60.5155 81.7046 60.1854 81.3745C59.8554 81.0444 59.6699 80.5968 59.6699 80.13V68.41C59.6699 67.9432 59.8554 67.4955 60.1854 67.1655C60.5155 66.8354 60.9631 66.65 61.4299 66.65C61.6606 66.65 61.889 66.6956 62.1019 66.7842C62.3149 66.8727 62.5083 67.0025 62.6709 67.1661C62.8335 67.3296 62.9622 67.5238 63.0496 67.7372C63.137 67.9507 63.1812 68.1793 63.1799 68.41V80.13Z" fill="#4469E4"/>
<path d="M52.27 83.15C52.27 83.615 52.086 84.0612 51.7581 84.391C51.4302 84.7207 50.9851 84.9073 50.52 84.91C50.0532 84.91 49.6056 84.7246 49.2755 84.3945C48.9454 84.0644 48.76 83.6168 48.76 83.15V71.43C48.76 70.9632 48.9454 70.5155 49.2755 70.1855C49.6056 69.8554 50.0532 69.67 50.52 69.67C50.9851 69.6726 51.4302 69.8592 51.7581 70.189C52.086 70.5188 52.27 70.9649 52.27 71.43V83.15Z" fill="#4469E4"/>
</svg>
