<svg width="100" height="100" viewBox="0 0 100 100" fill="none" xmlns="http://www.w3.org/2000/svg">
<rect width="100" height="100" fill="white"/>
<path d="M66.74 35C59.62 35 53.41 38 50 42.41C46.59 37.92 40.38 35 33.26 35C22.48 35 13.74 41.81 13.74 50.21C13.74 58.61 22.48 65.41 33.26 65.41C40.38 65.41 46.59 62.41 50 58C53.41 62.44 59.62 65.41 66.74 65.41C77.52 65.41 86.26 58.6 86.26 50.21C86.26 41.82 77.52 35 66.74 35ZM33.26 59.48C25.64 59.48 19.46 55.31 19.46 50.16C19.46 45.01 25.64 40.83 33.26 40.83C40.88 40.83 47.06 45.01 47.06 50.16C47.06 55.31 40.89 59.48 33.26 59.48ZM66.74 59.48C59.11 59.48 52.93 55.31 52.93 50.16C52.93 45.01 59.11 40.83 66.74 40.83C74.37 40.83 80.54 45.01 80.54 50.16C80.54 55.31 74.36 59.48 66.74 59.48Z" fill="#6D8ACA"/>
<path d="M27.6601 29.22C29.9024 29.22 31.7201 27.4023 31.7201 25.16C31.7201 22.9177 29.9024 21.1 27.6601 21.1C25.4178 21.1 23.6001 22.9177 23.6001 25.16C23.6001 27.4023 25.4178 29.22 27.6601 29.22Z" fill="#6D8ACA"/>
<path d="M72.34 29.22C74.5823 29.22 76.4 27.4023 76.4 25.16C76.4 22.9177 74.5823 21.1 72.34 21.1C70.0978 21.1 68.28 22.9177 68.28 25.16C68.28 27.4023 70.0978 29.22 72.34 29.22Z" fill="#6D8ACA"/>
<path d="M27.6601 78.9C29.9024 78.9 31.7201 77.0823 31.7201 74.84C31.7201 72.5978 29.9024 70.78 27.6601 70.78C25.4178 70.78 23.6001 72.5978 23.6001 74.84C23.6001 77.0823 25.4178 78.9 27.6601 78.9Z" fill="#6D8ACA"/>
<path d="M72.34 78.9C74.5823 78.9 76.4 77.0823 76.4 74.84C76.4 72.5978 74.5823 70.78 72.34 70.78C70.0978 70.78 68.28 72.5978 68.28 74.84C68.28 77.0823 70.0978 78.9 72.34 78.9Z" fill="#6D8ACA"/>
</svg>
