<svg width="100" height="100" viewBox="0 0 100 100" fill="none" xmlns="http://www.w3.org/2000/svg">
<rect width="100" height="100" fill="white"/>
<path d="M66.74 34.79C59.62 34.79 53.41 37.79 50 42.2C46.59 37.77 40.38 34.79 33.26 34.79C22.48 34.79 13.74 41.6 13.74 50C13.74 58.4 22.48 65.21 33.26 65.21C40.38 65.21 46.59 62.21 50 57.8C53.41 62.23 59.62 65.21 66.74 65.21C77.52 65.21 86.26 58.4 86.26 50C86.26 41.6 77.52 34.79 66.74 34.79ZM33.26 59.32C25.64 59.32 19.46 55.15 19.46 50C19.46 44.85 25.64 40.67 33.26 40.67C40.88 40.67 47.06 44.85 47.06 50C47.06 55.15 40.89 59.32 33.26 59.32ZM66.74 59.32C59.11 59.32 52.93 55.15 52.93 50C52.93 44.85 59.11 40.67 66.74 40.67C74.37 40.67 80.54 44.85 80.54 50C80.54 55.15 74.36 59.32 66.74 59.32Z" fill="#6D8ACA"/>
</svg>
