<svg width="100" height="100" viewBox="0 0 100 100" fill="none" xmlns="http://www.w3.org/2000/svg">
<rect width="100" height="100" fill="white"/>
<path d="M50.0001 29.3679C53.6607 29.3679 57.2695 30.2322 60.5329 31.8905C63.7963 33.5489 66.622 35.9543 68.7801 38.9111C69.5451 38.7998 70.317 38.743 71.0901 38.7411C72.8784 38.7411 74.6366 39.033 76.301 39.5905C77.0105 39.0907 77.6821 38.5391 78.3102 37.94C80.2729 35.9635 81.7663 33.5713 82.6802 30.94C82.8329 30.5213 82.8628 30.0677 82.7664 29.6326C82.6701 29.1975 82.4515 28.7989 82.1364 28.4838C81.8213 28.1687 81.4227 27.9501 80.9876 27.8538C80.5525 27.7574 80.0989 27.7874 79.6802 27.94C77.1851 28.8277 74.4893 28.9894 71.906 28.4064C69.3226 27.8235 66.9576 26.5197 65.0855 24.6466C63.2134 22.7734 61.911 20.4076 61.3294 17.824C60.7479 15.2403 60.9112 12.5447 61.8002 10.05C61.9485 9.63158 61.9752 9.17969 61.8773 8.74668C61.7794 8.31367 61.5608 7.91725 61.2469 7.60334C60.933 7.28942 60.5366 7.07085 60.1035 6.97292C59.6705 6.875 59.2186 6.90173 58.8002 7.05002C54.3303 8.58484 50.6172 11.7722 48.423 15.958C46.2287 20.1438 45.7196 25.0107 47.0002 29.56L50.0001 29.3679Z" fill="#EAB359"/>
<path d="M71.09 38.7411C70.3169 38.743 69.545 38.7998 68.78 38.9111C66.622 35.9543 63.7962 33.5489 60.5328 31.8905C57.2694 30.2322 53.6606 29.3679 50 29.3679C46.3394 29.3679 42.7306 30.2322 39.4672 31.8905C36.2038 33.5489 33.378 35.9543 31.22 38.9111C30.455 38.7995 29.6831 38.7427 28.91 38.7411C24.5578 38.7411 20.3838 40.47 17.3064 43.5475C14.2289 46.625 12.5 50.7989 12.5 55.1511C12.5 59.5033 14.2289 63.6773 17.3064 66.7548C20.3838 69.8322 24.5578 71.5611 28.91 71.5611C30.8965 71.5609 32.8661 71.1948 34.72 70.4811C38.9447 74.1931 44.3762 76.2402 50 76.2402C55.6238 76.2402 61.0553 74.1931 65.28 70.4811C67.1337 71.1956 69.1034 71.5618 71.09 71.5611C75.4422 71.5611 79.6161 69.8322 82.6936 66.7548C85.7711 63.6773 87.5 59.5033 87.5 55.1511C87.5 50.7989 85.7711 46.625 82.6936 43.5475C79.6161 40.47 75.4422 38.7411 71.09 38.7411ZM71.09 66.8711C68.6813 66.8683 66.333 66.117 64.37 64.7211C62.6355 66.8585 60.4458 68.5819 57.9607 69.7657C55.4756 70.9494 52.7576 71.5637 50.005 71.5637C47.2524 71.5637 44.5344 70.9494 42.0493 69.7657C39.5642 68.5819 37.3745 66.8585 35.64 64.7211C34.1344 65.7795 32.4005 66.4681 30.5789 66.731C28.7574 66.9939 26.8996 66.8238 25.1561 66.2345C23.4126 65.6452 21.8326 64.6532 20.5442 63.339C19.2557 62.0248 18.2952 60.4255 17.7405 58.6707C17.1858 56.9158 17.0525 55.055 17.3514 53.239C17.6504 51.4231 18.3732 49.7031 19.4611 48.2188C20.5491 46.7344 21.9716 45.5273 23.6133 44.6955C25.255 43.8637 27.0696 43.4305 28.91 43.4311C30.4376 43.4306 31.9501 43.7331 33.36 44.3211C34.9103 41.2383 37.2867 38.647 40.2241 36.8362C43.1615 35.0255 46.5443 34.0666 49.995 34.0666C53.4457 34.0666 56.8285 35.0255 59.7659 36.8362C62.7033 38.647 65.0797 41.2383 66.63 44.3211C68.2319 43.6585 69.9609 43.3595 71.6923 43.4456C73.4237 43.5318 75.1145 44.001 76.6427 44.8194C78.171 45.6378 79.4986 46.785 80.53 48.1784C81.5614 49.5717 82.2708 51.1766 82.6071 52.8772C82.9435 54.5778 82.8984 56.3319 82.4751 58.013C82.0518 59.6941 81.2608 61.2603 80.1592 62.5988C79.0576 63.9374 77.6727 65.0149 76.1045 65.7536C74.5362 66.4924 72.8236 66.8741 71.09 66.8711Z" fill="#4469E4"/>
<path fill-rule="evenodd" clip-rule="evenodd" d="M30.77 88C30.77 89.3566 31.3089 90.6576 32.2682 91.6168C33.2274 92.5761 34.5284 93.115 35.885 93.115C37.2416 93.115 38.5426 92.5761 39.5019 91.6168C40.4611 90.6576 41 89.3566 41 88C41 85.18 35.89 77.8 35.89 77.8C35.89 77.8 30.77 85.15 30.77 88Z" fill="#4469E4"/>
<path d="M74.16 85.42C74.1521 85.8435 73.9776 86.2468 73.6744 86.5426C73.3712 86.8384 72.9636 87.0027 72.54 87H59.54C59.1304 86.9822 58.743 86.8089 58.4568 86.5153C58.1706 86.2216 58.0073 85.8299 58 85.42C58 84.9903 58.1707 84.5783 58.4745 84.2745C58.7783 83.9707 59.1903 83.8 59.62 83.8H72.62C72.8327 83.8 73.0434 83.8419 73.2399 83.9233C73.4365 84.0047 73.6151 84.124 73.7655 84.2745C73.9159 84.4249 74.0353 84.6035 74.1167 84.8C74.1981 84.9966 74.24 85.2072 74.24 85.42H74.16Z" fill="#4469E4"/>
<path d="M70.1101 92.44C69.7386 92.6541 69.2974 92.7123 68.8831 92.6017C68.4689 92.4911 68.1154 92.2208 67.9001 91.85L61.4101 80.62C61.1968 80.2473 61.1401 79.8052 61.2526 79.3908C61.3651 78.9764 61.6376 78.6236 62.0101 78.41C62.1937 78.3026 62.3967 78.2327 62.6075 78.2043C62.8183 78.1758 63.0326 78.1894 63.2381 78.2443C63.4435 78.2992 63.6361 78.3942 63.8047 78.5239C63.9732 78.6536 64.1144 78.8154 64.2201 79L70.7001 90.22C70.9147 90.593 70.9731 91.0357 70.8626 91.4516C70.752 91.8675 70.4815 92.2228 70.1101 92.44Z" fill="#4469E4"/>
<path d="M70.11 78.41C70.2946 78.5157 70.4564 78.6568 70.5861 78.8254C70.7158 78.9939 70.8108 79.1865 70.8657 79.392C70.9206 79.5975 70.9342 79.8118 70.9057 80.0226C70.8773 80.2334 70.8074 80.4364 70.7 80.62L64.22 91.85C64.0028 92.2188 63.6493 92.4874 63.2359 92.5977C62.8224 92.7081 62.3821 92.6515 62.01 92.44C61.6368 92.2244 61.3642 91.8699 61.2518 91.4538C61.1393 91.0378 61.1962 90.5942 61.41 90.22L67.9 79C68.0057 78.8154 68.1468 78.6536 68.3154 78.5239C68.4839 78.3942 68.6765 78.2992 68.882 78.2443C69.0875 78.1894 69.3018 78.1758 69.5126 78.2043C69.7234 78.2327 69.9264 78.3026 70.11 78.41Z" fill="#4469E4"/>
</svg>
