<svg width="100" height="100" viewBox="0 0 100 100" fill="none" xmlns="http://www.w3.org/2000/svg">
<rect width="100" height="100" fill="white"/>
<path fill-rule="evenodd" clip-rule="evenodd" d="M40.4201 37.85C41.7574 38.361 43.2422 38.3242 44.5526 37.7476C45.863 37.1711 46.8933 36.1012 47.4201 34.77C48.5201 31.97 46.3301 22.66 46.3301 22.66C46.3301 22.66 38.3901 28 37.3301 30.8C37.0697 31.4658 36.943 32.1763 36.9574 32.8911C36.9718 33.6058 37.1269 34.3107 37.4139 34.9655C37.7008 35.6202 38.1141 36.212 38.6299 36.7069C39.1457 37.2019 39.754 37.5903 40.4201 37.85Z" fill="#4469E4"/>
<path fill-rule="evenodd" clip-rule="evenodd" d="M54.84 51.72C55.94 48.92 53.75 39.6 53.75 39.6C53.75 39.6 45.81 44.94 44.75 47.74C44.2195 49.0833 44.2444 50.5823 44.8192 51.9073C45.394 53.2322 46.4716 54.2746 47.815 54.805C49.1583 55.3354 50.6573 55.3105 51.9822 54.7357C53.3072 54.1609 54.3495 53.0833 54.88 51.74L54.84 51.72Z" fill="#4469E4"/>
<path fill-rule="evenodd" clip-rule="evenodd" d="M38.1699 56.14C39.2699 53.34 37.0799 44 37.0799 44C37.0799 44 29.1499 49.34 28.0799 52.14C27.5495 53.482 27.5739 54.9797 28.1477 56.3037C28.7216 57.6278 29.7979 58.6696 31.1399 59.2C32.4819 59.7304 33.9796 59.706 35.3036 59.1322C36.6276 58.5583 37.6695 57.482 38.1999 56.14H38.1699Z" fill="#4469E4"/>
<path fill-rule="evenodd" clip-rule="evenodd" d="M36.4299 68.88C36.1672 69.5451 36.0382 70.2555 36.0501 70.9705C36.062 71.6855 36.2146 72.3912 36.4992 73.0473C36.7838 73.7033 37.1948 74.2969 37.7088 74.7941C38.2228 75.2913 38.8297 75.6823 39.4949 75.945C40.16 76.2076 40.8704 76.3367 41.5854 76.3248C42.3004 76.3129 43.0061 76.1603 43.6622 75.8757C44.3182 75.5911 44.9118 75.18 45.409 74.666C45.9062 74.152 46.2972 73.5451 46.5599 72.88C47.6599 70.08 45.4699 60.77 45.4699 60.77C45.4699 60.77 37.5299 66.08 36.4299 68.88Z" fill="#4469E4"/>
<path fill-rule="evenodd" clip-rule="evenodd" d="M53.6601 62.27C53.3975 62.9351 53.2684 63.6455 53.2803 64.3605C53.2922 65.0756 53.4448 65.7812 53.7294 66.4373C54.014 67.0933 54.4251 67.6869 54.9391 68.1841C55.4531 68.6813 56.06 69.0724 56.7251 69.335C57.3903 69.5976 58.1006 69.7267 58.8156 69.7148C59.5307 69.7029 60.2363 69.5503 60.8924 69.2657C61.5484 68.9811 62.142 68.5701 62.6392 68.0561C63.1364 67.5421 63.5275 66.9351 63.7901 66.27C64.8901 63.47 62.7001 54.16 62.7001 54.16C62.7001 54.16 54.7601 59.47 53.6601 62.27Z" fill="#4469E4"/>
<path fill-rule="evenodd" clip-rule="evenodd" d="M70.85 32.3C70.85 32.3 62.91 37.64 61.85 40.44C61.5874 41.1051 61.4583 41.8155 61.4702 42.5305C61.4821 43.2456 61.6347 43.9512 61.9193 44.6073C62.4941 45.9322 63.5717 46.9746 64.9151 47.505C66.2584 48.0354 67.7574 48.0105 69.0823 47.4357C70.4073 46.8609 71.4496 45.7833 71.9801 44.44C73.0001 41.61 70.85 32.3 70.85 32.3Z" fill="#4469E4"/>
</svg>
