<svg width="100" height="100" viewBox="0 0 100 100" fill="none" xmlns="http://www.w3.org/2000/svg">
<rect width="100" height="100" fill="white"/>
<path fill-rule="evenodd" clip-rule="evenodd" d="M71.09 27.79C70.317 27.7919 69.545 27.8487 68.78 27.96C66.622 25.0032 63.7963 22.5978 60.5329 20.9394C57.2695 19.2811 53.6606 18.4167 50 18.4167C46.3395 18.4167 42.7306 19.2811 39.4672 20.9394C36.2038 22.5978 33.3781 25.0032 31.22 27.96C30.4551 27.8484 29.6831 27.7915 28.91 27.79C26.7216 27.736 24.5445 28.1204 22.5069 28.9205C20.4693 29.7206 18.6124 30.9204 17.0455 32.4491C15.4786 33.9778 14.2333 35.8045 13.3832 37.8218C12.533 39.839 12.095 42.0059 12.095 44.195C12.095 46.3841 12.533 48.5511 13.3832 50.5683C14.2333 52.5856 15.4786 54.4123 17.0455 55.941C18.6124 57.4697 20.4693 58.6694 22.5069 59.4696C24.5445 60.2697 26.7216 60.6541 28.91 60.6C30.896 60.6032 32.8655 60.2405 34.72 59.53C36.5186 61.0687 38.542 62.3232 40.72 63.25L44.37 59.61C40.9655 58.524 37.9362 56.4999 35.63 53.77C33.9662 54.9409 32.0261 55.6581 30.0007 55.8509C27.9754 56.0438 25.9348 55.7056 24.0799 54.8697C22.225 54.0339 20.6199 52.7292 19.4228 51.0842C18.2256 49.4392 17.4777 47.5107 17.2527 45.4887C17.0277 43.4666 17.3334 41.4209 18.1396 39.553C18.9459 37.6851 20.2249 36.0594 21.8507 34.8363C23.4764 33.6131 25.3928 32.8346 27.411 32.5775C29.4292 32.3204 31.4795 32.5936 33.36 33.37C34.9103 30.2872 37.2868 27.6959 40.2242 25.8851C43.1616 24.0744 46.5444 23.1155 49.995 23.1155C53.4457 23.1155 56.8285 24.0744 59.7659 25.8851C62.7033 27.6959 65.0797 30.2872 66.63 33.37C68.5138 32.5841 70.57 32.3033 72.5956 32.5554C74.6211 32.8075 76.5457 33.5838 78.1794 34.8076C79.813 36.0314 81.099 37.6602 81.9103 39.5332C82.7216 41.4062 83.0301 43.4585 82.8054 45.4872C82.5806 47.5159 81.8304 49.4509 80.6288 51.1009C79.4272 52.7509 77.8158 54.0587 75.954 54.8953C74.0921 55.7318 72.0442 56.068 70.0126 55.8706C67.981 55.6733 66.0361 54.9492 64.37 53.77C62.8251 55.5941 60.953 57.1135 58.85 58.25L56.85 64.15C59.9389 63.2062 62.7989 61.6332 65.25 59.53C67.1043 60.2413 69.074 60.6041 71.06 60.6C73.2484 60.6541 75.4256 60.2697 77.4632 59.4696C79.5008 58.6694 81.3577 57.4697 82.9246 55.941C84.4915 54.4123 85.7367 52.5856 86.5869 50.5683C87.4371 48.5511 87.8751 46.3841 87.8751 44.195C87.8751 42.0059 87.4371 39.839 86.5869 37.8218C85.7367 35.8045 84.4915 33.9778 82.9246 32.4491C81.3577 30.9204 79.5008 29.7206 77.4632 28.9205C75.4256 28.1204 73.2484 27.736 71.06 27.79H71.09Z" fill="#4469E4"/>
<path d="M45.8001 80.66C45.6473 80.6791 45.4928 80.6791 45.3401 80.66C45.0976 80.5974 44.8701 80.4871 44.6709 80.3354C44.4717 80.1838 44.3048 79.9939 44.18 79.7768C44.0552 79.5598 43.9749 79.32 43.9441 79.0716C43.9132 78.8231 43.9322 78.571 44.0001 78.33L50.8001 51.07C50.9207 50.5886 51.2277 50.1749 51.6534 49.9198C52.0791 49.6648 52.5887 49.5893 53.0701 49.71C53.5514 49.8307 53.9652 50.1376 54.2202 50.5633C54.4753 50.989 54.5507 51.4986 54.4301 51.98L47.6201 79.24C47.5178 79.6453 47.2833 80.005 46.9537 80.2622C46.6241 80.5194 46.2181 80.6593 45.8001 80.66Z" fill="#4469E4"/>
<path d="M67.71 78.18C67.71 78.5725 67.5541 78.949 67.2766 79.2265C66.999 79.5041 66.6226 79.66 66.23 79.66H54.45C54.0619 79.6547 53.6916 79.4962 53.42 79.2189C53.1483 78.9416 52.9974 78.5682 53 78.18C53 77.7901 53.1549 77.4162 53.4306 77.1406C53.7063 76.8649 54.0802 76.71 54.47 76.71H66.23C66.4239 76.7087 66.6161 76.7457 66.7957 76.819C66.9752 76.8923 67.1384 77.0004 67.276 77.137C67.4135 77.2736 67.5227 77.4361 67.5972 77.6151C67.6717 77.7941 67.71 77.9861 67.71 78.18Z" fill="#4469E4"/>
<path d="M64 84.56C63.6599 84.7479 63.2595 84.7945 62.8853 84.6898C62.5111 84.585 62.1931 84.3372 62 84L56.11 73.8C55.917 73.4641 55.8644 73.0655 55.9636 72.691C56.0629 72.3165 56.306 71.9963 56.64 71.8C56.8067 71.7035 56.9907 71.6409 57.1816 71.6158C57.3725 71.5908 57.5665 71.6037 57.7524 71.6539C57.9383 71.7041 58.1124 71.7905 58.2648 71.9083C58.4171 72.026 58.5446 72.1728 58.64 72.34L64.53 82.54C64.7231 82.876 64.7757 83.2745 64.6765 83.6491C64.5772 84.0236 64.3341 84.3438 64 84.54V84.56Z" fill="#4469E4"/>
<path d="M64.0001 71.81C64.3342 72.0062 64.5773 72.3264 64.6765 72.701C64.7758 73.0755 64.7231 73.4741 64.5301 73.81L58.6701 84C58.4737 84.3338 58.1542 84.5773 57.7803 84.6782C57.4064 84.7792 57.0078 84.7296 56.6701 84.54C56.336 84.3437 56.0929 84.0235 55.9936 83.649C55.8944 83.2745 55.947 82.8759 56.1401 82.54L62.0001 72.35C62.0955 72.1827 62.223 72.036 62.3754 71.9182C62.5277 71.8005 62.7018 71.714 62.8877 71.6638C63.0736 71.6136 63.2676 71.6007 63.4585 71.6258C63.6494 71.6509 63.8335 71.7135 64.0001 71.81Z" fill="#4469E4"/>
<path d="M83.0001 70.63C83.0001 71.0199 82.8452 71.3938 82.5695 71.6695C82.2938 71.9452 81.9199 72.1 81.5301 72.1H69.7901C69.4002 72.1 69.0263 71.9452 68.7506 71.6695C68.4749 71.3938 68.3201 71.0199 68.3201 70.63C68.3201 70.2402 68.4749 69.8663 68.7506 69.5906C69.0263 69.3149 69.4002 69.16 69.7901 69.16H81.5701C81.953 69.1705 82.3167 69.3299 82.5838 69.6045C82.8508 69.879 83.0002 70.247 83.0001 70.63Z" fill="#4469E4"/>
<path d="M79.3599 77C79.1933 77.0965 79.0093 77.1591 78.8184 77.1842C78.6275 77.2093 78.4335 77.1963 78.2476 77.1462C78.0617 77.096 77.8876 77.0095 77.7352 76.8917C77.5829 76.774 77.4553 76.6272 77.3599 76.46L71.4699 66.26C71.2804 65.9223 71.2307 65.5237 71.3317 65.1498C71.4326 64.7758 71.6761 64.4564 72.0099 64.26C72.3477 64.0704 72.7463 64.0208 73.1202 64.1217C73.4941 64.2227 73.8135 64.4662 74.0099 64.8L79.8999 75C79.9965 75.1666 80.0591 75.3507 80.0841 75.5416C80.1092 75.7325 80.0963 75.9265 80.0461 76.1124C79.9959 76.2982 79.9095 76.4724 79.7917 76.6247C79.6739 76.7771 79.5272 76.9046 79.3599 77Z" fill="#4469E4"/>
<path d="M79.3599 64.25C79.5272 64.3454 79.6739 64.4729 79.7917 64.6253C79.9094 64.7776 79.9959 64.9517 80.0461 65.1376C80.0963 65.3235 80.1092 65.5175 80.0841 65.7084C80.059 65.8993 79.9964 66.0834 79.8999 66.25L73.9999 76.46C73.9045 76.6272 73.777 76.774 73.6247 76.8917C73.4723 77.0095 73.2982 77.096 73.1123 77.1462C72.9264 77.1963 72.7324 77.2093 72.5415 77.1842C72.3506 77.1591 72.1666 77.0965 71.9999 77C71.6661 76.8036 71.4226 76.4841 71.3217 76.1102C71.2207 75.7363 71.2704 75.3377 71.4599 75L77.3499 64.8C77.5464 64.4662 77.8658 64.2227 78.2397 64.1217C78.6136 64.0208 79.0122 64.0704 79.3499 64.26L79.3599 64.25Z" fill="#4469E4"/>
<path d="M28.4399 77.28C28.4399 77.5638 28.5527 77.836 28.7533 78.0366C28.954 78.2373 29.2262 78.35 29.5099 78.35H38.0999C38.3837 78.35 38.6559 78.2373 38.8565 78.0366C39.0572 77.836 39.1699 77.5638 39.1699 77.28C39.1699 76.9962 39.0572 76.7241 38.8565 76.5234C38.6559 76.3228 38.3837 76.21 38.0999 76.21H29.5099C29.2262 76.21 28.954 76.3228 28.7533 76.5234C28.5527 76.7241 28.4399 76.9962 28.4399 77.28Z" fill="#4469E4"/>
<path d="M31.1199 81.93C31.3653 82.0715 31.6568 82.1099 31.9305 82.0368C32.2042 81.9637 32.4377 81.785 32.5799 81.54L36.8799 74.1C36.9513 73.9788 36.9979 73.8447 37.0169 73.7053C37.0359 73.5659 37.0271 73.4242 36.9908 73.2883C36.9545 73.1524 36.8915 73.0251 36.8055 72.9138C36.7195 72.8025 36.6122 72.7094 36.4899 72.64C36.369 72.5639 36.234 72.5129 36.093 72.4898C35.952 72.4667 35.8078 72.4721 35.669 72.5057C35.5301 72.5392 35.3993 72.6003 35.2844 72.6852C35.1695 72.7701 35.0728 72.8771 34.9999 73L30.7099 80.43C30.5679 80.6769 30.5292 80.97 30.6023 81.2453C30.6753 81.5206 30.8542 81.7559 31.0999 81.9L31.1199 81.93Z" fill="#4469E4"/>
<path d="M31.12 72.64C30.9977 72.7094 30.8904 72.8025 30.8044 72.9138C30.7184 73.0251 30.6555 73.1524 30.6192 73.2883C30.5829 73.4242 30.574 73.566 30.593 73.7053C30.612 73.8447 30.6586 73.9788 30.73 74.1L35 81.54C35.1441 81.7857 35.3794 81.9646 35.6547 82.0376C35.93 82.1107 36.2231 82.072 36.47 81.93C36.7157 81.7859 36.8946 81.5506 36.9676 81.2753C37.0407 81 37.002 80.707 36.86 80.46L32.58 73C32.5106 72.8777 32.4175 72.7704 32.3062 72.6844C32.1949 72.5984 32.0676 72.5355 31.9317 72.4992C31.7958 72.4629 31.6541 72.454 31.5147 72.473C31.3754 72.492 31.2412 72.5386 31.12 72.61V72.64Z" fill="#4469E4"/>
<path d="M16.8899 71.65C16.8898 71.7944 16.9187 71.9373 16.9749 72.0704C17.031 72.2034 17.1133 72.3238 17.2167 72.4245C17.3202 72.5252 17.4429 72.6041 17.5774 72.6566C17.7119 72.709 17.8556 72.734 17.9999 72.73H26.5799C26.7213 72.73 26.8612 72.702 26.9917 72.6476C27.1222 72.5932 27.2406 72.5135 27.3401 72.4131C27.4395 72.3127 27.5182 72.1935 27.5713 72.0625C27.6245 71.9316 27.6512 71.7914 27.6499 71.65C27.6512 71.5091 27.6245 71.3694 27.5712 71.239C27.5179 71.1085 27.4391 70.99 27.3395 70.8904C27.2398 70.7908 27.1214 70.712 26.9909 70.6587C26.8605 70.6054 26.7208 70.5787 26.5799 70.58H17.9999C17.8585 70.5787 17.7183 70.6054 17.5874 70.6586C17.4564 70.7117 17.3372 70.7904 17.2368 70.8898C17.1364 70.9893 17.0567 71.1077 17.0023 71.2382C16.9479 71.3687 16.9199 71.5086 16.9199 71.65H16.8899Z" fill="#4469E4"/>
<path d="M19.5801 76.3C19.8222 76.4267 20.1033 76.4569 20.3668 76.3845C20.6303 76.3121 20.8566 76.1426 21.0001 75.91L25.2901 68.47C25.3647 68.3508 25.4149 68.218 25.4378 68.0792C25.4606 67.9404 25.4556 67.7985 25.423 67.6617C25.3904 67.5248 25.3309 67.3959 25.248 67.2823C25.1651 67.1687 25.0604 67.0727 24.9401 67C24.8189 66.9286 24.6847 66.882 24.5454 66.863C24.406 66.8439 24.2642 66.8528 24.1284 66.8891C23.9925 66.9254 23.8652 66.9884 23.7539 67.0744C23.6426 67.1604 23.5495 67.2677 23.4801 67.39L19.1801 74.82C19.0389 75.0681 19.0018 75.3621 19.0767 75.6375C19.1517 75.913 19.3326 76.1476 19.5801 76.29V76.3Z" fill="#4469E4"/>
<path d="M19.5799 67C19.4577 67.0696 19.3504 67.1625 19.2642 67.2736C19.178 67.3846 19.1145 67.5115 19.0773 67.6471C19.0402 67.7827 19.0301 67.9243 19.0477 68.0638C19.0653 68.2033 19.1102 68.3379 19.1799 68.46L23.4799 75.9C23.622 76.1451 23.8556 76.3237 24.1293 76.3968C24.403 76.4699 24.6945 76.4315 24.9399 76.29C25.0625 76.2196 25.17 76.1256 25.2561 76.0134C25.3422 75.9012 25.4052 75.7731 25.4415 75.6364C25.4778 75.4997 25.4866 75.3571 25.4674 75.217C25.4483 75.0769 25.4015 74.942 25.3299 74.82L20.9999 67.4C20.8615 67.162 20.6359 66.9871 20.3709 66.9124C20.1058 66.8378 19.8222 66.8692 19.5799 67Z" fill="#4469E4"/>
</svg>
