<svg width="100" height="100" viewBox="0 0 100 100" fill="none" xmlns="http://www.w3.org/2000/svg">
<rect width="100" height="100" fill="white"/>
<path d="M71.0901 23.53C70.3173 23.5282 69.5453 23.5817 68.7801 23.69C66.6221 20.7332 63.7963 18.3277 60.5329 16.6694C57.2695 15.0111 53.6607 14.1467 50.0001 14.1467C46.3395 14.1467 42.7307 15.0111 39.4673 16.6694C36.2039 18.3277 33.3782 20.7332 31.2201 23.69C28.9871 23.3661 26.7112 23.5062 24.5348 24.1016C22.3584 24.6969 20.3281 25.7347 18.5708 27.1501C16.8136 28.5655 15.3671 30.3281 14.3218 32.3278C13.2765 34.3274 12.6548 36.5212 12.4955 38.772C12.3363 41.0227 12.6429 43.2822 13.3963 45.4091C14.1496 47.536 15.3335 49.4847 16.874 51.1334C18.4145 52.7821 20.2784 54.0954 22.3494 54.9913C24.4203 55.8871 26.6537 56.3463 28.9101 56.34C30.8961 56.3441 32.8658 55.9813 34.7201 55.27C38.9448 58.9819 44.3763 61.0291 50.0001 61.0291C55.6239 61.0291 61.0554 58.9819 65.2801 55.27C67.1346 55.9804 69.1042 56.3432 71.0901 56.34C73.2785 56.394 75.4556 56.0097 77.4932 55.2095C79.5309 54.4094 81.3878 53.2097 82.9547 51.681C84.5216 50.1523 85.7668 48.3255 86.617 46.3083C87.4672 44.2911 87.9052 42.1241 87.9052 39.935C87.9052 37.7459 87.4672 35.579 86.617 33.5617C85.7668 31.5445 84.5216 29.7177 82.9547 28.1891C81.3878 26.6604 79.5309 25.4606 77.4932 24.6605C75.4556 23.8603 73.2785 23.476 71.0901 23.53ZM71.0901 51.65C68.6796 51.6489 66.3286 50.9013 64.3601 49.51C62.6235 51.6442 60.4331 53.3646 57.9483 54.5462C55.4635 55.7277 52.7466 56.3408 49.9951 56.3408C47.2436 56.3408 44.5267 55.7277 42.0419 54.5462C39.5571 53.3646 37.3667 51.6442 35.6301 49.51C33.9658 50.6803 32.0252 51.3967 29.9997 51.5887C27.9742 51.7808 25.9336 51.4417 24.079 50.605C22.2244 49.7683 20.6198 48.4628 19.4234 46.8172C18.2269 45.1716 17.4798 43.2426 17.2558 41.2204C17.0318 39.1982 17.3385 37.1525 18.1458 35.2849C18.953 33.4173 20.233 31.7922 21.8594 30.5699C23.4859 29.3475 25.4028 28.5701 27.4212 28.3141C29.4397 28.0581 31.49 28.3324 33.3701 29.11C34.9162 26.0238 37.2905 23.4286 40.2275 21.615C43.1645 19.8014 46.5483 18.8409 50.0001 18.8409C53.4519 18.8409 56.8357 19.8014 59.7727 21.615C62.7097 23.4286 65.084 26.0238 66.6301 29.11C68.2301 28.4521 69.9559 28.1568 71.6836 28.2454C73.4113 28.334 75.0979 28.8043 76.6221 29.6225C78.1464 30.4407 79.4704 31.5865 80.499 32.9774C81.5276 34.3684 82.2353 35.97 82.5711 37.667C82.9069 39.3641 82.8625 41.1145 82.4411 42.7923C82.0197 44.4702 81.2318 46.0338 80.134 47.3708C79.0362 48.7079 77.6558 49.7851 76.0921 50.525C74.5283 51.2648 72.8201 51.6491 71.0901 51.65Z" fill="#4469E4"/>
<path d="M56 77.71H52.5801L54.2701 74.79C54.4579 74.4485 54.5044 74.0469 54.3996 73.6715C54.2948 73.2961 54.0471 72.9767 53.7096 72.7818C53.3721 72.5868 52.9716 72.5319 52.5941 72.6288C52.2165 72.7257 51.892 72.9666 51.69 73.3L50 76.23L48.3101 73.3C48.1081 72.9666 47.7836 72.7257 47.406 72.6288C47.0285 72.5319 46.628 72.5868 46.2905 72.7818C45.953 72.9767 45.7053 73.2961 45.6005 73.6715C45.4957 74.0469 45.5422 74.4485 45.73 74.79L47.42 77.71H44.05C43.6522 77.71 43.2707 77.868 42.9894 78.1493C42.7081 78.4306 42.55 78.8122 42.55 79.21C42.55 79.6078 42.7081 79.9894 42.9894 80.2707C43.2707 80.552 43.6522 80.71 44.05 80.71H47.42L45.73 83.63C45.6273 83.7996 45.5594 83.988 45.5304 84.1842C45.5015 84.3803 45.5119 84.5803 45.5612 84.7724C45.6105 84.9645 45.6976 85.1448 45.8175 85.3027C45.9374 85.4607 46.0876 85.5931 46.2593 85.6923C46.431 85.7915 46.6208 85.8554 46.8175 85.8803C47.0142 85.9051 47.214 85.8905 47.405 85.8372C47.596 85.7839 47.7744 85.693 47.9298 85.5698C48.0852 85.4467 48.2145 85.2938 48.3101 85.12L50 82.18L51.69 85.1C51.7856 85.2738 51.9149 85.4267 52.0703 85.5498C52.2257 85.673 52.4041 85.7639 52.5951 85.8172C52.7861 85.8705 52.9859 85.8851 53.1826 85.8603C53.3793 85.8354 53.5691 85.7715 53.7408 85.6723C53.9125 85.5732 54.0627 85.4407 54.1826 85.2827C54.3025 85.1248 54.3896 84.9445 54.4389 84.7524C54.4882 84.5603 54.4986 84.3603 54.4697 84.1642C54.4407 83.968 54.3728 83.7796 54.2701 83.61L52.5801 80.69H56C56.3979 80.69 56.7794 80.532 57.0607 80.2507C57.342 79.9694 57.5 79.5878 57.5 79.19C57.5 78.7922 57.342 78.4106 57.0607 78.1293C56.7794 77.848 56.3979 77.69 56 77.69V77.71Z" fill="#4469E4"/>
<path d="M37.9 67.16H34.52L36.21 64.23C36.3781 63.89 36.4103 63.4987 36.2999 63.1358C36.1895 62.7729 35.9448 62.4658 35.6158 62.2771C35.2868 62.0883 34.8982 62.0322 34.5292 62.1201C34.1602 62.208 33.8386 62.4332 33.63 62.75L31.94 65.67L30.26 62.75C30.1698 62.5677 30.0433 62.4058 29.8882 62.2742C29.7331 62.1427 29.5527 62.0443 29.3581 61.9851C29.1635 61.9258 28.9589 61.9071 28.7568 61.93C28.5547 61.9529 28.3594 62.0169 28.183 62.1181C28.0066 62.2193 27.8527 62.3555 27.731 62.5184C27.6092 62.6814 27.5221 62.8675 27.4749 63.0653C27.4278 63.2632 27.4217 63.4686 27.457 63.6689C27.4922 63.8692 27.5681 64.0602 27.68 64.23L29.37 67.16H26C25.6022 67.16 25.2206 67.3181 24.9393 67.5994C24.658 67.8807 24.5 68.2622 24.5 68.66C24.5 69.0579 24.658 69.4394 24.9393 69.7207C25.2206 70.002 25.6022 70.16 26 70.16H29.38L27.69 73.09C27.5781 73.2599 27.5022 73.4509 27.467 73.6512C27.4317 73.8515 27.4378 74.0569 27.4849 74.2547C27.5321 74.4526 27.6192 74.6387 27.741 74.8016C27.8627 74.9645 28.0166 75.1008 28.193 75.202C28.3694 75.3032 28.5647 75.3672 28.7668 75.3901C28.9689 75.413 29.1735 75.3942 29.3681 75.335C29.5627 75.2758 29.7431 75.1774 29.8982 75.0458C30.0533 74.9143 30.1798 74.7523 30.27 74.57L31.95 71.65L33.64 74.57C33.8486 74.8868 34.1702 75.1121 34.5392 75.2C34.9082 75.2879 35.2968 75.2317 35.6258 75.043C35.9548 74.8542 36.1995 74.5471 36.3099 74.1842C36.4203 73.8214 36.3881 73.43 36.22 73.09L34.53 70.16H37.9C38.2978 70.16 38.6794 70.002 38.9607 69.7207C39.242 69.4394 39.4 69.0579 39.4 68.66C39.4 68.2622 39.242 67.8807 38.9607 67.5994C38.6794 67.3181 38.2978 67.16 37.9 67.16Z" fill="#4469E4"/>
<path d="M74.0001 67.16H70.6301L72.3201 64.23C72.4882 63.89 72.5204 63.4987 72.41 63.1358C72.2996 62.7729 72.0549 62.4658 71.7259 62.2771C71.3969 62.0883 71.0083 62.0322 70.6393 62.1201C70.2703 62.208 69.9487 62.4332 69.7401 62.75L68.0601 65.67L66.3701 62.75C66.2799 62.5677 66.1534 62.4058 65.9983 62.2742C65.8432 62.1427 65.6628 62.0443 65.4682 61.9851C65.2736 61.9258 65.069 61.9071 64.8669 61.93C64.6648 61.9529 64.4695 62.0169 64.2931 62.1181C64.1167 62.2193 63.9628 62.3555 63.8411 62.5184C63.7193 62.6814 63.6322 62.8675 63.585 63.0653C63.5379 63.2632 63.5318 63.4686 63.5671 63.6689C63.6023 63.8692 63.6782 64.0602 63.7901 64.23L65.4801 67.16H62.1001C61.7023 67.16 61.3207 67.3181 61.0394 67.5994C60.7581 67.8807 60.6001 68.2622 60.6001 68.66C60.6001 69.0579 60.7581 69.4394 61.0394 69.7207C61.3207 70.002 61.7023 70.16 62.1001 70.16H65.4801L63.7901 73.09C63.6782 73.2599 63.6023 73.4509 63.5671 73.6512C63.5318 73.8515 63.5379 74.0569 63.585 74.2547C63.6322 74.4526 63.7193 74.6387 63.8411 74.8016C63.9628 74.9645 64.1167 75.1008 64.2931 75.202C64.4695 75.3032 64.6648 75.3672 64.8669 75.3901C65.069 75.413 65.2736 75.3942 65.4682 75.335C65.6628 75.2758 65.8432 75.1774 65.9983 75.0458C66.1534 74.9143 66.2799 74.7523 66.3701 74.57L68.0601 71.65L69.7401 74.57C69.8303 74.7523 69.9568 74.9143 70.1119 75.0458C70.267 75.1774 70.4474 75.2758 70.642 75.335C70.8366 75.3942 71.0412 75.413 71.2433 75.3901C71.4454 75.3672 71.6407 75.3032 71.8171 75.202C71.9935 75.1008 72.1474 74.9645 72.2691 74.8016C72.3909 74.6387 72.478 74.4526 72.5252 74.2547C72.5723 74.0569 72.5784 73.8515 72.5431 73.6512C72.5079 73.4509 72.432 73.2599 72.3201 73.09L70.6301 70.16H74.0001C74.3979 70.16 74.7795 70.002 75.0608 69.7207C75.3421 69.4394 75.5001 69.0579 75.5001 68.66C75.5001 68.2622 75.3421 67.8807 75.0608 67.5994C74.7795 67.3181 74.3979 67.16 74.0001 67.16Z" fill="#4469E4"/>
</svg>
