<svg width="100" height="100" viewBox="0 0 100 100" fill="none" xmlns="http://www.w3.org/2000/svg">
<rect width="100" height="100" fill="white"/>
<path fill-rule="evenodd" clip-rule="evenodd" d="M85 47.5H72.25C71.7547 42.9211 69.8606 38.606 66.8254 35.1419C63.7903 31.6779 59.7616 29.2331 55.2875 28.1402C50.8134 27.0474 46.1113 27.3596 41.821 29.0343C37.5306 30.7091 33.8605 33.6651 31.31 37.5H15C14.337 37.5 13.7011 37.7634 13.2322 38.2322C12.7634 38.7011 12.5 39.3369 12.5 40C12.5 40.663 12.7634 41.2989 13.2322 41.7678C13.7011 42.2366 14.337 42.5 15 42.5H28.88C28.3124 44.1177 27.9332 45.7954 27.75 47.5H20C19.337 47.5 18.7011 47.7634 18.2322 48.2322C17.7634 48.7011 17.5 49.3369 17.5 50C17.5 50.663 17.7634 51.2989 18.2322 51.7678C18.7011 52.2366 19.337 52.5 20 52.5H27.75C27.9344 54.2044 28.3135 55.882 28.88 57.5H15.45C15.0892 57.4439 14.7206 57.4666 14.3694 57.5665C14.0183 57.6664 13.6929 57.8411 13.4156 58.0786C13.1384 58.3161 12.9158 58.6108 12.7632 58.9425C12.6106 59.2741 12.5315 59.6349 12.5315 60C12.5315 60.3651 12.6106 60.7258 12.7632 61.0575C12.9158 61.3892 13.1384 61.6839 13.4156 61.9214C13.6929 62.1589 14.0183 62.3336 14.3694 62.4335C14.7206 62.5334 15.0892 62.556 15.45 62.5H31.31C33.3624 65.5753 36.142 68.0967 39.4023 69.8405C42.6625 71.5843 46.3027 72.4966 50 72.4966C53.6973 72.4966 57.3375 71.5843 60.5977 69.8405C63.858 68.0967 66.6376 65.5753 68.69 62.5H74.55C74.9108 62.556 75.2794 62.5334 75.6305 62.4335C75.9817 62.3336 76.3071 62.1589 76.5844 61.9214C76.8616 61.6839 77.0842 61.3892 77.2368 61.0575C77.3894 60.7258 77.4685 60.3651 77.4685 60C77.4685 59.6349 77.3894 59.2741 77.2368 58.9425C77.0842 58.6108 76.8616 58.3161 76.5844 58.0786C76.3071 57.8411 75.9817 57.6664 75.6305 57.5665C75.2794 57.4666 74.9108 57.4439 74.55 57.5H71.12C71.6818 55.8806 72.0608 54.2036 72.25 52.5H85C85.663 52.5 86.2989 52.2366 86.7678 51.7678C87.2366 51.2989 87.5 50.663 87.5 50C87.5 49.3369 87.2366 48.7011 86.7678 48.2322C86.2989 47.7634 85.663 47.5 85 47.5ZM34.26 42.5H50C50.663 42.5 51.2989 42.2366 51.7678 41.7678C52.2366 41.2989 52.5 40.663 52.5 40C52.5 39.3369 52.2366 38.7011 51.7678 38.2322C51.2989 37.7634 50.663 37.5 50 37.5H37.79C40.0906 35.2393 42.9737 33.6617 46.1181 32.943C49.2625 32.2243 52.5446 32.3927 55.5989 33.4294C58.6532 34.4662 61.3597 36.3306 63.4169 38.8149C65.474 41.2993 66.801 44.3059 67.25 47.5H32.75C32.9968 45.7664 33.5059 44.0804 34.26 42.5ZM50 67.5C45.4325 67.4955 41.0488 65.7004 37.79 62.5H62.21C58.9512 65.7004 54.5675 67.4955 50 67.5ZM65.74 57.5H34.26C33.5059 55.9196 32.9968 54.2336 32.75 52.5H67.25C67.0032 54.2336 66.4941 55.9196 65.74 57.5Z" fill="#4469E4"/>
</svg>
