<svg width="100" height="100" viewBox="0 0 100 100" fill="none" xmlns="http://www.w3.org/2000/svg">
<rect width="100" height="100" fill="white"/>
<path fill-rule="evenodd" clip-rule="evenodd" d="M76.5499 35.08H23.4499C22.6986 35.1238 21.9923 35.4532 21.4758 36.0007C20.9593 36.5481 20.6716 37.2723 20.6716 38.025C20.6716 38.7777 20.9593 39.5019 21.4758 40.0494C21.9923 40.5969 22.6986 40.9262 23.4499 40.97H76.5499C77.3013 40.9262 78.0076 40.5969 78.5241 40.0494C79.0406 39.5019 79.3283 38.7777 79.3283 38.025C79.3283 37.2723 79.0406 36.5481 78.5241 36.0007C78.0076 35.4532 77.3013 35.1238 76.5499 35.08Z" fill="#4469E4"/>
<path fill-rule="evenodd" clip-rule="evenodd" d="M23.4499 29H76.5499C77.2393 28.8725 77.8622 28.5077 78.3106 27.9688C78.759 27.4299 79.0045 26.751 79.0045 26.05C79.0045 25.3489 78.759 24.67 78.3106 24.1312C77.8622 23.5923 77.2393 23.2274 76.5499 23.1H23.4499C22.7606 23.2274 22.1376 23.5923 21.6892 24.1312C21.2409 24.67 20.9954 25.3489 20.9954 26.05C20.9954 26.751 21.2409 27.4299 21.6892 27.9688C22.1376 28.5077 22.7606 28.8725 23.4499 29Z" fill="#4469E4"/>
<path fill-rule="evenodd" clip-rule="evenodd" d="M76.5499 47.05H23.4499C22.7606 47.1774 22.1376 47.5423 21.6892 48.0812C21.2409 48.6201 20.9954 49.299 20.9954 50C20.9954 50.701 21.2409 51.3799 21.6892 51.9188C22.1376 52.4577 22.7606 52.8225 23.4499 52.95H76.5499C77.2393 52.8225 77.8622 52.4577 78.3106 51.9188C78.759 51.3799 79.0045 50.701 79.0045 50C79.0045 49.299 78.759 48.6201 78.3106 48.0812C77.8622 47.5423 77.2393 47.1774 76.5499 47.05Z" fill="#4469E4"/>
<path fill-rule="evenodd" clip-rule="evenodd" d="M76.5499 59H23.4499C22.7606 59.1275 22.1376 59.4923 21.6892 60.0312C21.2409 60.5701 20.9954 61.249 20.9954 61.95C20.9954 62.651 21.2409 63.3299 21.6892 63.8688C22.1376 64.4077 22.7606 64.7725 23.4499 64.9H76.5499C77.2393 64.7725 77.8622 64.4077 78.3106 63.8688C78.759 63.3299 79.0045 62.651 79.0045 61.95C79.0045 61.249 78.759 60.5701 78.3106 60.0312C77.8622 59.4923 77.2393 59.1275 76.5499 59Z" fill="#4469E4"/>
<path fill-rule="evenodd" clip-rule="evenodd" d="M76.5499 71H23.4499C22.7606 71.1275 22.1376 71.4923 21.6892 72.0312C21.2409 72.5701 20.9954 73.249 20.9954 73.95C20.9954 74.651 21.2409 75.3299 21.6892 75.8688C22.1376 76.4077 22.7606 76.7725 23.4499 76.9H76.5499C77.2393 76.7725 77.8622 76.4077 78.3106 75.8688C78.759 75.3299 79.0045 74.651 79.0045 73.95C79.0045 73.249 78.759 72.5701 78.3106 72.0312C77.8622 71.4923 77.2393 71.1275 76.5499 71Z" fill="#4469E4"/>
</svg>
