<svg width="100" height="100" viewBox="0 0 100 100" fill="none" xmlns="http://www.w3.org/2000/svg">
<rect width="100" height="100" fill="white"/>
<path fill-rule="evenodd" clip-rule="evenodd" d="M71.09 24.15C70.3172 24.1482 69.5452 24.2017 68.78 24.31C66.622 21.3532 63.7963 18.9477 60.5329 17.2894C57.2695 15.6311 53.6606 14.7667 50 14.7667C46.3395 14.7667 42.7306 15.6311 39.4672 17.2894C36.2038 18.9477 33.3781 21.3532 31.22 24.31C30.4548 24.2017 29.6829 24.1482 28.91 24.15C26.7216 24.096 24.5445 24.4803 22.5069 25.2805C20.4693 26.0806 18.6124 27.2804 17.0455 28.809C15.4786 30.3377 14.2333 32.1645 13.3832 34.1817C12.533 36.199 12.095 38.3659 12.095 40.555C12.095 42.7441 12.533 44.911 13.3832 46.9283C14.2333 48.9455 15.4786 50.7723 17.0455 52.301C18.6124 53.8297 20.4693 55.0294 22.5069 55.8295C24.5445 56.6297 26.7216 57.014 28.91 56.96C30.8967 56.9606 32.8663 56.5945 34.72 55.88C38.9419 59.5979 44.3745 61.649 50 61.649C55.6256 61.649 61.0582 59.5979 65.28 55.88C67.1311 56.6082 69.1009 56.9879 71.09 57C73.2784 57.054 75.4556 56.6697 77.4932 55.8695C79.5308 55.0694 81.3877 53.8697 82.9546 52.341C84.5215 50.8123 85.7667 48.9855 86.6169 46.9683C87.4671 44.951 87.9051 42.7841 87.9051 40.595C87.9051 38.4059 87.4671 36.239 86.6169 34.2217C85.7667 32.2045 84.5215 30.3777 82.9546 28.849C81.3877 27.3204 79.5308 26.1206 77.4932 25.3205C75.4556 24.5203 73.2784 24.136 71.09 24.19V24.15ZM71.09 52.27C68.6825 52.2694 66.3345 51.5217 64.37 50.13C62.6334 52.2642 60.4431 53.9846 57.9582 55.1662C55.4734 56.3477 52.7565 56.9608 50.005 56.9608C47.2536 56.9608 44.5367 56.3477 42.0518 55.1662C39.567 53.9846 37.3767 52.2642 35.64 50.13C33.9755 51.3039 32.0338 52.0237 30.0063 52.2185C27.9789 52.4133 25.9356 52.0763 24.0781 51.2409C22.2205 50.4054 20.6127 49.1002 19.4133 47.4541C18.2138 45.8079 17.464 43.8776 17.2379 41.8534C17.0118 39.8291 17.3171 37.7809 18.1237 35.9107C18.9304 34.0404 20.2105 32.4126 21.8379 31.1879C23.4654 29.9631 25.3839 29.1836 27.4044 28.9262C29.4248 28.6688 31.4775 28.9424 33.36 29.72C34.9103 26.6372 37.2868 24.0458 40.2242 22.2351C43.1616 20.4244 46.5444 19.4655 49.995 19.4655C53.4457 19.4655 56.8285 20.4244 59.7659 22.2351C62.7033 24.0458 65.0797 26.6372 66.63 29.72C68.232 29.0574 69.9609 28.7584 71.6924 28.8445C73.4238 28.9307 75.1145 29.3998 76.6428 30.2182C78.171 31.0366 79.4986 32.1839 80.53 33.5772C81.5614 34.9706 82.2708 36.5754 82.6072 38.2761C82.9435 39.9767 82.8984 41.7307 82.4751 43.4118C82.0518 45.0929 81.2608 46.6592 80.1592 47.9977C79.0576 49.3362 77.6728 50.4137 76.1045 51.1525C74.5362 51.8913 72.8236 52.2729 71.09 52.27Z" fill="#4469E4"/>
<path d="M19 72.19C19.0067 72.4236 18.9667 72.6562 18.8825 72.8743C18.7983 73.0923 18.6715 73.2913 18.5095 73.4598C18.3475 73.6283 18.1536 73.7629 17.9391 73.8556C17.7246 73.9484 17.4937 73.9974 17.26 74C16.7932 74 16.3456 73.8146 16.0155 73.4845C15.6854 73.1544 15.5 72.7068 15.5 72.24V60.47C15.5026 60.005 15.6892 59.5599 16.019 59.232C16.3488 58.904 16.7949 58.72 17.26 58.72C17.7216 58.7252 18.1626 58.9116 18.4881 59.2389C18.8136 59.5663 18.9974 60.0084 19 60.47V72.19Z" fill="#4469E4"/>
<path d="M84.5 72.19C84.5067 72.4253 84.4661 72.6596 84.3806 72.8789C84.2952 73.0982 84.1666 73.2982 84.0025 73.467C83.8384 73.6357 83.6421 73.7699 83.4253 73.8614C83.2084 73.953 82.9754 74.0001 82.74 74C82.5063 73.9974 82.2754 73.9484 82.0609 73.8556C81.8464 73.7629 81.6524 73.6283 81.4905 73.4598C81.3285 73.2913 81.2017 73.0923 81.1175 72.8743C81.0333 72.6562 80.9933 72.4236 81 72.19V60.47C81.0026 60.005 81.1892 59.5599 81.519 59.232C81.8488 58.904 82.2949 58.72 82.76 58.72C83.225 58.72 83.6712 58.904 84.001 59.232C84.3307 59.5599 84.5173 60.005 84.52 60.47L84.5 72.19Z" fill="#4469E4"/>
<path d="M40.8401 79.81C40.8414 80.0407 40.7971 80.2693 40.7097 80.4828C40.6224 80.6963 40.4937 80.8904 40.3311 81.0539C40.1684 81.2175 39.9751 81.3473 39.7621 81.4359C39.5491 81.5244 39.3207 81.57 39.0901 81.57C38.8589 81.57 38.6301 81.5245 38.4166 81.436C38.203 81.3476 38.009 81.218 37.8456 81.0545C37.6821 80.8911 37.5525 80.6971 37.464 80.4835C37.3756 80.27 37.3301 80.0411 37.3301 79.81V68.09C37.3301 67.8589 37.3756 67.63 37.464 67.4165C37.5525 67.203 37.6821 67.0089 37.8456 66.8455C38.009 66.6821 38.203 66.5524 38.4166 66.464C38.6301 66.3755 38.8589 66.33 39.0901 66.33C39.3207 66.33 39.5491 66.3756 39.7621 66.4642C39.9751 66.5528 40.1684 66.6825 40.3311 66.8461C40.4937 67.0097 40.6224 67.2038 40.7097 67.4173C40.7971 67.6307 40.8414 67.8594 40.8401 68.09V79.81Z" fill="#4469E4"/>
<path d="M62.6699 79.81C62.6699 80.2768 62.4845 80.7245 62.1544 81.0545C61.8244 81.3846 61.3767 81.57 60.9099 81.57C60.6793 81.57 60.4509 81.5244 60.2379 81.4359C60.025 81.3473 59.8316 81.2175 59.669 81.0539C59.5063 80.8904 59.3776 80.6963 59.2903 80.4828C59.2029 80.2693 59.1586 80.0407 59.1599 79.81V68.09C59.1586 67.8594 59.2029 67.6307 59.2903 67.4173C59.3776 67.2038 59.5063 67.0097 59.669 66.8461C59.8316 66.6825 60.025 66.5528 60.2379 66.4642C60.4509 66.3756 60.6793 66.33 60.9099 66.33C61.3767 66.33 61.8244 66.5154 62.1544 66.8455C62.4845 67.1756 62.6699 67.6232 62.6699 68.09V79.81Z" fill="#4469E4"/>
<path fill-rule="evenodd" clip-rule="evenodd" d="M45.3101 80.54C45.3101 81.7839 45.8042 82.9768 46.6837 83.8563C47.5633 84.7359 48.7562 85.23 50.0001 85.23C51.2439 85.23 52.4368 84.7359 53.3164 83.8563C54.1959 82.9768 54.6901 81.7839 54.6901 80.54C54.6901 78 50.0001 71.17 50.0001 71.17C50.0001 71.17 45.3101 78 45.3101 80.54Z" fill="#4469E4"/>
<path fill-rule="evenodd" clip-rule="evenodd" d="M23.4901 73.58C23.4608 74.2134 23.5603 74.8463 23.7826 75.4402C24.0048 76.0341 24.3452 76.5767 24.7831 77.0354C25.221 77.494 25.7474 77.8591 26.3304 78.1085C26.9134 78.3579 27.541 78.4865 28.1751 78.4865C28.8092 78.4865 29.4368 78.3579 30.0198 78.1085C30.6028 77.8591 31.1292 77.494 31.5671 77.0354C32.005 76.5767 32.3454 76.0341 32.5677 75.4402C32.7899 74.8463 32.8894 74.2134 32.8601 73.58C32.8601 70.99 28.1801 64.21 28.1801 64.21C28.1801 64.21 23.4901 71 23.4901 73.58Z" fill="#4469E4"/>
<path fill-rule="evenodd" clip-rule="evenodd" d="M67.14 72.58C67.1107 73.2135 67.2102 73.8463 67.4325 74.4402C67.6547 75.0341 67.9951 75.5768 68.433 76.0354C68.8709 76.494 69.3973 76.8591 69.9803 77.1085C70.5633 77.3579 71.1909 77.4865 71.825 77.4865C72.4591 77.4865 73.0867 77.3579 73.6697 77.1085C74.2527 76.8591 74.7791 76.494 75.217 76.0354C75.6549 75.5768 75.9953 75.0341 76.2176 74.4402C76.4398 73.8463 76.5393 73.2135 76.51 72.58C76.51 69.99 71.83 63.2 71.83 63.2C71.83 63.2 67.14 70 67.14 72.58Z" fill="#4469E4"/>
</svg>
