<svg width="100" height="100" viewBox="0 0 100 100" fill="none" xmlns="http://www.w3.org/2000/svg">
<rect width="100" height="100" fill="white"/>
<path fill-rule="evenodd" clip-rule="evenodd" d="M71.09 27.79C70.317 27.7919 69.545 27.8487 68.78 27.96C66.622 25.0032 63.7963 22.5977 60.5329 20.9394C57.2695 19.2811 53.6606 18.4167 50 18.4167C46.3395 18.4167 42.7306 19.2811 39.4672 20.9394C36.2038 22.5977 33.3781 25.0032 31.22 27.96C30.4551 27.8483 29.6831 27.7915 28.91 27.79C26.7216 27.736 24.5445 28.1203 22.5069 28.9205C20.4693 29.7206 18.6124 30.9203 17.0455 32.449C15.4786 33.9777 14.2333 35.8045 13.3832 37.8217C12.533 39.839 12.095 42.0059 12.095 44.195C12.095 46.3841 12.533 48.551 13.3832 50.5683C14.2333 52.5855 15.4786 54.4123 17.0455 55.941C18.6124 57.4697 20.4693 58.6694 22.5069 59.4695C24.5445 60.2697 26.7216 60.654 28.91 60.6C30.896 60.6031 32.8655 60.2404 34.72 59.53C36.5186 61.0687 38.542 62.3232 40.72 63.25L44.37 59.61C40.9655 58.524 37.9362 56.4999 35.63 53.77C33.9662 54.9409 32.0261 55.6581 30.0007 55.8509C27.9754 56.0437 25.9348 55.7056 24.0799 54.8697C22.225 54.0338 20.6199 52.7291 19.4228 51.0842C18.2256 49.4392 17.4777 47.5107 17.2527 45.4886C17.0277 43.4666 17.3334 41.4209 18.1396 39.5529C18.9459 37.685 20.2249 36.0594 21.8507 34.8362C23.4764 33.6131 25.3928 32.8346 27.411 32.5775C29.4292 32.3204 31.4795 32.5935 33.36 33.37C34.9103 30.2872 37.2868 27.6958 40.2242 25.8851C43.1616 24.0743 46.5444 23.1155 49.995 23.1155C53.4457 23.1155 56.8285 24.0743 59.7659 25.8851C62.7033 27.6958 65.0797 30.2872 66.63 33.37C68.5138 32.5841 70.57 32.3033 72.5956 32.5554C74.6211 32.8075 76.5457 33.5838 78.1794 34.8076C79.813 36.0313 81.099 37.6602 81.9103 39.5332C82.7216 41.4062 83.0301 43.4584 82.8054 45.4872C82.5806 47.5159 81.8304 49.4509 80.6288 51.1009C79.4272 52.7508 77.8158 54.0587 75.954 54.8952C74.0921 55.7318 72.0442 56.068 70.0126 55.8706C67.981 55.6733 66.0361 54.9492 64.37 53.77C62.8251 55.5941 60.953 57.1135 58.85 58.25L56.85 64.15C59.9389 63.2062 62.7989 61.6332 65.25 59.53C67.1043 60.2413 69.074 60.6041 71.06 60.6C73.2484 60.654 75.4256 60.2697 77.4632 59.4695C79.5008 58.6694 81.3577 57.4697 82.9246 55.941C84.4915 54.4123 85.7367 52.5855 86.5869 50.5683C87.4371 48.551 87.8751 46.3841 87.8751 44.195C87.8751 42.0059 87.4371 39.839 86.5869 37.8217C85.7367 35.8045 84.4915 33.9777 82.9246 32.449C81.3577 30.9203 79.5008 29.7206 77.4632 28.9205C75.4256 28.1203 73.2484 27.736 71.06 27.79H71.09Z" fill="#4469E4"/>
<path d="M45.8001 80.66C45.6473 80.6791 45.4928 80.6791 45.3401 80.66C45.0976 80.5974 44.8701 80.4871 44.6709 80.3354C44.4717 80.1838 44.3048 79.9939 44.18 79.7768C44.0552 79.5598 43.9749 79.32 43.9441 79.0716C43.9132 78.8231 43.9322 78.571 44.0001 78.33L50.8001 51.07C50.9207 50.5886 51.2277 50.1749 51.6534 49.9198C52.0791 49.6648 52.5887 49.5893 53.0701 49.71C53.5514 49.8307 53.9652 50.1376 54.2202 50.5633C54.4753 50.989 54.5507 51.4986 54.4301 51.98L47.6201 79.24C47.5178 79.6453 47.2833 80.005 46.9537 80.2622C46.6241 80.5194 46.2181 80.6593 45.8001 80.66Z" fill="#4469E4"/>
<path d="M71.54 74.05C71.54 74.4584 71.3777 74.8501 71.0889 75.1389C70.8001 75.4277 70.4084 75.59 70 75.59H57.71C57.5082 75.59 57.3084 75.5501 57.1221 75.4726C56.9359 75.3951 56.7667 75.2815 56.6245 75.1383C56.4823 74.9952 56.3698 74.8254 56.2935 74.6386C56.2172 74.4518 56.1786 74.2518 56.18 74.05C56.1786 73.8487 56.2173 73.6492 56.2937 73.4629C56.3701 73.2767 56.4828 73.1075 56.6251 72.9652C56.7675 72.8228 56.9367 72.7102 57.1229 72.6338C57.3091 72.5573 57.5087 72.5187 57.71 72.52H70C70.2017 72.5187 70.4018 72.5573 70.5885 72.6336C70.7753 72.7099 70.9452 72.8224 71.0883 72.9646C71.2314 73.1068 71.345 73.2759 71.4225 73.4622C71.5001 73.6485 71.54 73.8482 71.54 74.05Z" fill="#4469E4"/>
<path d="M67.6999 80.7C67.5255 80.802 67.3326 80.8685 67.1323 80.8956C66.932 80.9226 66.7284 80.9098 66.5332 80.8577C66.3379 80.8056 66.1549 80.7154 65.9947 80.5922C65.8345 80.469 65.7003 80.3154 65.5999 80.14L59.4499 69.5C59.2457 69.1483 59.1889 68.7301 59.2919 68.3366C59.395 67.9432 59.6495 67.6065 59.9999 67.4C60.1735 67.2982 60.3657 67.2319 60.5652 67.205C60.7647 67.1781 60.9675 67.191 61.1619 67.2431C61.3564 67.2952 61.5385 67.3854 61.6978 67.5085C61.8571 67.6316 61.9904 67.785 62.0899 67.96L68.2399 78.61C68.3417 78.7837 68.408 78.9758 68.4349 79.1753C68.4618 79.3748 68.4489 79.5777 68.3968 79.7721C68.3447 79.9665 68.2545 80.1487 68.1314 80.308C68.0084 80.4673 67.8549 80.6005 67.6799 80.7H67.6999Z" fill="#4469E4"/>
<path d="M67.7 67.4C67.8754 67.5005 68.0291 67.6347 68.1522 67.7949C68.2754 67.9551 68.3656 68.1381 68.4177 68.3333C68.4698 68.5286 68.4826 68.7322 68.4556 68.9324C68.4285 69.1327 68.3621 69.3256 68.26 69.5L62.11 80.14C62.0106 80.3177 61.8764 80.4736 61.7156 80.5984C61.5547 80.7233 61.3704 80.8145 61.1736 80.8668C60.9768 80.919 60.7715 80.9311 60.5699 80.9025C60.3683 80.8739 60.1745 80.805 60 80.7C59.8252 80.6004 59.6717 80.4673 59.5484 80.3082C59.4251 80.1492 59.3344 79.9674 59.2815 79.7733C59.2285 79.5791 59.2144 79.3765 59.2399 79.1769C59.2654 78.9772 59.33 78.7846 59.43 78.61L65.6 68C65.8049 67.6479 66.1408 67.3913 66.5344 67.2864C66.928 67.1814 67.3471 67.2367 67.7 67.44V67.4Z" fill="#4469E4"/>
<path d="M36.12 73.5C36.1201 73.7989 36.0027 74.0859 35.7932 74.2991C35.5837 74.5123 35.2989 74.6347 35 74.64H25.91C25.6077 74.64 25.3177 74.5199 25.1039 74.3061C24.8901 74.0923 24.77 73.8023 24.77 73.5C24.7727 73.1994 24.8939 72.912 25.1074 72.7003C25.3209 72.4887 25.6094 72.37 25.91 72.37H35C35.2989 72.3726 35.5848 72.4925 35.7962 72.7038C36.0075 72.9152 36.1274 73.2011 36.13 73.5H36.12Z" fill="#4469E4"/>
<path d="M33.28 78.42C33.1516 78.4947 33.0096 78.5431 32.8623 78.5625C32.715 78.5818 32.5654 78.5716 32.4221 78.5325C32.2787 78.4934 32.1446 78.4262 32.0275 78.3348C31.9104 78.2434 31.8127 78.1296 31.74 78L27.2 70.14C27.1247 70.0114 27.0755 69.8692 27.0553 69.7216C27.0352 69.5739 27.0444 69.4238 27.0825 69.2797C27.1206 69.1356 27.1868 69.0005 27.2774 68.8822C27.3679 68.7638 27.4809 68.6645 27.61 68.59C27.7392 68.5151 27.8819 68.4665 28.03 68.4471C28.178 68.4276 28.3285 68.4377 28.4726 68.4768C28.6167 68.5158 28.7517 68.5831 28.8697 68.6746C28.9877 68.7661 29.0863 68.8801 29.16 69.01L33.7 76.87C33.7749 76.9992 33.8235 77.1419 33.843 77.29C33.8624 77.438 33.8523 77.5885 33.8133 77.7326C33.7742 77.8767 33.707 78.0117 33.6154 78.1297C33.5239 78.2477 33.4099 78.3464 33.28 78.42Z" fill="#4469E4"/>
<path d="M33.28 68.59C33.4099 68.6636 33.5239 68.7623 33.6154 68.8803C33.707 68.9983 33.7742 69.1333 33.8133 69.2774C33.8523 69.4215 33.8624 69.572 33.843 69.72C33.8235 69.8681 33.7749 70.0108 33.7 70.14L29.16 78C29.0863 78.1299 28.9877 78.2439 28.8697 78.3354C28.7517 78.4269 28.6167 78.4942 28.4726 78.5332C28.3285 78.5723 28.178 78.5824 28.03 78.5629C27.8819 78.5435 27.7392 78.4949 27.61 78.42C27.4809 78.3455 27.3679 78.2462 27.2774 78.1278C27.1868 78.0095 27.1206 77.8744 27.0825 77.7303C27.0444 77.5862 27.0352 77.436 27.0553 77.2884C27.0755 77.1407 27.1247 76.9985 27.2 76.87L31.74 69C31.8127 68.8704 31.9104 68.7566 32.0275 68.6652C32.1446 68.5738 32.2787 68.5066 32.4221 68.4675C32.5654 68.4284 32.715 68.4182 32.8623 68.4375C33.0096 68.4568 33.1516 68.5053 33.28 68.58V68.59Z" fill="#4469E4"/>
</svg>
