<svg width="100" height="100" viewBox="0 0 100 100" fill="none" xmlns="http://www.w3.org/2000/svg">
<rect width="100" height="100" fill="white"/>
<path d="M28.9101 55.6C30.8967 55.5997 32.8662 55.2336 34.7201 54.52C38.9394 58.2392 44.3706 60.2913 49.9951 60.2913C55.6196 60.2913 61.0508 58.2392 65.2701 54.52C67.1276 55.2335 69.1003 55.5996 71.0901 55.6C73.2785 55.654 75.4556 55.2697 77.4932 54.4695C79.5309 53.6694 81.3878 52.4696 82.9547 50.9409C84.5216 49.4123 85.7668 47.5855 86.617 45.5683C87.4672 43.551 87.9052 41.3841 87.9052 39.195C87.9052 37.0059 87.4672 34.839 86.617 32.8217C85.7668 30.8045 84.5216 28.9777 82.9547 27.449C81.3878 25.9203 79.5309 24.7206 77.4932 23.9205C75.4556 23.1203 73.2785 22.736 71.0901 22.79C70.3173 22.7882 69.5453 22.8417 68.7801 22.95C66.6221 19.9932 63.7963 17.5877 60.5329 15.9294C57.2695 14.2711 53.6607 13.4067 50.0001 13.4067C46.3395 13.4067 42.7307 14.2711 39.4673 15.9294C36.2039 17.5877 33.3782 19.9932 31.2201 22.95C28.9871 22.6261 26.7112 22.7662 24.5348 23.3616C22.3584 23.9569 20.3281 24.9947 18.5708 26.4101C16.8136 27.8255 15.3671 29.5881 14.3218 31.5878C13.2765 33.5874 12.6548 35.7812 12.4955 38.0319C12.3363 40.2827 12.6429 42.5421 13.3963 44.669C14.1496 46.796 15.3335 48.7446 16.874 50.3934C18.4145 52.0421 20.2784 53.3554 22.3494 54.2513C24.4203 55.1471 26.6537 55.6063 28.9101 55.6ZM28.9101 27.47C30.4372 27.4744 31.9488 27.7767 33.3601 28.36C34.9104 25.2772 37.2868 22.6858 40.2243 20.8751C43.1617 19.0643 46.5444 18.1055 49.9951 18.1055C53.4458 18.1055 56.8286 19.0643 59.766 20.8751C62.7034 22.6858 65.0798 25.2772 66.6301 28.36C68.232 27.6974 69.961 27.3983 71.6924 27.4845C73.4239 27.5706 75.1146 28.0398 76.6428 28.8582C78.1711 29.6766 79.4987 30.8238 80.5301 32.2172C81.5615 33.6106 82.2709 35.2154 82.6072 36.916C82.9436 38.6167 82.8985 40.3707 82.4752 42.0518C82.0519 43.7329 81.2609 45.2992 80.1593 46.6377C79.0577 47.9762 77.6728 49.0537 76.1046 49.7925C74.5363 50.5313 72.8237 50.9129 71.0901 50.91C68.6778 50.9105 66.3253 50.159 64.3601 48.76C62.6256 50.8974 60.4359 52.6208 57.9508 53.8045C55.4657 54.9883 52.7477 55.6025 49.9951 55.6025C47.2425 55.6025 44.5245 54.9883 42.0394 53.8045C39.5543 52.6208 37.3646 50.8974 35.6301 48.76C33.6686 50.1588 31.3193 50.9104 28.9101 50.91C25.8018 50.91 22.8207 49.6752 20.6228 47.4773C18.4249 45.2794 17.1901 42.2983 17.1901 39.19C17.1901 36.0817 18.4249 33.1006 20.6228 30.9027C22.8207 28.7048 25.8018 27.47 28.9101 27.47Z" fill="#4469E4"/>
<path d="M39.93 70.78H37.59L38.76 68.78C38.8926 68.5426 38.9255 68.2623 38.8514 68.0007C38.7774 67.7391 38.6024 67.5176 38.365 67.385C38.1277 67.2524 37.8473 67.2195 37.5857 67.2936C37.3241 67.3677 37.1026 67.5426 36.97 67.78L35.8 69.78L34.64 67.78C34.5744 67.6625 34.4862 67.559 34.3806 67.4756C34.2749 67.3921 34.1539 67.3303 34.0243 67.2936C33.8948 67.2569 33.7593 67.2461 33.6256 67.2618C33.4919 67.2775 33.3626 67.3194 33.245 67.385C33.1275 67.4507 33.024 67.5388 32.9406 67.6445C32.8571 67.7501 32.7953 67.8712 32.7586 68.0007C32.7219 68.1302 32.7111 68.2657 32.7268 68.3995C32.7425 68.5332 32.7844 68.6625 32.85 68.78L34.02 70.78H31.68C31.4055 70.78 31.1423 70.8891 30.9482 71.0832C30.7541 71.2773 30.645 71.5405 30.645 71.815C30.645 72.0895 30.7541 72.3528 30.9482 72.5469C31.1423 72.741 31.4055 72.85 31.68 72.85H34L32.83 74.85C32.6974 75.0874 32.6645 75.3677 32.7386 75.6293C32.8127 75.8909 32.9876 76.1124 33.225 76.245C33.4624 76.3776 33.7427 76.4105 34.0043 76.3364C34.2659 76.2624 34.4874 76.0874 34.62 75.85L35.78 73.85L36.95 75.85C37.0826 76.0874 37.3041 76.2624 37.5657 76.3364C37.8273 76.4105 38.1077 76.3776 38.345 76.245C38.5824 76.1124 38.7574 75.8909 38.8314 75.6293C38.9055 75.3677 38.8726 75.0874 38.74 74.85L37.57 72.85H39.91C40.1845 72.85 40.4478 72.741 40.6419 72.5469C40.836 72.3528 40.945 72.0895 40.945 71.815C40.945 71.5405 40.836 71.2773 40.6419 71.0832C40.4478 70.8891 40.1845 70.78 39.91 70.78H39.93Z" fill="#4469E4"/>
<path d="M68.3199 70.78H65.9999L67.1699 68.78C67.3025 68.5426 67.3354 68.2623 67.2613 68.0007C67.1872 67.7391 67.0123 67.5176 66.7749 67.385C66.5375 67.2524 66.2572 67.2195 65.9956 67.2936C65.734 67.3677 65.5125 67.5426 65.3799 67.78L64.2099 69.78L63.0399 67.78C62.9743 67.6631 62.8862 67.5603 62.7808 67.4775C62.6754 67.3946 62.5548 67.3334 62.4257 67.2971C62.2966 67.2609 62.1617 67.2505 62.0286 67.2664C61.8955 67.2824 61.7668 67.3244 61.6499 67.39C61.533 67.4557 61.4302 67.5437 61.3474 67.6491C61.2645 67.7545 61.2032 67.8752 61.167 68.0042C61.1308 68.1333 61.1204 68.2683 61.1363 68.4014C61.1523 68.5345 61.1942 68.6631 61.2599 68.78L62.4299 70.78H60.0699C59.7954 70.78 59.5322 70.8891 59.3381 71.0832C59.144 71.2773 59.0349 71.5405 59.0349 71.815C59.0349 72.0895 59.144 72.3528 59.3381 72.5469C59.5322 72.741 59.7954 72.85 60.0699 72.85H62.4099L61.2399 74.85C61.1743 74.9669 61.1323 75.0956 61.1163 75.2287C61.1004 75.3618 61.1108 75.4967 61.147 75.6258C61.1832 75.7549 61.2445 75.8755 61.3274 75.9809C61.4102 76.0863 61.513 76.1744 61.6299 76.24C61.7468 76.3057 61.8755 76.3477 62.0086 76.3636C62.1417 76.3795 62.2766 76.3691 62.4057 76.3329C62.5348 76.2967 62.6554 76.2354 62.7608 76.1525C62.8662 76.0697 62.9543 75.9669 63.0199 75.85L64.1899 73.85L65.3599 75.85C65.4925 76.0874 65.714 76.2624 65.9756 76.3364C66.2372 76.4105 66.5175 76.3776 66.7549 76.245C66.9923 76.1124 67.1673 75.8909 67.2413 75.6293C67.3154 75.3677 67.2825 75.0874 67.1499 74.85L65.9799 72.85H68.3199C68.5944 72.85 68.8577 72.741 69.0518 72.5469C69.2459 72.3528 69.3549 72.0895 69.3549 71.815C69.3549 71.5405 69.2459 71.2773 69.0518 71.0832C68.8577 70.8891 68.5944 70.78 68.3199 70.78Z" fill="#4469E4"/>
<path d="M27.5599 64.93H24.1899L25.8799 62C26.0677 61.6585 26.1142 61.257 26.0095 60.8815C25.9047 60.5061 25.657 60.1867 25.3195 59.9918C24.9819 59.7969 24.5815 59.7419 24.2039 59.8388C23.8264 59.9357 23.5019 60.1767 23.2999 60.51L21.6099 63.44L19.9199 60.51C19.8312 60.3246 19.705 60.1595 19.5494 60.0252C19.3937 59.8909 19.212 59.7902 19.0155 59.7295C18.8191 59.6689 18.6122 59.6495 18.408 59.6727C18.2037 59.6959 18.0064 59.7611 17.8286 59.8642C17.6507 59.9673 17.4961 60.1061 17.3745 60.2719C17.2529 60.4376 17.1669 60.6268 17.1219 60.8274C17.077 61.028 17.074 61.2357 17.1133 61.4375C17.1525 61.6394 17.2331 61.8309 17.3499 62L18.9999 64.93H15.6599C15.2621 64.93 14.8806 65.0881 14.5993 65.3694C14.3179 65.6507 14.1599 66.0322 14.1599 66.43C14.1599 66.8278 14.3179 67.2094 14.5993 67.4907C14.8806 67.772 15.2621 67.93 15.6599 67.93H18.9999L17.3199 70.86C17.2227 71.0288 17.1597 71.215 17.1345 71.4081C17.1093 71.6012 17.1224 71.7974 17.173 71.9854C17.2236 72.1734 17.3108 72.3497 17.4295 72.504C17.5482 72.6584 17.6962 72.7878 17.8649 72.885C18.0337 72.9822 18.2199 73.0452 18.413 73.0704C18.6061 73.0956 18.8022 73.0825 18.9903 73.0319C19.1783 72.9813 19.3546 72.8942 19.5089 72.7754C19.6633 72.6567 19.7927 72.5088 19.8899 72.34L21.5799 69.42L23.2699 72.34C23.4785 72.6568 23.8001 72.8821 24.1691 72.97C24.5381 73.0579 24.9267 73.0017 25.2557 72.813C25.5847 72.6242 25.8294 72.3171 25.9398 71.9542C26.0502 71.5914 26.0181 71.2 25.8499 70.86L24.1899 67.9H27.5599C27.9577 67.9 28.3393 67.742 28.6206 67.4607C28.9019 67.1794 29.0599 66.7978 29.0599 66.4C29.0599 66.0022 28.9019 65.6207 28.6206 65.3394C28.3393 65.0581 27.9577 64.9 27.5599 64.9V64.93Z" fill="#4469E4"/>
<path d="M84.3399 64.93H80.9999L82.6499 62C82.7668 61.8309 82.8473 61.6394 82.8866 61.4375C82.9258 61.2357 82.9229 61.028 82.8779 60.8274C82.8329 60.6268 82.747 60.4376 82.6254 60.2719C82.5037 60.1061 82.3492 59.9673 82.1713 59.8642C81.9934 59.7611 81.7962 59.6959 81.5919 59.6727C81.3876 59.6495 81.1807 59.6689 80.9843 59.7295C80.7879 59.7902 80.6061 59.8909 80.4505 60.0252C80.2948 60.1595 80.1687 60.3246 80.0799 60.51L78.3899 63.44L76.6999 60.51C76.498 60.1767 76.1734 59.9357 75.7959 59.8388C75.4184 59.7419 75.0179 59.7969 74.6804 59.9918C74.3429 60.1867 74.0952 60.5061 73.9904 60.8815C73.8856 61.257 73.9321 61.6585 74.1199 62L75.8099 64.93H72.4299C72.0321 64.93 71.6506 65.0881 71.3693 65.3694C71.088 65.6507 70.9299 66.0322 70.9299 66.43C70.9299 66.8278 71.088 67.2094 71.3693 67.4907C71.6506 67.772 72.0321 67.93 72.4299 67.93H75.8099L74.1199 70.86C74.0081 71.0299 73.9322 71.2209 73.8969 71.4212C73.8616 71.6215 73.8677 71.8269 73.9149 72.0247C73.962 72.2226 74.0491 72.4087 74.1709 72.5716C74.2927 72.7345 74.4465 72.8708 74.6229 72.972C74.7993 73.0732 74.9946 73.1372 75.1967 73.1601C75.3988 73.1829 75.6035 73.1642 75.798 73.105C75.9926 73.0458 76.173 72.9474 76.3281 72.8158C76.4832 72.6843 76.6098 72.5223 76.6999 72.34L78.3899 69.42L80.0799 72.34C80.1771 72.5088 80.3066 72.6567 80.4609 72.7754C80.6153 72.8942 80.7915 72.9813 80.9796 73.0319C81.1676 73.0825 81.3638 73.0956 81.5569 73.0704C81.7499 73.0452 81.9362 72.9822 82.1049 72.885C82.2737 72.7878 82.4216 72.6584 82.5404 72.504C82.6591 72.3497 82.7462 72.1734 82.7968 71.9854C82.8474 71.7974 82.8605 71.6012 82.8353 71.4081C82.8101 71.215 82.7471 71.0288 82.6499 70.86L80.9999 67.9H84.3699C84.7678 67.9 85.1493 67.742 85.4306 67.4607C85.7119 67.1794 85.8699 66.7978 85.8699 66.4C85.8699 66.0022 85.7119 65.6207 85.4306 65.3394C85.1493 65.0581 84.7678 64.9 84.3699 64.9L84.3399 64.93Z" fill="#4469E4"/>
<path d="M56 78.46H52.5801L54.2701 75.53C54.4382 75.19 54.4703 74.7987 54.3599 74.4358C54.2495 74.0729 54.0049 73.7658 53.6758 73.577C53.3468 73.3883 52.9582 73.3322 52.5892 73.42C52.2202 73.5079 51.8987 73.7332 51.69 74.05L50 77L48.3101 74.08C48.2199 73.8977 48.0934 73.7358 47.9383 73.6042C47.7831 73.4726 47.6027 73.3742 47.4082 73.315C47.2136 73.2558 47.0089 73.2371 46.8068 73.2599C46.6047 73.2828 46.4095 73.3468 46.233 73.448C46.0566 73.5492 45.9028 73.6855 45.781 73.8484C45.6592 74.0113 45.5721 74.1974 45.525 74.3953C45.4779 74.5931 45.4717 74.7985 45.507 74.9989C45.5423 75.1992 45.6182 75.3901 45.73 75.56L47.42 78.49H44.05C43.6522 78.49 43.2707 78.648 42.9894 78.9293C42.7081 79.2106 42.55 79.5922 42.55 79.99C42.55 80.3878 42.7081 80.7693 42.9894 81.0506C43.2707 81.332 43.6522 81.49 44.05 81.49H47.42L45.73 84.41C45.5422 84.7515 45.4957 85.1531 45.6005 85.5285C45.7053 85.9039 45.953 86.2233 46.2905 86.4182C46.628 86.6132 47.0285 86.6681 47.406 86.5712C47.7836 86.4743 48.1081 86.2334 48.3101 85.9L50 82.92L51.69 85.85C51.892 86.1834 52.2165 86.4243 52.5941 86.5212C52.9716 86.6181 53.3721 86.5632 53.7096 86.3682C54.0471 86.1733 54.2948 85.8539 54.3996 85.4785C54.5044 85.103 54.4579 84.7015 54.2701 84.36L52.5801 81.44H56C56.3979 81.44 56.7794 81.282 57.0607 81.0007C57.342 80.7193 57.5 80.3378 57.5 79.94C57.5 79.5422 57.342 79.1606 57.0607 78.8793C56.7794 78.598 56.3979 78.44 56 78.44V78.46Z" fill="#4469E4"/>
</svg>
