<svg width="100" height="100" viewBox="0 0 100 100" fill="none" xmlns="http://www.w3.org/2000/svg">
<rect width="100" height="100" fill="white"/>
<path d="M71.2201 26.16C70.4472 26.1578 69.6752 26.2113 68.9101 26.32C66.751 23.3631 63.9243 20.9577 60.6601 19.2994C57.3959 17.6411 53.7864 16.7768 50.1251 16.7768C46.4638 16.7768 42.8542 17.6411 39.59 19.2994C36.3258 20.9577 33.4992 23.3631 31.3401 26.32C30.565 26.2098 29.7829 26.1564 29.0001 26.16C26.8438 26.16 24.7086 26.5847 22.7164 27.4099C20.7242 28.2351 18.9141 29.4446 17.3894 30.9693C15.8646 32.494 14.6552 34.3042 13.83 36.2963C13.0048 38.2885 12.5801 40.4237 12.5801 42.58C12.5801 44.7363 13.0048 46.8715 13.83 48.8637C14.6552 50.8558 15.8646 52.666 17.3894 54.1907C18.9141 55.7154 20.7242 56.9249 22.7164 57.7501C24.7086 58.5753 26.8438 59 29.0001 59C30.9899 59.0005 32.9629 58.6344 34.8201 57.92C36.6204 59.459 38.6433 60.7165 40.8201 61.65L44.4901 58C41.0829 56.9253 38.0539 54.899 35.7601 52.16C34.0963 53.3309 32.1561 54.048 30.1308 54.2409C28.1054 54.4337 26.0648 54.0955 24.2099 53.2597C22.3551 52.4238 20.75 51.1191 19.5528 49.4741C18.3556 47.8292 17.6077 45.9007 17.3827 43.8786C17.1577 41.8566 17.4634 39.8109 18.2697 37.9429C19.0759 36.075 20.355 34.4494 21.9807 33.2262C23.6065 32.0031 25.5229 31.2246 27.541 30.9675C29.5592 30.7104 31.6096 30.9835 33.4901 31.76C35.0388 28.6768 37.4141 26.0848 40.3507 24.2736C43.2874 22.4623 46.6698 21.5032 50.1201 21.5032C53.5704 21.5032 56.9527 22.4623 59.8894 24.2736C62.8261 26.0848 65.2014 28.6768 66.7501 31.76C68.1687 31.1776 69.6866 30.8754 71.2201 30.87C73.0647 30.8644 74.8846 31.2943 76.5317 32.1247C78.1789 32.9551 79.6067 34.1626 80.6992 35.649C81.7916 37.1353 82.5178 38.8585 82.8187 40.6784C83.1195 42.4984 82.9866 44.3636 82.4306 46.1225C81.8746 47.8813 80.9113 49.4841 79.619 50.8004C78.3268 52.1167 76.742 53.1095 74.9938 53.6978C73.2455 54.2862 71.383 54.4535 69.5578 54.1863C67.7327 53.9191 65.9963 53.2248 64.4901 52.16C62.9499 53.9689 61.0886 55.4776 59.0001 56.61L57.0001 62.52C60.0871 61.5741 62.9441 59.9975 65.3901 57.89C67.2485 58.6158 69.225 58.9922 71.2201 59C75.5008 58.8943 79.5707 57.1195 82.561 54.0545C85.5512 50.9895 87.225 46.8771 87.225 42.595C87.225 38.3129 85.5512 34.2005 82.561 31.1355C79.5707 28.0705 75.5008 26.2957 71.2201 26.19V26.16Z" fill="#4469E4"/>
<path d="M68.71 71.2C68.71 72.4439 69.2041 73.6368 70.0836 74.5163C70.9632 75.3959 72.1561 75.89 73.4 75.89C74.6438 75.89 75.8367 75.3959 76.7163 74.5163C77.5958 73.6368 78.09 72.4439 78.09 71.2C78.09 68.61 73.4 61.82 73.4 61.82C73.4 61.82 68.71 68.61 68.71 71.2Z" fill="#4469E4"/>
<path d="M20.76 71.56C20.8072 72.4312 21.1866 73.2511 21.8199 73.851C22.4533 74.451 23.2926 74.7854 24.165 74.7854C25.0374 74.7854 25.8767 74.451 26.5101 73.851C27.1435 73.2511 27.5228 72.4312 27.57 71.56C27.57 69.68 24.16 64.75 24.16 64.75C24.16 64.75 20.76 69.68 20.76 71.56Z" fill="#4469E4"/>
<path d="M53.56 47.52C53.0773 47.3988 52.5663 47.4738 52.1389 47.7288C51.7115 47.9837 51.4026 48.3977 51.28 48.88L44.47 76.15C44.4101 76.3883 44.3977 76.6362 44.4337 76.8793C44.4696 77.1224 44.5531 77.3561 44.6794 77.5669C44.8057 77.7777 44.9724 77.9616 45.1698 78.108C45.3672 78.2544 45.5916 78.3604 45.83 78.42C45.9801 78.4595 46.1347 78.4797 46.29 78.48C46.7076 78.4776 47.1127 78.337 47.442 78.0801C47.7712 77.8232 48.0061 77.4645 48.11 77.06L54.92 49.79C54.9799 49.5516 54.9922 49.3038 54.9563 49.0607C54.9204 48.8176 54.8368 48.5839 54.7105 48.3731C54.5842 48.1623 54.4176 47.9784 54.2202 47.832C54.0228 47.6856 53.7984 47.5796 53.56 47.52Z" fill="#4469E4"/>
<path d="M62.5199 66.85C62.0386 66.7251 61.5274 66.796 61.0982 67.0471C60.669 67.2983 60.3568 67.7092 60.2299 68.19L57.4399 78.89C57.315 79.3713 57.3859 79.8825 57.637 80.3117C57.8882 80.7409 58.2991 81.0531 58.7799 81.18C58.9337 81.2186 59.0914 81.2387 59.2499 81.24C59.6653 81.2405 60.0692 81.1034 60.3985 80.8502C60.7278 80.5969 60.9639 80.2417 61.0699 79.84L63.8599 69.14C63.9848 68.6587 63.914 68.1475 63.6628 67.7183C63.4117 67.2891 63.0007 66.9769 62.5199 66.85Z" fill="#4469E4"/>
<path d="M36.4101 67.21C36.1724 67.1483 35.9248 67.134 35.6816 67.1679C35.4384 67.2018 35.2042 67.2833 34.9925 67.4078C34.7808 67.5322 34.5957 67.6971 34.4477 67.8931C34.2997 68.0891 34.1918 68.3123 34.1301 68.55L31.3301 79.26C31.2051 79.7413 31.276 80.2525 31.5272 80.6817C31.7783 81.1109 32.1893 81.4231 32.6701 81.55C32.827 81.5893 32.9882 81.6095 33.1501 81.61C33.5706 81.6172 33.9814 81.4832 34.3168 81.2294C34.6521 80.9756 34.8927 80.6167 35.0001 80.21L37.8001 69.5C37.8611 69.2583 37.8735 69.0069 37.8365 68.7604C37.7995 68.5138 37.7138 68.2771 37.5844 68.064C37.4551 67.8509 37.2846 67.6657 37.083 67.519C36.8814 67.3724 36.6527 67.2674 36.4101 67.21Z" fill="#4469E4"/>
</svg>
