<svg width="100" height="100" viewBox="0 0 100 100" fill="none" xmlns="http://www.w3.org/2000/svg">
<rect width="100" height="100" fill="white"/>
<path d="M71.09 27.79C70.317 27.7919 69.545 27.8487 68.78 27.96C66.622 25.0032 63.7963 22.5977 60.5329 20.9394C57.2695 19.2811 53.6606 18.4167 50 18.4167C46.3395 18.4167 42.7306 19.2811 39.4672 20.9394C36.2038 22.5977 33.3781 25.0032 31.22 27.96C30.4551 27.8483 29.6831 27.7915 28.91 27.79C26.7216 27.736 24.5445 28.1203 22.5069 28.9205C20.4693 29.7206 18.6124 30.9203 17.0455 32.449C15.4786 33.9777 14.2333 35.8045 13.3832 37.8217C12.533 39.839 12.095 42.0059 12.095 44.195C12.095 46.3841 12.533 48.551 13.3832 50.5683C14.2333 52.5855 15.4786 54.4123 17.0455 55.941C18.6124 57.4697 20.4693 58.6694 22.5069 59.4695C24.5445 60.2697 26.7216 60.654 28.91 60.6C30.896 60.6031 32.8655 60.2404 34.72 59.53C36.5186 61.0687 38.542 62.3232 40.72 63.25L44.37 59.61C40.9655 58.524 37.9362 56.4999 35.63 53.77C33.9662 54.9409 32.0261 55.6581 30.0007 55.8509C27.9754 56.0437 25.9348 55.7056 24.0799 54.8697C22.225 54.0338 20.6199 52.7291 19.4228 51.0842C18.2256 49.4392 17.4777 47.5107 17.2527 45.4886C17.0277 43.4666 17.3334 41.4209 18.1396 39.5529C18.9459 37.685 20.2249 36.0594 21.8507 34.8362C23.4764 33.6131 25.3928 32.8346 27.411 32.5775C29.4292 32.3204 31.4795 32.5935 33.36 33.37C34.9103 30.2872 37.2868 27.6958 40.2242 25.8851C43.1616 24.0743 46.5444 23.1155 49.995 23.1155C53.4457 23.1155 56.8285 24.0743 59.7659 25.8851C62.7033 27.6958 65.0797 30.2872 66.63 33.37C68.5138 32.5841 70.57 32.3033 72.5956 32.5554C74.6211 32.8075 76.5457 33.5838 78.1794 34.8076C79.813 36.0313 81.099 37.6602 81.9103 39.5332C82.7216 41.4062 83.0301 43.4584 82.8054 45.4872C82.5806 47.5159 81.8304 49.4509 80.6288 51.1009C79.4272 52.7508 77.8158 54.0587 75.954 54.8952C74.0921 55.7318 72.0442 56.068 70.0126 55.8706C67.981 55.6733 66.0361 54.9492 64.37 53.77C62.8251 55.5941 60.953 57.1135 58.85 58.25L56.85 64.15C59.9389 63.2062 62.7989 61.6332 65.25 59.53C67.1043 60.2413 69.074 60.6041 71.06 60.6C73.2484 60.654 75.4256 60.2697 77.4632 59.4695C79.5008 58.6694 81.3577 57.4697 82.9246 55.941C84.4915 54.4123 85.7367 52.5855 86.5869 50.5683C87.4371 48.551 87.8751 46.3841 87.8751 44.195C87.8751 42.0059 87.4371 39.839 86.5869 37.8217C85.7367 35.8045 84.4915 33.9777 82.9246 32.449C81.3577 30.9203 79.5008 29.7206 77.4632 28.9205C75.4256 28.1203 73.2484 27.736 71.06 27.79H71.09Z" fill="#4469E4"/>
<path d="M27 74.79C27.0473 75.6638 27.4277 76.4861 28.063 77.0879C28.6982 77.6897 29.54 78.0251 30.415 78.0251C31.29 78.0251 32.1318 77.6897 32.767 77.0879C33.4023 76.4861 33.7827 75.6638 33.83 74.79C33.82 72.9 30.4 68 30.4 68C30.4 68 27 72.9 27 74.79Z" fill="#4469E4"/>
<path d="M59.0699 75.42C59.0407 76.0534 59.1402 76.6862 59.3624 77.2802C59.5846 77.8741 59.925 78.4167 60.3629 78.8754C60.8009 79.334 61.3272 79.6991 61.9103 79.9485C62.4933 80.1979 63.1208 80.3265 63.7549 80.3265C64.3891 80.3265 65.0166 80.1979 65.5996 79.9485C66.1826 79.6991 66.709 79.334 67.147 78.8754C67.5849 78.4167 67.9252 77.8741 68.1475 77.2802C68.3697 76.6862 68.4692 76.0534 68.4399 75.42C68.4399 72.83 63.7499 66.05 63.7499 66.05C63.7499 66.05 59.0699 72.83 59.0699 75.42Z" fill="#4469E4"/>
<path d="M53.07 49.71C52.8316 49.6487 52.5834 49.6354 52.3398 49.6707C52.0962 49.706 51.8621 49.7894 51.6509 49.9159C51.4398 50.0424 51.2559 50.2095 51.1098 50.4076C50.9637 50.6058 50.8584 50.8309 50.8 51.07L44 78.33C43.8788 78.8127 43.9538 79.3237 44.2088 79.7511C44.4637 80.1785 44.8777 80.4874 45.36 80.61C45.5127 80.6291 45.6673 80.6291 45.82 80.61C46.2381 80.6094 46.644 80.4694 46.9736 80.2122C47.3032 79.9551 47.5377 79.5954 47.64 79.19L54.43 52C54.4929 51.7603 54.5075 51.5105 54.473 51.2651C54.4385 51.0197 54.3556 50.7836 54.2291 50.5705C54.1025 50.3574 53.9349 50.1716 53.7359 50.0239C53.5369 49.8762 53.3106 49.7695 53.07 49.71Z" fill="#4469E4"/>
</svg>
