<svg width="100" height="100" viewBox="0 0 100 100" fill="none" xmlns="http://www.w3.org/2000/svg">
<rect width="100" height="100" fill="white"/>
<path fill-rule="evenodd" clip-rule="evenodd" d="M60.52 67.71C60.52 69.9458 61.4082 72.09 62.9891 73.6709C64.57 75.2518 66.7142 76.14 68.95 76.14C71.1858 76.14 73.33 75.2518 74.9109 73.6709C76.4919 72.09 77.38 69.9458 77.38 67.71C77.38 63.05 68.95 50.85 68.95 50.85C68.95 50.85 60.52 63.05 60.52 67.71Z" fill="#4469E4"/>
<path fill-rule="evenodd" clip-rule="evenodd" d="M44.71 49.7C44.2258 49.9793 43.6507 50.055 43.1107 49.9107C42.5708 49.7663 42.1102 49.4136 41.83 48.93L29.18 27C29.0455 26.7585 28.9601 26.4928 28.9285 26.2182C28.897 25.9436 28.9199 25.6654 28.9961 25.3997C29.0723 25.134 29.2002 24.886 29.3725 24.6698C29.5447 24.4536 29.758 24.2736 30 24.14C30.4841 23.8607 31.0593 23.785 31.5992 23.9293C32.1392 24.0737 32.5998 24.4264 32.88 24.91L45.48 46.82C45.7566 47.3048 45.8308 47.879 45.6867 48.4182C45.5425 48.9574 45.1916 49.418 44.71 49.7Z" fill="#4469E4"/>
<path fill-rule="evenodd" clip-rule="evenodd" d="M52.0901 36.92C52.0797 37.4702 51.8559 37.9947 51.4659 38.3829C51.0759 38.771 50.5503 38.9923 50.0001 39H24.6801C24.1213 38.9974 23.5861 38.7743 23.191 38.3791C22.7958 37.984 22.5727 37.4488 22.5701 36.89C22.5701 36.3304 22.7924 35.7937 23.1881 35.398C23.5838 35.0023 24.1205 34.78 24.6801 34.78H50.0001C50.5597 34.78 51.0964 35.0023 51.4921 35.398C51.8878 35.7937 52.1101 36.3304 52.1101 36.89L52.0901 36.92Z" fill="#4469E4"/>
<path fill-rule="evenodd" clip-rule="evenodd" d="M44.71 24.14C45.1863 24.4219 45.5334 24.8788 45.6773 25.4132C45.8212 25.9476 45.7504 26.5171 45.48 27L32.83 48.93C32.5502 49.4003 32.0987 49.7434 31.5707 49.8871C31.0427 50.0307 30.4795 49.9637 30 49.7C29.7596 49.5622 29.5488 49.3782 29.3798 49.1586C29.2108 48.939 29.0869 48.6881 29.0153 48.4203C28.9438 48.1526 28.9259 47.8734 28.9627 47.5987C28.9996 47.324 29.0904 47.0594 29.23 46.82L41.83 24.91C42.1102 24.4264 42.5708 24.0737 43.1108 23.9293C43.6507 23.785 44.2259 23.8607 44.71 24.14Z" fill="#4469E4"/>
<path d="M33.5199 74.19C33.3813 74.3303 33.2162 74.4417 33.0343 74.5177C32.8523 74.5937 32.6571 74.6329 32.4599 74.6329C32.2627 74.6329 32.0675 74.5937 31.8855 74.5177C31.7035 74.4417 31.5385 74.3303 31.3999 74.19C31.2596 74.0514 31.1482 73.8864 31.0722 73.7044C30.9962 73.5224 30.957 73.3272 30.957 73.13C30.957 72.9328 30.9962 72.7376 31.0722 72.5556C31.1482 72.3736 31.2596 72.2086 31.3999 72.07L74.8699 28.6C75.0085 28.4597 75.1735 28.3483 75.3555 28.2723C75.5375 28.1963 75.7327 28.1571 75.9299 28.1571C76.1271 28.1571 76.3223 28.1963 76.5043 28.2723C76.6862 28.3483 76.8513 28.4597 76.9899 28.6C77.1302 28.7386 77.2416 28.9036 77.3176 29.0856C77.3936 29.2676 77.4328 29.4628 77.4328 29.66C77.4328 29.8572 77.3936 30.0524 77.3176 30.2344C77.2416 30.4164 77.1302 30.5814 76.9899 30.72L33.5199 74.19Z" fill="#4469E4"/>
</svg>
