<svg width="100" height="100" viewBox="0 0 100 100" fill="none" xmlns="http://www.w3.org/2000/svg">
<rect width="100" height="100" fill="white"/>
<path d="M71.09 26.16C70.3172 26.1586 69.5453 26.212 68.78 26.32C66.622 23.3632 63.7963 20.9577 60.5329 19.2994C57.2695 17.6411 53.6606 16.7767 50 16.7767C46.3395 16.7767 42.7306 17.6411 39.4672 19.2994C36.2038 20.9577 33.3781 23.3632 31.22 26.32C30.4548 26.2117 29.6829 26.1582 28.91 26.16C26.7216 26.106 24.5445 26.4903 22.5069 27.2905C20.4693 28.0906 18.6124 29.2904 17.0455 30.8191C15.4786 32.3477 14.2333 34.1745 13.3832 36.1917C12.533 38.209 12.095 40.3759 12.095 42.565C12.095 44.7541 12.533 46.9211 13.3832 48.9383C14.2333 50.9555 15.4786 52.7823 17.0455 54.311C18.6124 55.8397 20.4693 57.0394 22.5069 57.8395C24.5445 58.6397 26.7216 59.0241 28.91 58.97C30.8966 58.9697 32.8661 58.6036 34.72 57.89C36.5208 59.4283 38.5436 60.6859 40.72 61.62L44.37 58C40.9612 56.923 37.9296 54.8973 35.63 52.16C33.9662 53.3309 32.0261 54.0481 30.0007 54.2409C27.9754 54.4337 25.9348 54.0956 24.0799 53.2597C22.225 52.4239 20.6199 51.1192 19.4228 49.4742C18.2256 47.8292 17.4777 45.9007 17.2527 43.8787C17.0277 41.8566 17.3334 39.8109 18.1396 37.943C18.9459 36.075 20.2249 34.4494 21.8507 33.2263C23.4764 32.0031 25.3928 31.2246 27.411 30.9675C29.4292 30.7104 31.4795 30.9835 33.36 31.76C34.9103 28.6772 37.2868 26.0858 40.2242 24.2751C43.1616 22.4644 46.5444 21.5055 49.995 21.5055C53.4457 21.5055 56.8285 22.4644 59.7659 24.2751C62.7033 26.0858 65.0797 28.6772 66.63 31.76C68.0454 31.1787 69.5599 30.8764 71.09 30.87C72.9351 30.8629 74.7557 31.2914 76.4039 32.1208C78.052 32.9502 79.481 34.1569 80.5747 35.6429C81.6683 37.1289 82.3957 38.8521 82.6976 40.6723C82.9995 42.4925 82.8673 44.3582 82.312 46.1177C81.7566 47.8772 80.7937 49.4807 79.5016 50.7977C78.2094 52.1147 76.6246 53.1081 74.8761 53.697C73.1275 54.2859 71.2646 54.4536 69.439 54.1865C67.6134 53.9194 65.8766 53.2251 64.37 52.16C62.8251 53.9841 60.953 55.5035 58.85 56.64L56.85 62.55C59.9411 61.6065 62.8018 60.0297 65.25 57.92C67.1131 58.6382 69.0933 59.0044 71.09 59C73.2784 59.0541 75.4556 58.6697 77.4932 57.8695C79.5308 57.0694 81.3877 55.8697 82.9546 54.341C84.5215 52.8123 85.7667 50.9855 86.6169 48.9683C87.4671 46.9511 87.9051 44.7841 87.9051 42.595C87.9051 40.4059 87.4671 38.239 86.6169 36.2217C85.7667 34.2045 84.5215 32.3777 82.9546 30.8491C81.3877 29.3204 79.5308 28.1206 77.4932 27.3205C75.4556 26.5203 73.2784 26.136 71.09 26.19V26.16Z" fill="#4469E4"/>
<path d="M56 78.53C56 79.7739 56.4941 80.9668 57.3737 81.8463C58.2532 82.7259 59.4461 83.22 60.69 83.22C61.9339 83.22 63.1268 82.7259 64.0063 81.8463C64.8859 80.9668 65.38 79.7739 65.38 78.53C65.38 75.94 60.69 69.16 60.69 69.16C60.69 69.16 56 75.94 56 78.53Z" fill="#4469E4"/>
<path d="M68.5901 71.2C68.5901 72.4439 69.0842 73.6368 69.9638 74.5163C70.8433 75.3959 72.0362 75.89 73.2801 75.89C74.524 75.89 75.7169 75.3959 76.5964 74.5163C77.476 73.6368 77.9701 72.4439 77.9701 71.2C77.9701 68.61 73.2801 61.82 73.2801 61.82C73.2801 61.82 68.5901 68.61 68.5901 71.2Z" fill="#4469E4"/>
<path d="M29.8 76.89C29.8473 77.7612 30.2266 78.5811 30.86 79.1811C31.4934 79.781 32.3326 80.1154 33.2051 80.1154C34.0775 80.1154 34.9167 79.781 35.5501 79.1811C36.1835 78.5811 36.5628 77.7612 36.6101 76.89C36.6101 75 33.21 70.08 33.21 70.08C33.21 70.08 29.8 75 29.8 76.89Z" fill="#4469E4"/>
<path d="M20.6399 71.56C20.6399 72.4617 20.9981 73.3265 21.6357 73.9642C22.2734 74.6018 23.1382 74.96 24.0399 74.96C24.9416 74.96 25.8064 74.6018 26.4441 73.9642C27.0817 73.3265 27.4399 72.4617 27.4399 71.56C27.4399 69.68 24.0399 64.75 24.0399 64.75C24.0399 64.75 20.6399 69.68 20.6399 71.56Z" fill="#4469E4"/>
<path d="M53.0701 48.07C52.8317 48.0087 52.5835 47.9953 52.3399 48.0307C52.0963 48.066 51.8621 48.1494 51.651 48.2759C51.4398 48.4024 51.2559 48.5695 51.1098 48.7676C50.9638 48.9657 50.8585 49.1909 50.8001 49.43L44.0001 76.7C43.9147 77.1697 44.0112 77.6543 44.27 78.0555C44.5288 78.4567 44.9306 78.7444 45.3938 78.8601C45.8569 78.9759 46.3468 78.9112 46.764 78.679C47.1811 78.4468 47.4944 78.0646 47.6401 77.61L54.4501 50.34C54.5097 50.1003 54.5212 49.8512 54.484 49.607C54.4467 49.3628 54.3615 49.1284 54.2332 48.9174C54.1049 48.7063 53.936 48.5227 53.7364 48.3773C53.5368 48.2319 53.3103 48.1274 53.0701 48.07Z" fill="#4469E4"/>
</svg>
