<svg width="100" height="100" viewBox="0 0 100 100" fill="none" xmlns="http://www.w3.org/2000/svg">
<rect width="100" height="100" fill="white"/>
<path fill-rule="evenodd" clip-rule="evenodd" d="M71.0499 23.57C70.2768 23.5712 69.5048 23.628 68.7399 23.74C66.5709 20.7913 63.7367 18.3959 60.4679 16.7485C57.199 15.101 53.5875 14.248 49.927 14.2587C46.2665 14.2694 42.6601 15.1436 39.4009 16.8101C36.1417 18.4767 33.3217 20.8886 31.1699 23.85C30.4042 23.7466 29.6326 23.6932 28.8599 23.69C24.5077 23.7086 20.3411 25.4553 17.2768 28.5459C14.2125 31.6365 12.5014 35.8178 12.5199 40.17C12.5385 44.5222 14.2852 48.6888 17.3758 51.7531C20.4664 54.8175 24.6477 56.5286 28.9999 56.51C30.991 56.5039 32.9639 56.131 34.8199 55.41C39.0521 59.1128 44.4886 61.1462 50.1119 61.1297C55.7352 61.1131 61.1597 59.0477 65.3699 55.32C67.2272 56.032 69.2009 56.3915 71.1899 56.38C75.4708 56.2632 79.5365 54.4775 82.5188 51.4043C85.5012 48.331 87.1641 44.2136 87.1523 39.9311C87.1406 35.6486 85.4552 31.5404 82.456 28.4835C79.4568 25.4266 75.3814 23.6633 71.0999 23.57H71.0499ZM71.1299 51.7C68.7183 51.696 66.3659 50.9526 64.3899 49.57C62.6614 51.7122 60.4765 53.4417 57.9947 54.6324C55.5129 55.8231 52.7966 56.4449 50.044 56.4526C47.2913 56.4602 44.5717 55.8535 42.0833 54.6767C39.5948 53.4999 37.4004 51.7826 35.6599 49.65C33.9988 50.8309 32.0585 51.5582 30.0305 51.7602C28.0025 51.9621 25.9569 51.6318 24.0955 50.8017C22.2342 49.9716 20.6215 48.6704 19.4166 47.0267C18.2117 45.3829 17.4563 43.4534 17.2249 41.4285C16.9935 39.4036 17.2941 37.3534 18.0971 35.4802C18.9001 33.607 20.1777 31.9755 21.8038 30.7469C23.4299 29.5183 25.3483 28.735 27.3696 28.4742C29.3909 28.2134 31.4453 28.4843 33.3299 29.26C34.8709 26.1725 37.2396 23.574 40.1715 21.7544C43.1035 19.9348 46.4834 18.9657 49.9341 18.9554C53.3848 18.945 56.7705 19.8937 59.7133 21.6956C62.6562 23.4976 65.0404 26.0818 66.5999 29.16C68.1996 28.4941 69.927 28.1912 71.6578 28.2731C73.3886 28.355 75.0797 28.8197 76.6093 29.6336C78.139 30.4476 79.4691 31.5906 80.504 32.9803C81.5388 34.3701 82.2527 35.972 82.5941 37.6708C82.9355 39.3695 82.896 41.1228 82.4784 42.8045C82.0608 44.4862 81.2756 46.0543 80.1792 47.396C79.0827 48.7378 77.7025 49.8197 76.1377 50.5639C74.573 51.3081 72.8626 51.6961 71.1299 51.7Z" fill="#4469E4"/>
<path fill-rule="evenodd" clip-rule="evenodd" d="M45.4299 81.07C45.4299 82.3139 45.9241 83.5068 46.8036 84.3863C47.6831 85.2659 48.8761 85.76 50.1199 85.76C51.3638 85.76 52.5567 85.2659 53.4363 84.3863C54.3158 83.5068 54.8099 82.3139 54.8099 81.07C54.8099 78.48 50.0899 71.71 50.0899 71.71C50.0899 71.71 45.4299 78.48 45.4299 81.07Z" fill="#4469E4"/>
<path fill-rule="evenodd" clip-rule="evenodd" d="M63.4601 70.47C63.4308 71.1034 63.5303 71.7362 63.7525 72.3302C63.9748 72.9241 64.3151 73.4667 64.7531 73.9254C65.191 74.384 65.7174 74.7491 66.3004 74.9985C66.8834 75.2479 67.5109 75.3765 68.1451 75.3765C68.7792 75.3765 69.4067 75.2479 69.9898 74.9985C70.5728 74.7491 71.0992 74.384 71.5371 73.9254C71.975 73.4667 72.3154 72.9241 72.5376 72.3302C72.7599 71.7362 72.8594 71.1034 72.8301 70.47C72.8301 67.88 68.1201 61.11 68.1201 61.11C68.1201 61.11 63.4501 67.88 63.4601 70.47Z" fill="#4469E4"/>
<path fill-rule="evenodd" clip-rule="evenodd" d="M27.35 70.57C27.3207 71.2035 27.4202 71.8363 27.6424 72.4302C27.8647 73.0241 28.205 73.5668 28.643 74.0254C29.0809 74.484 29.6073 74.8491 30.1903 75.0985C30.7733 75.3479 31.4008 75.4765 32.035 75.4765C32.6691 75.4765 33.2966 75.3479 33.8797 75.0985C34.4627 74.8491 34.9891 74.484 35.427 74.0254C35.8649 73.5668 36.2053 73.0241 36.4275 72.4302C36.6498 71.8363 36.7492 71.2035 36.72 70.57C36.71 68 32 61.19 32 61.19C32 61.19 27.34 68 27.35 70.57Z" fill="#4469E4"/>
</svg>
