<svg width="100" height="100" viewBox="0 0 100 100" fill="none" xmlns="http://www.w3.org/2000/svg">
<rect width="100" height="100" fill="white"/>
<path fill-rule="evenodd" clip-rule="evenodd" d="M71.09 27.79C70.317 27.7919 69.545 27.8487 68.78 27.96C66.622 25.0032 63.7963 22.5977 60.5329 20.9394C57.2695 19.2811 53.6606 18.4167 50 18.4167C46.3395 18.4167 42.7306 19.2811 39.4672 20.9394C36.2038 22.5977 33.3781 25.0032 31.22 27.96C30.4551 27.8483 29.6831 27.7915 28.91 27.79C26.7216 27.736 24.5445 28.1203 22.5069 28.9205C20.4693 29.7206 18.6124 30.9203 17.0455 32.449C15.4786 33.9777 14.2333 35.8045 13.3832 37.8217C12.533 39.839 12.095 42.0059 12.095 44.195C12.095 46.3841 12.533 48.551 13.3832 50.5683C14.2333 52.5855 15.4786 54.4123 17.0455 55.941C18.6124 57.4697 20.4693 58.6694 22.5069 59.4695C24.5445 60.2697 26.7216 60.654 28.91 60.6C30.896 60.6031 32.8655 60.2404 34.72 59.53C36.5186 61.0687 38.542 62.3232 40.72 63.25L44.37 59.61C40.9655 58.524 37.9362 56.4999 35.63 53.77C33.9662 54.9409 32.0261 55.6581 30.0007 55.8509C27.9754 56.0437 25.9348 55.7056 24.0799 54.8697C22.225 54.0338 20.6199 52.7291 19.4228 51.0842C18.2256 49.4392 17.4777 47.5107 17.2527 45.4886C17.0277 43.4666 17.3334 41.4209 18.1396 39.5529C18.9459 37.685 20.2249 36.0594 21.8507 34.8362C23.4764 33.6131 25.3928 32.8346 27.411 32.5775C29.4292 32.3204 31.4795 32.5935 33.36 33.37C34.9103 30.2872 37.2868 27.6958 40.2242 25.8851C43.1616 24.0743 46.5444 23.1155 49.995 23.1155C53.4457 23.1155 56.8285 24.0743 59.7659 25.8851C62.7033 27.6958 65.0797 30.2872 66.63 33.37C68.5138 32.5841 70.57 32.3033 72.5956 32.5554C74.6211 32.8075 76.5457 33.5838 78.1794 34.8076C79.813 36.0313 81.099 37.6602 81.9103 39.5332C82.7216 41.4062 83.0301 43.4584 82.8054 45.4872C82.5806 47.5159 81.8304 49.4509 80.6288 51.1009C79.4272 52.7508 77.8158 54.0587 75.954 54.8952C74.0921 55.7318 72.0442 56.068 70.0126 55.8706C67.981 55.6733 66.0361 54.9492 64.37 53.77C62.8251 55.5941 60.953 57.1135 58.85 58.25L56.85 64.15C59.9389 63.2062 62.7989 61.6332 65.25 59.53C67.1043 60.2413 69.074 60.6041 71.06 60.6C73.2484 60.654 75.4256 60.2697 77.4632 59.4695C79.5008 58.6694 81.3577 57.4697 82.9246 55.941C84.4915 54.4123 85.7367 52.5855 86.5869 50.5683C87.4371 48.551 87.8751 46.3841 87.8751 44.195C87.8751 42.0059 87.4371 39.839 86.5869 37.8217C85.7367 35.8045 84.4915 33.9777 82.9246 32.449C81.3577 30.9203 79.5008 29.7206 77.4632 28.9205C75.4256 28.1203 73.2484 27.736 71.06 27.79H71.09Z" fill="#4469E4"/>
<path d="M45.8001 80.66C45.6473 80.6791 45.4928 80.6791 45.3401 80.66C45.0976 80.5974 44.8701 80.4871 44.6709 80.3354C44.4717 80.1838 44.3048 79.9939 44.18 79.7768C44.0552 79.5598 43.9749 79.32 43.9441 79.0716C43.9132 78.8231 43.9322 78.571 44.0001 78.33L50.8001 51.07C50.9207 50.5886 51.2277 50.1749 51.6534 49.9198C52.0791 49.6648 52.5887 49.5893 53.0701 49.71C53.5514 49.8307 53.9652 50.1376 54.2202 50.5633C54.4753 50.989 54.5507 51.4986 54.4301 51.98L47.6201 79.24C47.5178 79.6453 47.2833 80.005 46.9537 80.2622C46.6241 80.5194 46.2181 80.6593 45.8001 80.66Z" fill="#4469E4"/>
<path d="M67.71 78.18C67.71 78.5725 67.5541 78.949 67.2766 79.2265C66.999 79.5041 66.6226 79.66 66.23 79.66H54.45C54.0619 79.6547 53.6916 79.4962 53.42 79.2189C53.1483 78.9416 52.9974 78.5682 53 78.18C53 77.7901 53.1549 77.4162 53.4306 77.1406C53.7063 76.8649 54.0802 76.71 54.47 76.71H66.23C66.4239 76.7087 66.6161 76.7457 66.7957 76.819C66.9752 76.8923 67.1384 77.0004 67.276 77.137C67.4135 77.2736 67.5227 77.4361 67.5972 77.6151C67.6717 77.7941 67.71 77.9861 67.71 78.18Z" fill="#4469E4"/>
<path d="M64 84.56C63.6599 84.7479 63.2595 84.7945 62.8853 84.6898C62.5111 84.585 62.1931 84.3372 62 84L56.11 73.8C55.917 73.4641 55.8644 73.0655 55.9636 72.691C56.0629 72.3165 56.306 71.9963 56.64 71.8C56.8067 71.7035 56.9907 71.6409 57.1816 71.6158C57.3725 71.5908 57.5665 71.6037 57.7524 71.6539C57.9383 71.7041 58.1124 71.7905 58.2648 71.9083C58.4171 72.026 58.5446 72.1728 58.64 72.34L64.53 82.54C64.7231 82.876 64.7757 83.2745 64.6765 83.6491C64.5772 84.0236 64.3341 84.3438 64 84.54V84.56Z" fill="#4469E4"/>
<path d="M64.0001 71.81C64.3342 72.0062 64.5773 72.3264 64.6765 72.701C64.7758 73.0755 64.7231 73.4741 64.5301 73.81L58.6701 84C58.4737 84.3338 58.1542 84.5773 57.7803 84.6782C57.4064 84.7792 57.0078 84.7296 56.6701 84.54C56.336 84.3437 56.0929 84.0235 55.9936 83.649C55.8944 83.2745 55.947 82.8759 56.1401 82.54L62.0001 72.35C62.0955 72.1827 62.223 72.036 62.3754 71.9182C62.5277 71.8005 62.7018 71.714 62.8877 71.6638C63.0736 71.6136 63.2676 71.6007 63.4585 71.6258C63.6494 71.6509 63.8335 71.7135 64.0001 71.81Z" fill="#4469E4"/>
<path d="M83.0001 70.63C83.0001 71.0199 82.8452 71.3938 82.5695 71.6695C82.2938 71.9452 81.9199 72.1 81.5301 72.1H69.7901C69.4002 72.1 69.0263 71.9452 68.7506 71.6695C68.4749 71.3938 68.3201 71.0199 68.3201 70.63C68.3201 70.2402 68.4749 69.8663 68.7506 69.5906C69.0263 69.3149 69.4002 69.16 69.7901 69.16H81.5701C81.953 69.1705 82.3167 69.3299 82.5838 69.6045C82.8508 69.879 83.0002 70.247 83.0001 70.63Z" fill="#4469E4"/>
<path d="M79.3599 77C79.1933 77.0965 79.0093 77.1591 78.8184 77.1842C78.6275 77.2093 78.4335 77.1963 78.2476 77.1462C78.0617 77.096 77.8876 77.0095 77.7352 76.8917C77.5829 76.774 77.4553 76.6272 77.3599 76.46L71.4699 66.26C71.2804 65.9223 71.2307 65.5237 71.3317 65.1498C71.4326 64.7758 71.6761 64.4564 72.0099 64.26C72.3477 64.0704 72.7463 64.0208 73.1202 64.1217C73.4941 64.2227 73.8135 64.4662 74.0099 64.8L79.8999 75C79.9965 75.1666 80.0591 75.3507 80.0841 75.5416C80.1092 75.7325 80.0963 75.9265 80.0461 76.1124C79.9959 76.2982 79.9095 76.4724 79.7917 76.6247C79.6739 76.7771 79.5272 76.9046 79.3599 77Z" fill="#4469E4"/>
<path d="M79.3599 64.25C79.5272 64.3454 79.6739 64.4729 79.7917 64.6253C79.9094 64.7776 79.9959 64.9517 80.0461 65.1376C80.0963 65.3235 80.1092 65.5175 80.0841 65.7084C80.059 65.8993 79.9964 66.0834 79.8999 66.25L73.9999 76.46C73.9045 76.6272 73.777 76.774 73.6247 76.8917C73.4723 77.0095 73.2982 77.096 73.1123 77.1462C72.9264 77.1963 72.7324 77.2093 72.5415 77.1842C72.3506 77.1591 72.1666 77.0965 71.9999 77C71.6661 76.8036 71.4226 76.4841 71.3217 76.1102C71.2207 75.7363 71.2704 75.3377 71.4599 75L77.3499 64.8C77.5464 64.4662 77.8658 64.2227 78.2397 64.1217C78.6136 64.0208 79.0122 64.0704 79.3499 64.26L79.3599 64.25Z" fill="#4469E4"/>
<path d="M36.4899 73.5C36.4899 73.8209 36.3624 74.1287 36.1355 74.3556C35.9086 74.5825 35.6008 74.71 35.2799 74.71H25.6099C25.2907 74.7073 24.9855 74.5787 24.7608 74.3521C24.536 74.1254 24.4099 73.8192 24.4099 73.5C24.4099 73.1817 24.5363 72.8765 24.7614 72.6515C24.9864 72.4264 25.2917 72.3 25.6099 72.3H35.2799C35.5991 72.3 35.9054 72.4261 36.132 72.6508C36.3586 72.8756 36.4873 73.1808 36.4899 73.5Z" fill="#4469E4"/>
<path d="M33.47 78.73C33.333 78.8105 33.1814 78.8629 33.024 78.8843C32.8666 78.9057 32.7065 78.8957 32.5531 78.8548C32.3996 78.8138 32.2557 78.7428 32.1299 78.6459C32.0041 78.5489 31.8987 78.428 31.82 78.29L27 69.92C26.9195 69.783 26.8671 69.6314 26.8457 69.474C26.8243 69.3166 26.8343 69.1566 26.8752 69.0031C26.9162 68.8496 26.9872 68.7057 27.0841 68.5799C27.1811 68.4541 27.302 68.3487 27.44 68.27C27.7185 68.111 28.0487 68.0692 28.3581 68.1535C28.6675 68.2379 28.9307 68.4417 29.09 68.72L33.92 77.09C33.9989 77.2265 34.0501 77.3773 34.0706 77.5337C34.0912 77.69 34.0808 77.8489 34.0399 78.0012C33.9991 78.1535 33.9286 78.2963 33.8325 78.4213C33.7364 78.5464 33.6166 78.6513 33.48 78.73H33.47Z" fill="#4469E4"/>
<path d="M33.4699 68.27C33.7466 68.4309 33.9482 68.6949 34.0306 69.0041C34.1131 69.3134 34.0697 69.6427 33.9099 69.92L29.0799 78.29C29.0012 78.428 28.8959 78.5489 28.77 78.6459C28.6442 78.7428 28.5003 78.8138 28.3469 78.8548C28.1934 78.8957 28.0333 78.9057 27.8759 78.8843C27.7185 78.8629 27.5669 78.8105 27.4299 78.73C27.2931 78.6514 27.1733 78.5464 27.0775 78.4211C26.9816 78.2957 26.9117 78.1526 26.8717 78C26.8317 77.8474 26.8224 77.6883 26.8444 77.5321C26.8664 77.3759 26.9193 77.2256 26.9999 77.09L31.8299 68.72C31.9892 68.4417 32.2524 68.2379 32.5618 68.1535C32.8712 68.0692 33.2014 68.111 33.4799 68.27H33.4699Z" fill="#4469E4"/>
</svg>
