<svg width="100" height="100" viewBox="0 0 100 100" fill="none" xmlns="http://www.w3.org/2000/svg">
<rect width="100" height="100" fill="white"/>
<path fill-rule="evenodd" clip-rule="evenodd" d="M40.5701 36.79C40.5701 39.291 41.5636 41.6895 43.3321 43.458C45.1005 45.2265 47.4991 46.22 50.0001 46.22C52.5011 46.22 54.8996 45.2265 56.6681 43.458C58.4366 41.6895 59.4301 39.291 59.4301 36.79C59.4301 31.57 50.0001 17.93 50.0001 17.93C50.0001 17.93 40.5701 31.57 40.5701 36.79Z" fill="#4469E4"/>
<path fill-rule="evenodd" clip-rule="evenodd" d="M18.3301 72.64C18.3301 75.141 19.3236 77.5395 21.0921 79.308C22.8605 81.0765 25.2591 82.07 27.7601 82.07C30.2611 82.07 32.6596 81.0765 34.4281 79.308C36.1966 77.5395 37.1901 75.141 37.1901 72.64C37.1901 67.43 27.7601 53.78 27.7601 53.78C27.7601 53.78 18.3301 67.43 18.3301 72.64Z" fill="#4469E4"/>
<path fill-rule="evenodd" clip-rule="evenodd" d="M72.2401 53.78C72.2401 53.78 62.8101 67.43 62.8101 72.64C62.8101 75.141 63.8036 77.5395 65.572 79.308C67.3405 81.0765 69.7391 82.07 72.2401 82.07C74.741 82.07 77.1396 81.0765 78.9081 79.308C80.6765 77.5395 81.6701 75.141 81.6701 72.64C81.6701 67.43 72.2401 53.78 72.2401 53.78Z" fill="#4469E4"/>
</svg>
