<svg width="100" height="100" viewBox="0 0 100 100" fill="none" xmlns="http://www.w3.org/2000/svg">
<rect width="100" height="100" fill="white"/>
<path d="M70.9999 27.79C70.2269 27.7919 69.4549 27.8487 68.6899 27.96C66.5294 24.9996 63.6997 22.592 60.4316 20.9334C57.1635 19.2748 53.5496 18.4122 49.8847 18.4161C46.2199 18.42 42.6078 19.2902 39.3432 20.9558C36.0787 22.6213 33.2541 25.035 31.0999 28C30.335 27.8883 29.563 27.8315 28.7899 27.83C26.6015 27.776 24.4244 28.1603 22.3868 28.9605C20.3492 29.7606 18.4922 30.9603 16.9253 32.489C15.3584 34.0177 14.1132 35.8445 13.263 37.8617C12.4128 39.8789 11.9749 42.0459 11.9749 44.235C11.9749 46.4241 12.4128 48.591 13.263 50.6083C14.1132 52.6255 15.3584 54.4523 16.9253 55.9809C18.4922 57.5096 20.3492 58.7094 22.3868 59.5095C24.4244 60.3097 26.6015 60.694 28.7899 60.64C30.7759 60.6431 32.7454 60.2804 34.5999 59.57C36.3985 61.1087 38.4219 62.3632 40.5999 63.29L44.2499 59.65C40.8454 58.564 37.8161 56.5398 35.5099 53.81C33.8461 54.9809 31.906 55.698 29.8806 55.8909C27.8553 56.0837 25.8146 55.7455 23.9598 54.9097C22.1049 54.0738 20.4998 52.7691 19.3026 51.1241C18.1055 49.4792 17.3576 47.5506 17.1326 45.5286C16.9076 43.5066 17.2132 41.4609 18.0195 39.5929C18.8258 37.725 20.1048 36.0994 21.7306 34.8762C23.3563 33.6531 25.2727 32.8746 27.2909 32.6175C29.3091 32.3604 31.3594 32.6335 33.2399 33.41C34.7902 30.3272 37.1667 27.7358 40.1041 25.9251C43.0415 24.1143 46.4243 23.1555 49.8749 23.1555C53.3256 23.1555 56.7084 24.1143 59.6458 25.9251C62.5832 27.7358 64.9596 30.3272 66.5099 33.41C68.3937 32.624 70.4499 32.3433 72.4754 32.5954C74.501 32.8475 76.4256 33.6238 78.0592 34.8476C79.6929 36.0713 80.9789 37.7002 81.7902 39.5732C82.6015 41.4461 82.91 43.4984 82.6852 45.5271C82.4605 47.5559 81.7102 49.4909 80.5086 51.1408C79.307 52.7908 77.6957 54.0987 75.8338 54.9352C73.972 55.7717 71.9241 56.1079 69.8925 55.9106C67.8609 55.7133 65.916 54.9892 64.2499 53.81C62.705 55.6341 60.8329 57.1535 58.7299 58.29L56.7299 64.19C59.8187 63.2462 62.6788 61.6732 65.1299 59.57C67.0056 60.275 68.9963 60.6242 70.9999 60.6C73.1883 60.654 75.3654 60.2697 77.4031 59.4695C79.4407 58.6694 81.2976 57.4696 82.8645 55.9409C84.4314 54.4123 85.6766 52.5855 86.5268 50.5683C87.377 48.551 87.815 46.3841 87.815 44.195C87.815 42.0059 87.377 39.8389 86.5268 37.8217C85.6766 35.8045 84.4314 33.9777 82.8645 32.449C81.2976 30.9203 79.4407 29.7206 77.4031 28.9205C75.3654 28.1203 73.1883 27.736 70.9999 27.79Z" fill="#4469E4"/>
<path d="M25.78 75.64C25.78 76.7009 26.2015 77.7183 26.9516 78.4684C27.7017 79.2186 28.7192 79.64 29.78 79.64C30.8409 79.64 31.8583 79.2186 32.6085 78.4684C33.3586 77.7183 33.78 76.7009 33.78 75.64C33.78 73.41 29.78 67.64 29.78 67.64C29.78 67.64 25.78 73.41 25.78 75.64Z" fill="#4469E4"/>
<path d="M55.8401 80.17C55.8401 81.4139 56.3342 82.6068 57.2138 83.4863C58.0933 84.3659 59.2862 84.86 60.5301 84.86C61.774 84.86 62.9669 84.3659 63.8464 83.4863C64.726 82.6068 65.2201 81.4139 65.2201 80.17C65.2201 77.58 60.5301 70.79 60.5301 70.79C60.5301 70.79 55.8401 77.58 55.8401 80.17Z" fill="#4469E4"/>
<path d="M68.47 72.84C68.47 74.0839 68.9641 75.2768 69.8436 76.1563C70.7232 77.0359 71.9161 77.53 73.16 77.53C74.4038 77.53 75.5968 77.0359 76.4763 76.1563C77.3558 75.2768 77.85 74.0839 77.85 72.84C77.85 70.25 73.16 63.46 73.16 63.46C73.16 63.46 68.47 70.25 68.47 72.84Z" fill="#4469E4"/>
<path d="M53.0001 49.71C52.7617 49.6487 52.5135 49.6354 52.2699 49.6707C52.0264 49.706 51.7922 49.7894 51.581 49.9159C51.3699 50.0424 51.186 50.2095 51.0399 50.4076C50.8938 50.6058 50.7885 50.8309 50.7301 51.07L43.8601 78.33C43.7389 78.8127 43.814 79.3237 44.0689 79.7511C44.3238 80.1785 44.7378 80.4874 45.2201 80.61C45.3728 80.6291 45.5274 80.6291 45.6801 80.61C46.0982 80.6094 46.5041 80.4694 46.8337 80.2122C47.1633 79.9551 47.3978 79.5954 47.5001 79.19L54.3101 52C54.4388 51.5227 54.3733 51.0138 54.1278 50.5846C53.8823 50.1555 53.4768 49.841 53.0001 49.71Z" fill="#4469E4"/>
</svg>
