<svg width="100" height="100" viewBox="0 0 100 100" fill="none" xmlns="http://www.w3.org/2000/svg">
<rect width="100" height="100" fill="none"/>
<path d="M71.2397 41.9033C70.4666 41.9052 69.6947 41.962 68.9297 42.0733C66.7716 39.1165 63.9459 36.711 60.6825 35.0527C57.4191 33.3944 53.8102 32.53 50.1497 32.53C46.4891 32.53 42.8802 33.3944 39.6168 35.0527C36.3534 36.711 33.5277 39.1165 31.3697 42.0733C30.6047 41.9616 29.8327 41.9048 29.0597 41.9033C24.7075 41.9033 20.5335 43.6322 17.456 46.7097C14.3786 49.7872 12.6497 53.9611 12.6497 58.3133C12.6497 62.6655 14.3786 66.8395 17.456 69.9169C20.5335 72.9944 24.7075 74.7233 29.0597 74.7233C31.0462 74.723 33.0157 74.3569 34.8697 73.6433C39.0944 77.3552 44.5259 79.4024 50.1497 79.4024C55.7734 79.4024 61.2049 77.3552 65.4297 73.6433C67.2834 74.3578 69.253 74.7239 71.2397 74.7233C75.5919 74.7233 79.7658 72.9944 82.8433 69.9169C85.9207 66.8395 87.6497 62.6655 87.6497 58.3133C87.6497 53.9611 85.9207 49.7872 82.8433 46.7097C79.7658 43.6322 75.5919 41.9033 71.2397 41.9033ZM71.2397 70.0333C68.831 70.0305 66.4827 69.2791 64.5197 67.8833C62.7851 70.0207 60.5955 71.7441 58.1104 72.9278C55.6253 74.1116 52.9073 74.7258 50.1547 74.7258C47.402 74.7258 44.6841 74.1116 42.1989 72.9278C39.7138 71.7441 37.5242 70.0207 35.7897 67.8833C34.284 68.9417 32.5501 69.6302 30.7286 69.8932C28.9071 70.1561 27.0492 69.986 25.3057 69.3967C23.5623 68.8073 21.9822 67.8153 20.6938 66.5012C19.4054 65.187 18.4449 63.5876 17.8902 61.8328C17.3355 60.078 17.2022 58.2172 17.5011 56.4012C17.8001 54.5852 18.5228 52.8653 19.6108 51.3809C20.6987 49.8965 22.1212 48.6895 23.7629 47.8576C25.4046 47.0258 27.2193 46.5927 29.0597 46.5933C30.5873 46.5928 32.0998 46.8953 33.5097 47.4833C35.06 44.4005 37.4364 41.8091 40.3738 39.9984C43.3112 38.1877 46.694 37.2288 50.1447 37.2288C53.5953 37.2288 56.9781 38.1877 59.9155 39.9984C62.8529 41.8091 65.2294 44.4005 66.7797 47.4833C68.3816 46.8207 70.1106 46.5217 71.842 46.6078C73.5734 46.694 75.2642 47.1631 76.7924 47.9815C78.3206 48.7999 79.6483 49.9472 80.6796 51.3405C81.711 52.7339 82.4204 54.3387 82.7568 56.0394C83.0932 57.74 83.048 59.494 82.6247 61.1751C82.2014 62.8562 81.4105 64.4225 80.3089 65.761C79.2072 67.0995 77.8224 68.177 76.2541 68.9158C74.6858 69.6546 72.9732 70.0362 71.2397 70.0333Z" fill="#4469E4"/>
<path fill-rule="evenodd" clip-rule="evenodd" d="M30.6299 90.54C30.6299 91.1966 30.7592 91.8468 31.0105 92.4534C31.2618 93.06 31.6301 93.6112 32.0944 94.0755C32.5586 94.5398 33.1098 94.9081 33.7165 95.1594C34.3231 95.4107 34.9733 95.54 35.6299 95.54C36.2865 95.54 36.9367 95.4107 37.5433 95.1594C38.1499 94.9081 38.7011 94.5398 39.1654 94.0755C39.6297 93.6112 39.998 93.06 40.2493 92.4534C40.5006 91.8468 40.6299 91.1966 40.6299 90.54C40.6299 87.78 35.6299 80.54 35.6299 80.54C35.6299 80.54 30.6299 87.78 30.6299 90.54Z" fill="#4469E4"/>
<path d="M73.13 88C73.13 88.42 72.9639 88.8229 72.6679 89.1208C72.3718 89.4187 71.97 89.5874 71.55 89.59H58.85C58.4283 89.59 58.0239 89.4225 57.7257 89.1243C57.4275 88.8261 57.26 88.4217 57.26 88C57.26 87.5783 57.4275 87.1739 57.7257 86.8757C58.0239 86.5775 58.4283 86.41 58.85 86.41H71.55C71.97 86.4127 72.3718 86.5814 72.6679 86.8792C72.9639 87.1771 73.13 87.5801 73.13 88Z" fill="#4469E4"/>
<path d="M69.17 94.91C68.8052 95.1204 68.3719 95.1775 67.9651 95.0687C67.5583 94.96 67.2112 94.6943 67 94.33L60.65 83.33C60.5448 83.1505 60.4762 82.9518 60.4484 82.7456C60.4206 82.5393 60.4341 82.3296 60.488 82.1286C60.542 81.9276 60.6354 81.7394 60.7628 81.5748C60.8902 81.4102 61.049 81.2726 61.23 81.17C61.5948 80.9596 62.0282 80.9025 62.435 81.0113C62.8418 81.12 63.1889 81.3857 63.4 81.75L69.75 92.75C69.9604 93.1148 70.0175 93.5481 69.9088 93.9549C69.8 94.3618 69.5344 94.7088 69.17 94.92V94.91Z" fill="#4469E4"/>
<path d="M69.1699 81.17C69.351 81.2726 69.5098 81.4102 69.6372 81.5748C69.7646 81.7394 69.858 81.9276 69.9119 82.1286C69.9659 82.3296 69.9794 82.5393 69.9516 82.7456C69.9238 82.9518 69.8552 83.1505 69.7499 83.33L63.3999 94.33C63.1888 94.6943 62.8417 94.96 62.4349 95.0687C62.0281 95.1775 61.5947 95.1204 61.2299 94.91C61.0486 94.8064 60.8895 94.6678 60.762 94.5024C60.6345 94.3369 60.5411 94.1478 60.4872 93.946C60.4332 93.7442 60.4199 93.5337 60.4478 93.3267C60.4757 93.1197 60.5444 92.9203 60.6499 92.74L66.9999 81.74C67.2111 81.3757 67.5582 81.11 67.965 81.0013C68.3718 80.8925 68.8052 80.9496 69.1699 81.16V81.17Z" fill="#4469E4"/>
<path d="M43.1496 13.7918C43.4586 13.788 43.7638 13.7229 44.0475 13.6004C44.3312 13.4779 44.5879 13.3005 44.8027 13.0783C45.0174 12.8561 45.1861 12.5935 45.2988 12.3058C45.4116 12.018 45.4662 11.7108 45.4596 11.4018V6.76184C45.4596 6.14124 45.2131 5.54605 44.7742 5.10721C44.3354 4.66838 43.7402 4.42184 43.1196 4.42184C42.499 4.42184 41.9038 4.66838 41.465 5.10721C41.0261 5.54605 40.7796 6.14124 40.7796 6.76184V11.4018C40.7729 11.7159 40.8294 12.028 40.9459 12.3197C41.0623 12.6114 41.2363 12.8767 41.4575 13.0997C41.6786 13.3227 41.9424 13.499 42.2331 13.6179C42.5239 13.7368 42.8355 13.7959 43.1496 13.7918Z" fill="#ED6C3A"/>
<path d="M61.3498 19.9619L64.6598 16.6519C65.1 16.2129 65.3479 15.6171 65.3488 14.9954C65.3498 14.3737 65.1037 13.7771 64.6648 13.3369C64.2258 12.8966 63.63 12.6487 63.0083 12.6478C62.3866 12.6469 61.79 12.8929 61.3498 13.3319L58.0298 16.6519C57.5908 17.0921 57.3448 17.6887 57.3457 18.3104C57.3466 18.9321 57.5945 19.5279 58.0348 19.9669C58.475 20.4058 59.0716 20.6519 59.6933 20.6509C60.315 20.65 60.9108 20.4021 61.3498 19.9619Z" fill="#ED6C3A"/>
<path d="M14.9898 37.2319H19.6798C20.0006 37.2528 20.3223 37.2077 20.625 37.0994C20.9277 36.991 21.2049 36.8217 21.4396 36.6019C21.6742 36.3821 21.8613 36.1165 21.9891 35.8215C22.117 35.5265 22.183 35.2084 22.183 34.8869C22.183 34.5654 22.117 34.2473 21.9891 33.9523C21.8613 33.6573 21.6742 33.3917 21.4396 33.1719C21.2049 32.952 20.9277 32.7827 20.625 32.6744C20.3223 32.566 20.0006 32.5209 19.6798 32.5419H14.9898C14.3943 32.5808 13.8359 32.8448 13.428 33.2802C13.02 33.7157 12.793 34.2901 12.793 34.8869C12.793 35.4836 13.02 36.058 13.428 36.4935C13.8359 36.929 14.3943 37.193 14.9898 37.2319Z" fill="#ED6C3A"/>
<path d="M64.2095 34.8819C64.2095 35.5051 64.4571 36.1029 64.8978 36.5436C65.3385 36.9843 65.9362 37.2319 66.5595 37.2319H71.2395C71.5603 37.2528 71.882 37.2077 72.1847 37.0994C72.4874 36.991 72.7647 36.8217 72.9993 36.6019C73.2339 36.3821 73.421 36.1165 73.5489 35.8215C73.6767 35.5265 73.7427 35.2084 73.7427 34.8869C73.7427 34.5654 73.6767 34.2473 73.5489 33.9523C73.421 33.6573 73.2339 33.3917 72.9993 33.1719C72.7647 32.952 72.4874 32.7827 72.1847 32.6744C71.882 32.566 71.5603 32.5209 71.2395 32.5419H66.5595C65.9379 32.5419 65.3417 32.7881 64.9013 33.2266C64.4609 33.6652 64.2121 34.2603 64.2095 34.8819Z" fill="#ED6C3A"/>
<path d="M24.8896 19.9618C25.3285 20.4008 25.9239 20.6474 26.5446 20.6474C27.1654 20.6474 27.7607 20.4008 28.1996 19.9618C28.6385 19.5229 28.8851 18.9276 28.8851 18.3068C28.8851 17.6861 28.6385 17.0908 28.1996 16.6518L24.8896 13.3318C24.6754 13.0974 24.416 12.9087 24.1269 12.7773C23.8378 12.6459 23.5251 12.5745 23.2076 12.5673C22.8901 12.5601 22.5745 12.6173 22.2798 12.7355C21.985 12.8537 21.7173 13.0304 21.4927 13.255C21.2682 13.4795 21.0915 13.7473 20.9733 14.042C20.8551 14.3367 20.7979 14.6524 20.805 14.9698C20.8122 15.2873 20.8837 15.6 21.0151 15.8891C21.1465 16.1782 21.3351 16.4377 21.5696 16.6518L24.8896 19.9618Z" fill="#ED6C3A"/>
<path d="M59.489 34.4934C59.4326 30.1605 57.6626 26.0256 54.5652 22.9936C51.4586 19.9527 47.2713 18.2704 42.9244 18.3169C38.5775 18.3633 34.4271 20.1346 31.3862 23.2411C28.3453 26.3477 26.663 30.535 26.7094 34.8819C26.7221 37.3254 27.2904 39.7338 28.3711 41.9247C28.6013 41.915 28.8321 41.9101 29.0635 41.9101C29.8365 41.9117 30.6085 41.9685 31.3735 42.0801C31.8199 41.4685 32.2948 40.8805 32.7964 40.3177C31.8928 38.6476 31.4131 36.781 31.3994 34.8819C31.3988 31.9408 32.5059 29.1073 34.5002 26.9457C36.4945 24.784 39.2298 23.4528 42.1614 23.217C45.0931 22.9812 48.0059 23.8582 50.3201 25.6733C52.6244 27.4806 54.1667 30.086 54.6433 32.9745C56.306 33.3018 57.9312 33.8104 59.489 34.4934Z" fill="#ED6C3A"/>
</svg>
