<svg width="100" height="100" viewBox="0 0 100 100" fill="none" xmlns="http://www.w3.org/2000/svg">
<rect width="100" height="100" fill="none"/>
<path fill-rule="evenodd" clip-rule="evenodd" d="M71.09 24.53C70.317 24.5319 69.545 24.5887 68.78 24.7C66.622 21.7432 63.7963 19.3377 60.5329 17.6794C57.2695 16.0211 53.6606 15.1567 50 15.1567C46.3395 15.1567 42.7306 16.0211 39.4672 17.6794C36.2038 19.3377 33.3781 21.7432 31.22 24.7C30.4551 24.5883 29.6831 24.5315 28.91 24.53C26.7216 24.476 24.5445 24.8603 22.5069 25.6605C20.4693 26.4606 18.6124 27.6604 17.0455 29.189C15.4786 30.7177 14.2333 32.5445 13.3832 34.5617C12.533 36.579 12.095 38.7459 12.095 40.935C12.095 43.1241 12.533 45.291 13.3832 47.3083C14.2333 49.3255 15.4786 51.1523 17.0455 52.681C18.6124 54.2097 20.4693 55.4094 22.5069 56.2095C24.5445 57.0097 26.7216 57.394 28.91 57.34C30.896 57.3431 32.8655 56.9804 34.72 56.27C36.5212 57.8052 38.5441 59.0593 40.72 59.99L44.37 56.35C40.9655 55.264 37.9362 53.2399 35.63 50.51C33.9662 51.6809 32.0261 52.3981 30.0007 52.5909C27.9754 52.7837 25.9348 52.4456 24.0799 51.6097C22.225 50.7738 20.6199 49.4691 19.4228 47.8242C18.2256 46.1792 17.4777 44.2507 17.2527 42.2286C17.0277 40.2066 17.3334 38.1609 18.1396 36.293C18.9459 34.425 20.2249 32.7994 21.8507 31.5762C23.4764 30.3531 25.3928 29.5746 27.411 29.3175C29.4292 29.0604 31.4795 29.3335 33.36 30.11C34.9077 27.0242 37.2832 24.4297 40.221 22.6166C43.1587 20.8034 46.5428 19.8432 49.995 19.8432C53.4472 19.8432 56.8314 20.8034 59.7691 22.6166C62.7068 24.4297 65.0823 27.0242 66.63 30.11C68.512 29.3282 70.5653 29.0507 72.5872 29.3047C74.6092 29.5588 76.53 30.3357 78.16 31.5587C79.7901 32.7818 81.0731 34.4087 81.8823 36.279C82.6916 38.1493 82.9993 40.1983 82.7749 42.2238C82.5505 44.2493 81.8018 46.1812 80.6028 47.829C79.4038 49.4768 77.7958 50.7835 75.9376 51.6201C74.0793 52.4567 72.0351 52.7944 70.0065 52.5997C67.978 52.405 66.0352 51.6848 64.37 50.51C62.826 52.3377 60.9538 53.8605 58.85 55L56.85 60.9C59.9389 59.9562 62.7989 58.3832 65.25 56.28C67.1043 56.9913 69.074 57.3541 71.06 57.35C73.2484 57.404 75.4256 57.0197 77.4632 56.2195C79.5008 55.4194 81.3577 54.2197 82.9246 52.691C84.4915 51.1623 85.7367 49.3355 86.5869 47.3183C87.4371 45.3011 87.8751 43.1341 87.8751 40.945C87.8751 38.7559 87.4371 36.589 86.5869 34.5717C85.7367 32.5545 84.4915 30.7277 82.9246 29.199C81.3577 27.6704 79.5008 26.4706 77.4632 25.6705C75.4256 24.8703 73.2484 24.486 71.06 24.54L71.09 24.53Z" fill="#4469E4"/>
<path fill-rule="evenodd" clip-rule="evenodd" d="M41.3999 66.09L46.0899 70.78L41.3999 84.84L55.4699 70.78L50.7799 66.09L55.4699 52.03L41.3999 66.09Z" fill="#ED6C3A"/>
</svg>
