<svg width="100" height="100" viewBox="0 0 100 100" fill="none" xmlns="http://www.w3.org/2000/svg">
<rect width="100" height="100" fill="none"/>
<path d="M42.9999 18.39C43.3089 18.3861 43.6141 18.321 43.8979 18.1986C44.1816 18.0761 44.4382 17.8986 44.653 17.6764C44.8678 17.4542 45.0364 17.1916 45.1492 16.9039C45.2619 16.6162 45.3166 16.309 45.3099 16V11.36C45.3099 10.7394 45.0634 10.1442 44.6246 9.70536C44.1857 9.26652 43.5905 9.01999 42.9699 9.01999C42.3493 9.01999 41.7541 9.26652 41.3153 9.70536C40.8765 10.1442 40.6299 10.7394 40.6299 11.36V16C40.6232 16.314 40.6797 16.6262 40.7962 16.9179C40.9127 17.2096 41.0867 17.4748 41.3078 17.6979C41.529 17.9209 41.7928 18.0971 42.0835 18.216C42.3742 18.3349 42.6859 18.3941 42.9999 18.39Z" fill="#ED6C3A"/>
<path d="M61.2001 24.56L64.5101 21.25C64.9504 20.8111 65.1982 20.2152 65.1992 19.5935C65.2001 18.9719 64.954 18.3753 64.5151 17.935C64.0762 17.4947 63.4803 17.2469 62.8586 17.2459C62.237 17.245 61.6404 17.4911 61.2001 17.93L57.8801 21.25C57.4412 21.6903 57.1951 22.2869 57.196 22.9085C57.197 23.5302 57.4448 24.1261 57.8851 24.565C58.3254 25.0039 58.922 25.25 59.5436 25.2491C60.1653 25.2481 60.7612 25.0003 61.2001 24.56Z" fill="#ED6C3A"/>
<path d="M14.8401 41.83H19.5301C19.8509 41.851 20.1726 41.8059 20.4753 41.6975C20.778 41.5892 21.0553 41.4198 21.2899 41.2C21.5246 40.9802 21.7116 40.7146 21.8395 40.4196C21.9673 40.1246 22.0333 39.8065 22.0333 39.485C22.0333 39.1635 21.9673 38.8454 21.8395 38.5504C21.7116 38.2554 21.5246 37.9898 21.2899 37.77C21.0553 37.5502 20.778 37.3809 20.4753 37.2725C20.1726 37.1641 19.8509 37.119 19.5301 37.14H14.8401C14.2446 37.1789 13.6863 37.4429 13.2783 37.8784C12.8703 38.3139 12.6433 38.8883 12.6433 39.485C12.6433 40.0817 12.8703 40.6561 13.2783 41.0916C13.6863 41.5271 14.2446 41.7911 14.8401 41.83Z" fill="#ED6C3A"/>
<path d="M64.0601 39.48C64.0601 40.1033 64.3076 40.701 64.7484 41.1417C65.1891 41.5824 65.7868 41.83 66.4101 41.83H71.0901C71.4109 41.851 71.7326 41.8059 72.0353 41.6975C72.338 41.5892 72.6153 41.4198 72.8499 41.2C73.0845 40.9802 73.2716 40.7146 73.3994 40.4196C73.5273 40.1246 73.5933 39.8065 73.5933 39.485C73.5933 39.1635 73.5273 38.8454 73.3994 38.5504C73.2716 38.2554 73.0845 37.9898 72.8499 37.77C72.6153 37.5502 72.338 37.3809 72.0353 37.2725C71.7326 37.1641 71.4109 37.119 71.0901 37.14H66.4101C65.7885 37.14 65.1923 37.3862 64.7519 37.8248C64.3115 38.2633 64.0627 38.8585 64.0601 39.48Z" fill="#ED6C3A"/>
<path d="M24.74 24.56C25.1789 24.9989 25.7742 25.2455 26.395 25.2455C27.0157 25.2455 27.611 24.9989 28.05 24.56C28.4889 24.1211 28.7355 23.5257 28.7355 22.905C28.7355 22.2842 28.4889 21.6889 28.05 21.25L24.74 17.93C24.5258 17.6955 24.2663 17.5069 23.9772 17.3755C23.6881 17.2441 23.3754 17.1726 23.0579 17.1654C22.7405 17.1582 22.4248 17.2155 22.1301 17.3337C21.8354 17.4519 21.5676 17.6286 21.3431 17.8531C21.1185 18.0777 20.9418 18.3454 20.8236 18.6401C20.7054 18.9349 20.6482 19.2505 20.6554 19.568C20.6626 19.8855 20.734 20.1982 20.8654 20.4873C20.9968 20.7764 21.1855 21.0358 21.42 21.25L24.74 24.56Z" fill="#ED6C3A"/>
<path d="M59.3393 39.0916C59.2829 34.7586 57.5129 30.6237 54.4155 27.5918C51.309 24.5509 47.1217 22.8686 42.7748 22.915C38.4279 22.9614 34.2775 24.7327 31.2366 27.8393C28.1956 30.9458 26.5134 35.1331 26.5598 39.48C26.5724 41.9235 27.1408 44.3319 28.2215 46.5229C28.4516 46.5132 28.6825 46.5083 28.9138 46.5083C29.6869 46.5098 30.4588 46.5666 31.2238 46.6783C31.6702 46.0667 32.1452 45.4786 32.6467 44.9159C31.7432 43.2457 31.2634 41.3791 31.2498 39.48C31.2491 36.5389 32.3562 33.7055 34.3505 31.5438C36.3449 29.3822 39.0801 28.0509 42.0118 27.8151C44.9434 27.5794 47.8563 28.4563 50.1705 30.2714C52.4747 32.0787 54.0171 34.6842 54.4937 37.5727C56.1564 37.8999 57.7815 38.4086 59.3393 39.0916Z" fill="#ED6C3A"/>
<path d="M68.7839 46.6783C69.5489 46.567 70.3208 46.5102 71.0939 46.5083C75.4461 46.5083 79.6201 48.2372 82.6975 51.3147C85.775 54.3921 87.5039 58.5661 87.5039 62.9183C87.5039 67.2705 85.775 71.4444 82.6975 74.5219C79.6201 77.5994 75.4461 79.3283 71.0939 79.3283C69.1073 79.3289 67.1376 78.9628 65.2839 78.2483C63.9432 79.4263 62.4809 80.4366 60.9295 81.2671L58.8071 77.1048C60.9456 75.9487 62.8381 74.3807 64.3739 72.4883C66.3369 73.8841 68.6852 74.6354 71.0939 74.6383C72.8275 74.6412 74.5401 74.2596 76.1084 73.5208C77.6766 72.782 79.0615 71.7045 80.1631 70.366C81.2647 69.0275 82.0557 67.4612 82.479 65.7801C82.9023 64.099 82.9474 62.345 82.611 60.6443C82.2747 58.9437 81.5653 57.3389 80.5339 55.9455C79.5025 54.5521 78.1749 53.4049 76.6466 52.5865C75.1184 51.7681 73.4277 51.2989 71.6962 51.2128C69.9648 51.1266 68.2358 51.4257 66.6339 52.0883C65.0836 49.0055 62.7072 46.4141 59.7698 44.6034C56.8324 42.7926 53.4496 41.8338 49.9989 41.8338C46.5482 41.8338 43.1655 42.7926 40.2281 44.6034C37.2906 46.4141 34.9142 49.0055 33.3639 52.0883C31.954 51.5003 30.4415 51.1978 28.9139 51.1983C27.0735 51.1977 25.2589 51.6308 23.6172 52.4626C21.9755 53.2944 20.553 54.5015 19.465 55.9859C18.3771 57.4703 17.6543 59.1902 17.3554 61.0062C17.0564 62.8221 17.1897 64.683 17.7444 66.4378C18.2991 68.1926 19.2596 69.792 20.5481 71.1061C21.8365 72.4203 23.4165 73.4123 25.16 74.0017C26.9035 74.591 28.7613 74.7611 30.5828 74.4982C32.4044 74.2352 34.1383 73.5466 35.6439 72.4883C37.2314 74.4445 39.2002 76.054 41.4279 77.2203L39.164 81.3127C37.5808 80.4738 36.0893 79.448 34.7239 78.2483C32.87 78.9619 30.9005 79.328 28.9139 79.3283C24.5617 79.3283 20.3878 77.5994 17.3103 74.5219C14.2328 71.4444 12.5039 67.2705 12.5039 62.9183C12.5039 58.5661 14.2328 54.3921 17.3103 51.3147C20.3878 48.2372 24.5617 46.5083 28.9139 46.5083C29.687 46.5098 30.4589 46.5666 31.2239 46.6783C33.382 43.7215 36.2077 41.316 39.4711 39.6577C42.7345 37.9994 46.3433 37.135 50.0039 37.135C53.6645 37.135 57.2733 37.9994 60.5367 39.6577C63.8001 41.316 66.6259 43.7215 68.7839 46.6783Z" fill="#4469E4"/>
<path d="M57.4899 80.8159H53.2399L55.3699 77.1459C55.5882 76.7171 55.6337 76.2209 55.4971 75.7596C55.3605 75.2982 55.0523 74.9068 54.6358 74.6659C54.2193 74.425 53.7263 74.3529 53.2583 74.4645C52.7903 74.5761 52.3829 74.863 52.1199 75.2659L49.9999 78.9459L47.8699 75.2659C47.6206 74.8363 47.2109 74.5232 46.7308 74.3957C46.2507 74.2682 45.7396 74.3366 45.3099 74.5859C44.8803 74.8352 44.5673 75.245 44.4398 75.7251C44.3122 76.2052 44.3806 76.7163 44.6299 77.1459L46.7599 80.8159H42.5099C42.2522 80.7971 41.9933 80.8316 41.7495 80.9173C41.5057 81.003 41.2822 81.138 41.0929 81.314C40.9036 81.4899 40.7527 81.703 40.6494 81.9399C40.5462 82.1768 40.4929 82.4325 40.4929 82.6909C40.4929 82.9494 40.5462 83.205 40.6494 83.4419C40.7527 83.6788 40.9036 83.8919 41.0929 84.0679C41.2822 84.2438 41.5057 84.3789 41.7495 84.4646C41.9933 84.5502 42.2522 84.5848 42.5099 84.5659H46.7599L44.6299 88.2459C44.5072 88.4587 44.4275 88.6935 44.3955 88.937C44.3634 89.1806 44.3797 89.428 44.4433 89.6653C44.5069 89.9025 44.6166 90.1249 44.7662 90.3198C44.9157 90.5146 45.1022 90.6781 45.3149 90.8009C45.5277 90.9237 45.7625 91.0034 46.0061 91.0354C46.2496 91.0674 46.4971 91.0512 46.7343 90.9876C46.9716 90.924 47.194 90.8142 47.3888 90.6647C47.5837 90.5151 47.7472 90.3287 47.8699 90.1159L49.9999 86.4359L52.1199 90.1159C52.3679 90.5469 52.7769 90.8617 53.257 90.9911C53.7371 91.1205 54.249 91.0539 54.6799 90.8059C55.1109 90.5579 55.4257 90.1489 55.5551 89.6688C55.6845 89.1887 55.6179 88.6769 55.3699 88.2459L53.2399 84.5659H57.4899C57.7477 84.5848 58.0065 84.5502 58.2504 84.4646C58.4942 84.3789 58.7177 84.2438 58.907 84.0679C59.0962 83.8919 59.2472 83.6788 59.3504 83.4419C59.4537 83.205 59.507 82.9494 59.507 82.6909C59.507 82.4325 59.4537 82.1768 59.3504 81.9399C59.2472 81.703 59.0962 81.4899 58.907 81.314C58.7177 81.138 58.4942 81.003 58.2504 80.9173C58.0065 80.8316 57.7477 80.7971 57.4899 80.8159Z" fill="#4469E4"/>
</svg>
