<svg width="100" height="100" viewBox="0 0 100 100" fill="none" xmlns="http://www.w3.org/2000/svg">
<rect width="100" height="100" fill="none"/>
<path d="M68.7839 43.3024C69.5489 43.1911 70.3208 43.1343 71.0939 43.1324C75.4461 43.1324 79.6201 44.8613 82.6975 47.9388C85.775 51.0162 87.5039 55.1902 87.5039 59.5424C87.5039 63.8946 85.775 68.0685 82.6975 71.146C79.6201 74.2235 75.4461 75.9524 71.0939 75.9524C69.1073 75.953 67.1376 75.5869 65.2839 74.8724C63.9432 76.0504 62.4809 77.0607 60.9295 77.8912L58.8071 73.7289C60.9456 72.5727 62.8381 71.0048 64.3739 69.1124C66.3369 70.5082 68.6852 71.2595 71.0939 71.2624C72.8275 71.2653 74.5401 70.8836 76.1084 70.1449C77.6766 69.4061 79.0615 68.3286 80.1631 66.9901C81.2647 65.6515 82.0557 64.0853 82.479 62.4042C82.9023 60.7231 82.9474 58.9691 82.611 57.2684C82.2747 55.5678 81.5653 53.963 80.5339 52.5696C79.5025 51.1762 78.1749 50.029 76.6466 49.2106C75.1184 48.3922 73.4277 47.923 71.6962 47.8369C69.9648 47.7507 68.2358 48.0497 66.6339 48.7124C65.0836 45.6296 62.7072 43.0382 59.7698 41.2275C56.8324 39.4167 53.4496 38.4579 49.9989 38.4579C46.5482 38.4579 43.1655 39.4167 40.2281 41.2275C37.2906 43.0382 34.9142 45.6296 33.3639 48.7124C31.954 48.1244 30.4415 47.8218 28.9139 47.8224C27.0735 47.8217 25.2589 48.2549 23.6172 49.0867C21.9755 49.9185 20.553 51.1256 19.465 52.61C18.3771 54.0944 17.6543 55.8143 17.3554 57.6303C17.0564 59.4462 17.1897 61.3071 17.7444 63.0619C18.2991 64.8167 19.2596 66.4161 20.5481 67.7302C21.8365 69.0444 23.4165 70.0364 25.16 70.6257C26.9035 71.2151 28.7613 71.3852 30.5828 71.1222C32.4044 70.8593 34.1383 70.1707 35.6439 69.1124C37.2314 71.0686 39.2002 72.6781 41.4279 73.8444L39.164 77.9368C37.5808 77.0978 36.0893 76.0721 34.7239 74.8724C32.87 75.586 30.9005 75.9521 28.9139 75.9524C24.5617 75.9524 20.3878 74.2235 17.3103 71.146C14.2328 68.0685 12.5039 63.8946 12.5039 59.5424C12.5039 55.1902 14.2328 51.0162 17.3103 47.9388C20.3878 44.8613 24.5617 43.1324 28.9139 43.1324C29.687 43.1339 30.4589 43.1907 31.2239 43.3024C33.382 40.3456 36.2077 37.9401 39.4711 36.2818C42.7345 34.6234 46.3433 33.7591 50.0039 33.7591C53.6645 33.7591 57.2733 34.6234 60.5367 36.2818C63.8001 37.9401 66.6259 40.3456 68.7839 43.3024Z" fill="#4469E4"/>
<path d="M57.4899 78.44H53.2399L55.3699 74.77C55.5882 74.3412 55.6337 73.845 55.4971 73.3837C55.3605 72.9223 55.0523 72.5309 54.6358 72.29C54.2193 72.0491 53.7263 71.977 53.2583 72.0886C52.7903 72.2002 52.3829 72.487 52.1199 72.89L49.9999 76.57L47.8699 72.89C47.6206 72.4604 47.2109 72.1473 46.7308 72.0198C46.2507 71.8923 45.7396 71.9607 45.3099 72.21C44.8803 72.4593 44.5673 72.8691 44.4398 73.3492C44.3122 73.8293 44.3806 74.3403 44.6299 74.77L46.7599 78.44H42.5099C42.2522 78.4212 41.9933 78.4557 41.7495 78.5414C41.5057 78.6271 41.2822 78.7621 41.0929 78.9381C40.9036 79.114 40.7527 79.3271 40.6494 79.564C40.5462 79.8009 40.4929 80.0566 40.4929 80.315C40.4929 80.5734 40.5462 80.8291 40.6494 81.066C40.7527 81.3029 40.9036 81.516 41.0929 81.692C41.2822 81.8679 41.5057 82.0029 41.7495 82.0886C41.9933 82.1743 42.2522 82.2088 42.5099 82.19H46.7599L44.6299 85.87C44.5072 86.0827 44.4275 86.3176 44.3955 86.5611C44.3634 86.8047 44.3797 87.0521 44.4433 87.2894C44.5069 87.5266 44.6166 87.749 44.7662 87.9439C44.9157 88.1387 45.1022 88.3022 45.3149 88.425C45.5277 88.5478 45.7625 88.6275 46.0061 88.6595C46.2496 88.6915 46.4971 88.6753 46.7343 88.6117C46.9716 88.548 47.194 88.4383 47.3888 88.2888C47.5837 88.1392 47.7472 87.9527 47.8699 87.74L49.9999 84.06L52.1199 87.74C52.3679 88.171 52.7769 88.4858 53.257 88.6152C53.7371 88.7446 54.249 88.678 54.6799 88.43C55.1109 88.182 55.4257 87.773 55.5551 87.2929C55.6845 86.8128 55.6179 86.301 55.3699 85.87L53.2399 82.19H57.4899C57.7477 82.2088 58.0065 82.1743 58.2504 82.0886C58.4942 82.0029 58.7177 81.8679 58.907 81.692C59.0962 81.516 59.2472 81.3029 59.3504 81.066C59.4537 80.8291 59.507 80.5734 59.507 80.315C59.507 80.0566 59.4537 79.8009 59.3504 79.564C59.2472 79.3271 59.0962 79.114 58.907 78.9381C58.7177 78.7621 58.4942 78.6271 58.2504 78.5414C58.0065 78.4557 57.7477 78.4212 57.4899 78.44Z" fill="#4469E4"/>
<path d="M50.0001 33.7609C53.6607 33.7609 57.2695 34.6252 60.5329 36.2835C63.7963 37.9419 66.622 40.3473 68.7801 43.3041C69.5451 43.1928 70.317 43.136 71.0901 43.1341C72.8784 43.1341 74.6366 43.426 76.301 43.9835C77.0105 43.4837 77.6821 42.9321 78.3102 42.333C80.2729 40.3565 81.7663 37.9643 82.6802 35.333C82.8329 34.9143 82.8628 34.4608 82.7664 34.0256C82.6701 33.5905 82.4515 33.1919 82.1364 32.8768C81.8213 32.5617 81.4227 32.3431 80.9876 32.2468C80.5525 32.1504 80.0989 32.1804 79.6802 32.333C77.1851 33.2207 74.4893 33.3824 71.906 32.7994C69.3226 32.2165 66.9576 30.9127 65.0855 29.0396C63.2134 27.1664 61.911 24.8007 61.3294 22.217C60.7479 19.6333 60.9112 16.9377 61.8002 14.443C61.9485 14.0246 61.9752 13.5727 61.8773 13.1397C61.7794 12.7067 61.5608 12.3103 61.2469 11.9963C60.933 11.6824 60.5366 11.4639 60.1035 11.3659C59.6705 11.268 59.2186 11.2947 58.8002 11.443C54.3303 12.9778 50.6172 16.1652 48.423 20.351C46.2287 24.5368 45.7196 29.4037 47.0002 33.953L50.0001 33.7609Z" fill="#EAB359"/>
</svg>
