<svg width="100" height="100" viewBox="0 0 100 100" fill="none" xmlns="http://www.w3.org/2000/svg">
<rect width="100" height="100" fill="none"/>
<path fill-rule="evenodd" clip-rule="evenodd" d="M71.09 21.29C70.3172 21.2885 69.5453 21.342 68.78 21.45C66.622 18.4932 63.7963 16.0877 60.5329 14.4294C57.2695 12.7711 53.6606 11.9067 50 11.9067C46.3395 11.9067 42.7306 12.7711 39.4672 14.4294C36.2038 16.0877 33.3781 18.4932 31.22 21.45C30.4549 21.3413 29.6829 21.2878 28.91 21.29C26.7216 21.236 24.5445 21.6203 22.5069 22.4205C20.4693 23.2206 18.6124 24.4203 17.0455 25.949C15.4786 27.4777 14.2333 29.3045 13.3832 31.3217C12.533 33.3389 12.095 35.5059 12.095 37.695C12.095 39.8841 12.533 42.051 13.3832 44.0683C14.2333 46.0855 15.4786 47.9123 17.0455 49.4409C18.6124 50.9696 20.4693 52.1694 22.5069 52.9695C24.5445 53.7697 26.7216 54.154 28.91 54.1C30.8978 54.0936 32.8674 53.7207 34.72 53C38.9448 56.7119 44.3763 58.7591 50 58.7591C55.6238 58.7591 61.0553 56.7119 65.28 53C67.1346 53.7104 69.1041 54.0731 71.09 54.07C73.2784 54.124 75.4556 53.7397 77.4932 52.9395C79.5308 52.1394 81.3877 50.9396 82.9546 49.4109C84.5215 47.8823 85.7667 46.0555 86.6169 44.0383C87.4671 42.021 87.9051 39.8541 87.9051 37.665C87.9051 35.4759 87.4671 33.309 86.6169 31.2917C85.7667 29.2745 84.5215 27.4477 82.9546 25.919C81.3877 24.3903 79.5308 23.1906 77.4932 22.3905C75.4556 21.5903 73.2784 21.206 71.09 21.26V21.29ZM71.09 49.41C68.6825 49.4094 66.3345 48.6617 64.37 47.27C62.6334 49.4042 60.4431 51.1246 57.9582 52.3061C55.4734 53.4877 52.7565 54.1008 50.005 54.1008C47.2536 54.1008 44.5367 53.4877 42.0518 52.3061C39.567 51.1246 37.3767 49.4042 35.64 47.27C33.9762 48.4409 32.0361 49.158 30.0107 49.3509C27.9854 49.5437 25.9448 49.2055 24.0899 48.3697C22.235 47.5338 20.6299 46.2291 19.4328 44.5841C18.2356 42.9392 17.4877 41.0106 17.2627 38.9886C17.0377 36.9666 17.3434 34.9209 18.1496 33.0529C18.9559 31.185 20.2349 29.5594 21.8607 28.3362C23.4864 27.1131 25.4028 26.3346 27.421 26.0775C29.4392 25.8204 31.4895 26.0935 33.37 26.87C34.9161 23.7838 37.2905 21.1886 40.2275 19.375C43.1645 17.5614 46.5482 16.6008 50 16.6008C53.4519 16.6008 56.8356 17.5614 59.7726 19.375C62.7096 21.1886 65.084 23.7838 66.63 26.87C68.23 26.212 69.9558 25.9167 71.6835 26.0054C73.4112 26.094 75.0978 26.5643 76.6221 27.3825C78.1463 28.2007 79.4703 29.3465 80.4989 30.7374C81.5275 32.1284 82.2352 33.7299 82.571 35.427C82.9068 37.1241 82.8624 38.8744 82.441 40.5523C82.0196 42.2302 81.2317 43.7938 80.1339 45.1308C79.0361 46.4679 77.6558 47.545 76.092 48.2849C74.5283 49.0248 72.82 49.4091 71.09 49.41Z" fill="#4469E4"/>
<path d="M20.43 71.75L15.51 64.72L20.43 57.69L25.35 64.72L20.43 71.75Z" fill="#4469E4"/>
<path d="M35.2201 79.08L30.3 72.05L35.2201 65.02L40.14 72.05L35.2201 79.08Z" fill="#4469E4"/>
<path d="M50.0001 88.09L45.0801 81.06L50.0001 74.02L54.9201 81.06L50.0001 88.09Z" fill="#4469E4"/>
<path d="M64.7901 79.08L59.8601 72.05L64.7901 65.02L69.7101 72.05L64.7901 79.08Z" fill="#4469E4"/>
<path d="M79.5699 71.75L74.6499 64.72L79.5699 57.69L84.4899 64.72L79.5699 71.75Z" fill="#4469E4"/>
</svg>
